<svg xmlns="http://www.w3.org/2000/svg" xmlns:xlink="http://www.w3.org/1999/xlink" width="2000" zoomAndPan="magnify" viewBox="0 0 1500 749.999995" height="1000" preserveAspectRatio="xMidYMid meet" version="1.0"><defs><g/><clipPath id="1068ae8941"><path d="M 487.5 75 L 1012.5 75 L 1012.5 675 L 487.5 675 Z M 487.5 75 " clip-rule="nonzero"/></clipPath><clipPath id="4294675daa"><path d="M 522.75 75 L 977.25 75 C 996.71875 75 1012.5 90.78125 1012.5 110.25 L 1012.5 639.75 C 1012.5 659.21875 996.71875 675 977.25 675 L 522.75 675 C 503.28125 675 487.5 659.21875 487.5 639.75 L 487.5 110.25 C 487.5 90.78125 503.28125 75 522.75 75 Z M 522.75 75 " clip-rule="nonzero"/></clipPath><clipPath id="234c54a231"><path d="M 75 75 L 300 75 L 300 675 L 75 675 Z M 75 75 " clip-rule="nonzero"/></clipPath><clipPath id="293ad2eb14"><path d="M 110.25 75 L 264.75 75 C 284.21875 75 300 90.78125 300 110.25 L 300 639.75 C 300 659.21875 284.21875 675 264.75 675 L 110.25 675 C 90.78125 675 75 659.21875 75 639.75 L 75 110.25 C 75 90.78125 90.78125 75 110.25 75 Z M 110.25 75 " clip-rule="nonzero"/></clipPath><clipPath id="fc4885b75c"><path d="M 1200 75 L 1425 75 L 1425 675 L 1200 675 Z M 1200 75 " clip-rule="nonzero"/></clipPath><clipPath id="9b30ec3f7e"><path d="M 1235.25 75 L 1389.75 75 C 1409.21875 75 1425 90.78125 1425 110.25 L 1425 639.75 C 1425 659.21875 1409.21875 675 1389.75 675 L 1235.25 675 C 1215.78125 675 1200 659.21875 1200 639.75 L 1200 110.25 C 1200 90.78125 1215.78125 75 1235.25 75 Z M 1235.25 75 " clip-rule="nonzero"/></clipPath></defs><g clip-path="url(#1068ae8941)"><g clip-path="url(#4294675daa)"><path fill="#ffffff" d="M 487.5 75 L 1012.5 75 L 1012.5 675.878906 L 487.5 675.878906 Z M 487.5 75 " fill-opacity="1" fill-rule="nonzero"/><path stroke-linecap="butt" transform="matrix(0.75, 0, 0, 0.75, 487.500006, 75.000016)" fill="none" stroke-linejoin="miter" d="M 46.999995 -0.0000217933 L 653.000024 -0.0000217933 C 678.958359 -0.0000217933 700.000027 21.041646 700.000027 46.99998 L 700.000027 753.000015 C 700.000027 778.95835 678.958359 800.000017 653.000024 800.000017 L 46.999995 800.000017 C 21.04166 800.000017 -0.00000739 778.95835 -0.00000739 753.000015 L -0.00000739 46.99998 C -0.00000739 21.041646 21.04166 -0.0000217933 46.999995 -0.0000217933 Z M 46.999995 -0.0000217933 " stroke="#000000" stroke-width="8" stroke-opacity="1" stroke-miterlimit="4"/></g></g><g fill="#000000" fill-opacity="1"><g transform="translate(665.36716, 390.750001)"><g><path d="M 18.125 -8.640625 L 6.765625 -8.640625 L 4.046875 0 L 0.40625 0 L 9.28125 -26.640625 C 9.4375 -27.273438 9.875 -27.59375 10.59375 -27.59375 L 14.28125 -27.59375 C 15 -27.59375 15.4375 -27.273438 15.59375 -26.640625 L 24.484375 0 L 20.84375 0 Z M 17.15625 -11.6875 L 13.6875 -22.640625 C 13.4375 -23.335938 13.207031 -24.082031 13 -24.875 L 11.875 -24.875 L 11.203125 -22.640625 L 7.71875 -11.6875 Z M 17.15625 -11.6875 "/></g></g></g><g fill="#000000" fill-opacity="1"><g transform="translate(690.244692, 390.750001)"><g><path d="M 6.5625 -28 L 6.5625 -5.359375 C 6.53125 -4.503906 6.738281 -3.859375 7.1875 -3.421875 C 7.644531 -2.984375 8.316406 -2.765625 9.203125 -2.765625 L 11.078125 -2.765625 L 11.484375 -0.15625 C 10.765625 0.1875 9.578125 0.359375 7.921875 0.359375 C 6.453125 0.359375 5.289062 -0.0703125 4.4375 -0.9375 C 3.582031 -1.800781 3.15625 -3.019531 3.15625 -4.59375 L 3.15625 -28 Z M 6.5625 -28 "/></g></g></g><g fill="#000000" fill-opacity="1"><g transform="translate(702.12351, 390.750001)"><g><path d="M 21.234375 -17.59375 L 18.359375 -17.359375 C 18.890625 -16.484375 19.15625 -15.285156 19.15625 -13.765625 C 19.15625 -11.578125 18.53125 -9.992188 17.28125 -9.015625 C 16.03125 -8.046875 13.867188 -7.5625 10.796875 -7.5625 C 9.304688 -7.5625 7.960938 -7.691406 6.765625 -7.953125 C 6.253906 -7.347656 6.101562 -6.675781 6.3125 -5.9375 C 6.53125 -5.207031 7.132812 -4.757812 8.125 -4.59375 L 15.40625 -3.4375 C 17.21875 -3.175781 18.488281 -2.609375 19.21875 -1.734375 C 19.945312 -0.867188 20.3125 0.390625 20.3125 2.046875 C 20.3125 4.304688 19.640625 5.875 18.296875 6.75 C 16.953125 7.632812 14.535156 8.078125 11.046875 8.078125 C 7.523438 8.078125 5.078125 7.644531 3.703125 6.78125 C 2.328125 5.914062 1.640625 4.375 1.640625 2.15625 C 1.640625 1.007812 1.878906 0.09375 2.359375 -0.59375 C 2.835938 -1.289062 3.648438 -1.945312 4.796875 -2.5625 C 3.804688 -3.332031 3.351562 -4.359375 3.4375 -5.640625 C 3.519531 -6.921875 4.023438 -7.921875 4.953125 -8.640625 C 3.304688 -9.515625 2.484375 -11.207031 2.484375 -13.71875 C 2.484375 -15.957031 3.101562 -17.554688 4.34375 -18.515625 C 5.582031 -19.472656 7.75 -19.953125 10.84375 -19.953125 C 12.675781 -19.953125 14.179688 -19.796875 15.359375 -19.484375 L 21.4375 -19.484375 Z M 6.75 -10.96875 C 7.53125 -10.425781 8.878906 -10.15625 10.796875 -10.15625 C 12.722656 -10.15625 14.070312 -10.425781 14.84375 -10.96875 C 15.613281 -11.519531 16 -12.445312 16 -13.75 C 16 -15.0625 15.617188 -15.988281 14.859375 -16.53125 C 14.097656 -17.082031 12.742188 -17.359375 10.796875 -17.359375 C 8.878906 -17.359375 7.53125 -17.082031 6.75 -16.53125 C 5.976562 -15.988281 5.59375 -15.0625 5.59375 -13.75 C 5.59375 -12.445312 5.976562 -11.519531 6.75 -10.96875 Z M 13.640625 -0.921875 L 7 -1.84375 C 5.632812 -0.800781 4.953125 0.4375 4.953125 1.875 C 4.953125 3.238281 5.351562 4.132812 6.15625 4.5625 C 6.957031 4.988281 8.570312 5.203125 11 5.203125 C 13.375 5.203125 14.96875 4.976562 15.78125 4.53125 C 16.59375 4.09375 17 3.207031 17 1.875 C 17 0.914062 16.789062 0.265625 16.375 -0.078125 C 15.96875 -0.421875 15.054688 -0.703125 13.640625 -0.921875 Z M 13.640625 -0.921875 "/></g></g></g><g fill="#000000" fill-opacity="1"><g transform="translate(724.441297, 390.750001)"><g><path d="M 11.359375 -19.953125 C 14.722656 -19.953125 17.085938 -19.175781 18.453125 -17.625 C 19.828125 -16.082031 20.515625 -13.445312 20.515625 -9.71875 C 20.515625 -5.988281 19.828125 -3.347656 18.453125 -1.796875 C 17.085938 -0.253906 14.722656 0.515625 11.359375 0.515625 C 8.023438 0.515625 5.664062 -0.253906 4.28125 -1.796875 C 2.894531 -3.347656 2.203125 -5.988281 2.203125 -9.71875 C 2.203125 -13.445312 2.894531 -16.082031 4.28125 -17.625 C 5.664062 -19.175781 8.023438 -19.953125 11.359375 -19.953125 Z M 15.78125 -15.515625 C 14.96875 -16.554688 13.492188 -17.078125 11.359375 -17.078125 C 9.222656 -17.078125 7.753906 -16.554688 6.953125 -15.515625 C 6.160156 -14.472656 5.765625 -12.539062 5.765625 -9.71875 C 5.765625 -6.894531 6.160156 -4.960938 6.953125 -3.921875 C 7.753906 -2.878906 9.222656 -2.359375 11.359375 -2.359375 C 13.492188 -2.359375 14.96875 -2.878906 15.78125 -3.921875 C 16.59375 -4.960938 17 -6.894531 17 -9.71875 C 17 -12.539062 16.59375 -14.472656 15.78125 -15.515625 Z M 15.78125 -15.515625 "/></g></g></g><g fill="#000000" fill-opacity="1"><g transform="translate(747.159042, 390.750001)"><g><path d="M 15.3125 -19.953125 L 14.921875 -16.765625 L 13.796875 -16.765625 C 12.804688 -16.765625 11.785156 -16.566406 10.734375 -16.171875 C 9.679688 -15.785156 8.273438 -15.15625 6.515625 -14.28125 L 6.515625 0 L 3.125 0 L 3.125 -19.484375 L 5.765625 -19.484375 L 6.125 -16.40625 C 9.132812 -18.769531 11.90625 -19.953125 14.4375 -19.953125 Z M 15.3125 -19.953125 "/></g></g></g><g fill="#000000" fill-opacity="1"><g transform="translate(763.197444, 390.750001)"><g><path d="M 20.40625 -19.484375 L 12.59375 1.078125 C 10.894531 5.660156 8.054688 8.046875 4.078125 8.234375 L 3.765625 6 C 5.285156 5.519531 6.476562 4.859375 7.34375 4.015625 C 8.207031 3.179688 8.90625 2.125 9.4375 0.84375 L 9.765625 0 L 9 0 C 8.363281 0 7.960938 -0.289062 7.796875 -0.875 L 0.71875 -19.484375 L 4.359375 -19.484375 L 9.515625 -4.953125 C 9.890625 -3.859375 10.128906 -3.070312 10.234375 -2.59375 L 10.796875 -2.59375 C 11.015625 -3.132812 11.296875 -3.921875 11.640625 -4.953125 L 16.71875 -19.484375 Z M 20.40625 -19.484375 "/></g></g></g><g fill="#000000" fill-opacity="1"><g transform="translate(784.355338, 390.750001)"><g><path d="M 8 -16.796875 L 8 -5.359375 C 8 -4.421875 8.195312 -3.753906 8.59375 -3.359375 C 9 -2.960938 9.679688 -2.765625 10.640625 -2.765625 L 13.59375 -2.765625 L 14 -0.15625 C 12.769531 0.1875 11.300781 0.359375 9.59375 0.359375 C 7.96875 0.359375 6.726562 -0.09375 5.875 -1 C 5.019531 -1.90625 4.59375 -3.210938 4.59375 -4.921875 L 4.59375 -16.796875 L 1.078125 -16.796875 L 1.078125 -19.28125 L 4.59375 -19.4375 L 4.59375 -25.234375 L 8 -25.234375 L 8 -19.484375 L 14.203125 -19.484375 L 14.203125 -16.796875 Z M 8 -16.796875 "/></g></g></g><g fill="#000000" fill-opacity="1"><g transform="translate(799.59382, 390.750001)"><g><path d="M 5.921875 -19.484375 L 6.125 -16.40625 C 8.863281 -18.769531 11.515625 -19.953125 14.078125 -19.953125 C 16.796875 -19.953125 18.4375 -18.804688 19 -16.515625 C 21.632812 -18.804688 24.25 -19.953125 26.84375 -19.953125 C 28.519531 -19.953125 29.804688 -19.5 30.703125 -18.59375 C 31.597656 -17.6875 32.046875 -16.351562 32.046875 -14.59375 L 32.046875 0 L 28.6875 0 L 28.6875 -13.640625 C 28.65625 -14.835938 28.40625 -15.707031 27.9375 -16.25 C 27.46875 -16.800781 26.703125 -17.078125 25.640625 -17.078125 C 24.703125 -17.078125 23.800781 -16.863281 22.9375 -16.4375 C 22.070312 -16.007812 20.835938 -15.210938 19.234375 -14.046875 L 19.234375 0 L 15.953125 0 L 15.953125 -13.640625 C 15.953125 -14.867188 15.707031 -15.75 15.21875 -16.28125 C 14.726562 -16.8125 13.960938 -17.078125 12.921875 -17.078125 C 11.984375 -17.078125 11.082031 -16.863281 10.21875 -16.4375 C 9.351562 -16.007812 8.117188 -15.222656 6.515625 -14.078125 L 6.515625 0 L 3.125 0 L 3.125 -19.484375 Z M 5.921875 -19.484375 "/></g></g></g><g clip-path="url(#234c54a231)"><g clip-path="url(#293ad2eb14)"><path fill="#ffffff" d="M 75 75 L 300 75 L 300 675.292969 L 75 675.292969 Z M 75 75 " fill-opacity="1" fill-rule="nonzero"/><path stroke-linecap="butt" transform="matrix(0.75, 0, 0, 0.75, 75.000002, 75.000016)" fill="none" stroke-linejoin="miter" d="M 47 -0.0000217933 L 253.00001 -0.0000217933 C 278.958345 -0.0000217933 300.000012 21.041646 300.000012 46.99998 L 300.000012 753.000015 C 300.000012 778.95835 278.958345 800.000017 253.00001 800.000017 L 47 800.000017 C 21.041665 800.000017 -0.00000219333 778.95835 -0.00000219333 753.000015 L -0.00000219333 46.99998 C -0.00000219333 21.041646 21.041665 -0.0000217933 47 -0.0000217933 Z M 47 -0.0000217933 " stroke="#000000" stroke-width="8" stroke-opacity="1" stroke-miterlimit="4"/></g></g><g fill="#000000" fill-opacity="1"><g transform="translate(117.164062, 390.750001)"><g><path d="M 36.6875 -27.59375 L 31.078125 -1.046875 C 30.890625 -0.347656 30.425781 0 29.6875 0 L 25.6875 0 C 24.90625 0 24.445312 -0.359375 24.3125 -1.078125 L 20 -21.84375 C 19.84375 -22.53125 19.628906 -23.566406 19.359375 -24.953125 L 18.515625 -24.953125 L 17.921875 -21.84375 L 13.640625 -1.078125 C 13.453125 -0.359375 12.984375 0 12.234375 0 L 8.203125 0 C 7.859375 0 7.554688 -0.0976562 7.296875 -0.296875 C 7.046875 -0.492188 6.894531 -0.742188 6.84375 -1.046875 L 1.234375 -27.59375 L 4.953125 -27.59375 L 9.28125 -6.078125 C 9.332031 -5.835938 9.519531 -4.707031 9.84375 -2.6875 L 10.765625 -2.6875 C 10.972656 -3.9375 11.1875 -5.066406 11.40625 -6.078125 L 15.6875 -26.4375 C 15.8125 -27.207031 16.265625 -27.59375 17.046875 -27.59375 L 20.875 -27.59375 C 21.59375 -27.59375 22.046875 -27.207031 22.234375 -26.4375 L 26.515625 -6.078125 C 26.785156 -4.773438 26.972656 -3.644531 27.078125 -2.6875 L 28.078125 -2.6875 C 28.316406 -4.28125 28.488281 -5.398438 28.59375 -6.046875 L 32.953125 -27.59375 Z M 36.6875 -27.59375 "/></g></g></g><g fill="#000000" fill-opacity="1"><g transform="translate(155.080293, 390.750001)"><g><path d="M 14.84375 -8.078125 L 5.765625 -8.078125 C 5.953125 -5.835938 6.5 -4.332031 7.40625 -3.5625 C 8.3125 -2.789062 9.816406 -2.40625 11.921875 -2.40625 C 14.128906 -2.40625 16.382812 -2.5625 18.6875 -2.875 L 19.046875 -0.59375 C 17.304688 0.125 14.785156 0.484375 11.484375 0.484375 C 8.117188 0.484375 5.722656 -0.296875 4.296875 -1.859375 C 2.867188 -3.421875 2.15625 -6.066406 2.15625 -9.796875 C 2.15625 -13.554688 2.847656 -16.1875 4.234375 -17.6875 C 5.617188 -19.195312 7.914062 -19.953125 11.125 -19.953125 C 14.03125 -19.953125 16.148438 -19.425781 17.484375 -18.375 C 18.816406 -17.320312 19.484375 -15.726562 19.484375 -13.59375 C 19.535156 -9.914062 17.988281 -8.078125 14.84375 -8.078125 Z M 5.71875 -10.71875 L 13.953125 -10.71875 C 15.367188 -10.71875 16.078125 -11.675781 16.078125 -13.59375 C 16.054688 -14.851562 15.679688 -15.75 14.953125 -16.28125 C 14.234375 -16.8125 13.007812 -17.078125 11.28125 -17.078125 C 9.226562 -17.078125 7.800781 -16.628906 7 -15.734375 C 6.195312 -14.847656 5.769531 -13.175781 5.71875 -10.71875 Z M 5.71875 -10.71875 "/></g></g></g><g fill="#000000" fill-opacity="1"><g transform="translate(176.558163, 390.750001)"><g><path d="M 4.234375 -27.765625 L 5.84375 -27.765625 C 6.507812 -27.765625 6.84375 -27.414062 6.84375 -26.71875 L 6.84375 -24.4375 C 6.84375 -23.75 6.507812 -23.40625 5.84375 -23.40625 L 4.234375 -23.40625 C 3.546875 -23.40625 3.203125 -23.75 3.203125 -24.4375 L 3.203125 -26.71875 C 3.203125 -27.414062 3.546875 -27.765625 4.234375 -27.765625 Z M 6.71875 -19.484375 L 6.71875 0.484375 C 6.71875 2.023438 6.382812 3.460938 5.71875 4.796875 C 5.050781 6.128906 4.128906 7.238281 2.953125 8.125 L 1.078125 6.640625 C 2.566406 4.796875 3.3125 2.742188 3.3125 0.484375 L 3.3125 -19.484375 Z M 6.71875 -19.484375 "/></g></g></g><g fill="#000000" fill-opacity="1"><g transform="translate(186.557174, 390.750001)"><g><path d="M 16.5625 -26.765625 L 8.875 -21.921875 L 7.71875 -23.484375 L 14.59375 -29.359375 Z M 12 -7.875 L 6.40625 -9.15625 C 4.800781 -9.53125 3.664062 -10.128906 3 -10.953125 C 2.332031 -11.785156 2 -13 2 -14.59375 C 2 -16.757812 2.566406 -18.207031 3.703125 -18.9375 C 4.835938 -19.675781 6.800781 -20.015625 9.59375 -19.953125 C 12.71875 -19.898438 15.453125 -19.703125 17.796875 -19.359375 L 17.515625 -16.875 C 13.460938 -17.007812 11 -17.078125 10.125 -17.078125 C 8.144531 -17.109375 6.847656 -16.988281 6.234375 -16.71875 C 5.617188 -16.445312 5.3125 -15.738281 5.3125 -14.59375 C 5.3125 -13.664062 5.519531 -13.023438 5.9375 -12.671875 C 6.351562 -12.328125 7.09375 -12.035156 8.15625 -11.796875 L 13.84375 -10.515625 C 15.4375 -10.117188 16.585938 -9.523438 17.296875 -8.734375 C 18.003906 -7.953125 18.359375 -6.757812 18.359375 -5.15625 C 18.359375 -2.894531 17.726562 -1.394531 16.46875 -0.65625 C 15.21875 0.0703125 13.078125 0.4375 10.046875 0.4375 C 7.316406 0.4375 4.769531 0.25 2.40625 -0.125 L 2.640625 -2.59375 C 4.910156 -2.46875 7.148438 -2.414062 9.359375 -2.4375 C 11.628906 -2.4375 13.148438 -2.609375 13.921875 -2.953125 C 14.691406 -3.304688 15.078125 -4.039062 15.078125 -5.15625 C 15.078125 -6.039062 14.84375 -6.648438 14.375 -6.984375 C 13.914062 -7.316406 13.125 -7.613281 12 -7.875 Z M 12 -7.875 "/></g></g></g><g fill="#000000" fill-opacity="1"><g transform="translate(206.875151, 390.750001)"><g><path d="M 17.71875 -2.796875 L 18.078125 -0.515625 C 16.160156 0.148438 13.9375 0.484375 11.40625 0.484375 C 8.039062 0.484375 5.65625 -0.28125 4.25 -1.8125 C 2.851562 -3.351562 2.15625 -6.003906 2.15625 -9.765625 C 2.15625 -13.523438 2.851562 -16.160156 4.25 -17.671875 C 5.65625 -19.191406 8.050781 -19.953125 11.4375 -19.953125 C 14 -19.953125 16.09375 -19.648438 17.71875 -19.046875 L 17.28125 -16.84375 C 15.519531 -17 13.757812 -17.078125 12 -17.078125 C 9.65625 -17.078125 8.03125 -16.554688 7.125 -15.515625 C 6.21875 -14.472656 5.765625 -12.554688 5.765625 -9.765625 C 5.765625 -6.929688 6.21875 -4.992188 7.125 -3.953125 C 8.03125 -2.921875 9.65625 -2.40625 12 -2.40625 C 14.132812 -2.40625 16.039062 -2.535156 17.71875 -2.796875 Z M 17.71875 -2.796875 "/></g></g></g><g fill="#000000" fill-opacity="1"><g transform="translate(226.433206, 390.750001)"><g><path d="M 4.15625 -27.765625 L 5.765625 -27.765625 C 6.453125 -27.765625 6.796875 -27.414062 6.796875 -26.71875 L 6.796875 -24.4375 C 6.796875 -23.75 6.453125 -23.40625 5.765625 -23.40625 L 4.15625 -23.40625 C 3.46875 -23.40625 3.125 -23.75 3.125 -24.4375 L 3.125 -26.71875 C 3.125 -27.414062 3.46875 -27.765625 4.15625 -27.765625 Z M 6.640625 0 L 3.28125 0 L 3.28125 -19.484375 L 6.640625 -19.484375 Z M 6.640625 0 "/></g></g></g><g fill="#000000" fill-opacity="1"><g transform="translate(236.352223, 390.750001)"><g><path d="M 14.84375 -8.078125 L 5.765625 -8.078125 C 5.953125 -5.835938 6.5 -4.332031 7.40625 -3.5625 C 8.3125 -2.789062 9.816406 -2.40625 11.921875 -2.40625 C 14.128906 -2.40625 16.382812 -2.5625 18.6875 -2.875 L 19.046875 -0.59375 C 17.304688 0.125 14.785156 0.484375 11.484375 0.484375 C 8.117188 0.484375 5.722656 -0.296875 4.296875 -1.859375 C 2.867188 -3.421875 2.15625 -6.066406 2.15625 -9.796875 C 2.15625 -13.554688 2.847656 -16.1875 4.234375 -17.6875 C 5.617188 -19.195312 7.914062 -19.953125 11.125 -19.953125 C 14.03125 -19.953125 16.148438 -19.425781 17.484375 -18.375 C 18.816406 -17.320312 19.484375 -15.726562 19.484375 -13.59375 C 19.535156 -9.914062 17.988281 -8.078125 14.84375 -8.078125 Z M 5.71875 -10.71875 L 13.953125 -10.71875 C 15.367188 -10.71875 16.078125 -11.675781 16.078125 -13.59375 C 16.054688 -14.851562 15.679688 -15.75 14.953125 -16.28125 C 14.234375 -16.8125 13.007812 -17.078125 11.28125 -17.078125 C 9.226562 -17.078125 7.800781 -16.628906 7 -15.734375 C 6.195312 -14.847656 5.769531 -13.175781 5.71875 -10.71875 Z M 5.71875 -10.71875 "/></g></g></g><g clip-path="url(#fc4885b75c)"><g clip-path="url(#9b30ec3f7e)"><path fill="#ffffff" d="M 1200 75 L 1425 75 L 1425 675.292969 L 1200 675.292969 Z M 1200 75 " fill-opacity="1" fill-rule="nonzero"/><path stroke-linecap="butt" transform="matrix(0.75, 0, 0, 0.75, 1199.999947, 75.000016)" fill="none" stroke-linejoin="miter" d="M 47.000073 -0.0000217933 L 253.000083 -0.0000217933 C 278.958418 -0.0000217933 300.000086 21.041646 300.000086 46.99998 L 300.000086 753.000015 C 300.000086 778.95835 278.958418 800.000017 253.000083 800.000017 L 47.000073 800.000017 C 21.041739 800.000017 0.0000709067 778.95835 0.0000709067 753.000015 L 0.0000709067 46.99998 C 0.0000709067 21.041646 21.041739 -0.0000217933 47.000073 -0.0000217933 Z M 47.000073 -0.0000217933 " stroke="#000000" stroke-width="8" stroke-opacity="1" stroke-miterlimit="4"/></g></g><g fill="#000000" fill-opacity="1"><g transform="translate(1242.316351, 390.750001)"><g><path d="M 36.6875 -27.59375 L 31.078125 -1.046875 C 30.890625 -0.347656 30.425781 0 29.6875 0 L 25.6875 0 C 24.90625 0 24.445312 -0.359375 24.3125 -1.078125 L 20 -21.84375 C 19.84375 -22.53125 19.628906 -23.566406 19.359375 -24.953125 L 18.515625 -24.953125 L 17.921875 -21.84375 L 13.640625 -1.078125 C 13.453125 -0.359375 12.984375 0 12.234375 0 L 8.203125 0 C 7.859375 0 7.554688 -0.0976562 7.296875 -0.296875 C 7.046875 -0.492188 6.894531 -0.742188 6.84375 -1.046875 L 1.234375 -27.59375 L 4.953125 -27.59375 L 9.28125 -6.078125 C 9.332031 -5.835938 9.519531 -4.707031 9.84375 -2.6875 L 10.765625 -2.6875 C 10.972656 -3.9375 11.1875 -5.066406 11.40625 -6.078125 L 15.6875 -26.4375 C 15.8125 -27.207031 16.265625 -27.59375 17.046875 -27.59375 L 20.875 -27.59375 C 21.59375 -27.59375 22.046875 -27.207031 22.234375 -26.4375 L 26.515625 -6.078125 C 26.785156 -4.773438 26.972656 -3.644531 27.078125 -2.6875 L 28.078125 -2.6875 C 28.316406 -4.28125 28.488281 -5.398438 28.59375 -6.046875 L 32.953125 -27.59375 Z M 36.6875 -27.59375 "/></g></g></g><g fill="#000000" fill-opacity="1"><g transform="translate(1280.232582, 390.750001)"><g><path d="M 20.40625 -19.484375 L 12.59375 1.078125 C 10.894531 5.660156 8.054688 8.046875 4.078125 8.234375 L 3.765625 6 C 5.285156 5.519531 6.476562 4.859375 7.34375 4.015625 C 8.207031 3.179688 8.90625 2.125 9.4375 0.84375 L 9.765625 0 L 9 0 C 8.363281 0 7.960938 -0.289062 7.796875 -0.875 L 0.71875 -19.484375 L 4.359375 -19.484375 L 9.515625 -4.953125 C 9.890625 -3.859375 10.128906 -3.070312 10.234375 -2.59375 L 10.796875 -2.59375 C 11.015625 -3.132812 11.296875 -3.921875 11.640625 -4.953125 L 16.71875 -19.484375 Z M 20.40625 -19.484375 "/></g></g></g><g fill="#000000" fill-opacity="1"><g transform="translate(1301.390475, 390.750001)"><g><path d="M 4.234375 -27.765625 L 5.84375 -27.765625 C 6.507812 -27.765625 6.84375 -27.414062 6.84375 -26.71875 L 6.84375 -24.4375 C 6.84375 -23.75 6.507812 -23.40625 5.84375 -23.40625 L 4.234375 -23.40625 C 3.546875 -23.40625 3.203125 -23.75 3.203125 -24.4375 L 3.203125 -26.71875 C 3.203125 -27.414062 3.546875 -27.765625 4.234375 -27.765625 Z M 6.71875 -19.484375 L 6.71875 0.484375 C 6.71875 2.023438 6.382812 3.460938 5.71875 4.796875 C 5.050781 6.128906 4.128906 7.238281 2.953125 8.125 L 1.078125 6.640625 C 2.566406 4.796875 3.3125 2.742188 3.3125 0.484375 L 3.3125 -19.484375 Z M 6.71875 -19.484375 "/></g></g></g><g fill="#000000" fill-opacity="1"><g transform="translate(1311.389487, 390.750001)"><g><path d="M 16.5625 -26.765625 L 8.875 -21.921875 L 7.71875 -23.484375 L 14.59375 -29.359375 Z M 12 -7.875 L 6.40625 -9.15625 C 4.800781 -9.53125 3.664062 -10.128906 3 -10.953125 C 2.332031 -11.785156 2 -13 2 -14.59375 C 2 -16.757812 2.566406 -18.207031 3.703125 -18.9375 C 4.835938 -19.675781 6.800781 -20.015625 9.59375 -19.953125 C 12.71875 -19.898438 15.453125 -19.703125 17.796875 -19.359375 L 17.515625 -16.875 C 13.460938 -17.007812 11 -17.078125 10.125 -17.078125 C 8.144531 -17.109375 6.847656 -16.988281 6.234375 -16.71875 C 5.617188 -16.445312 5.3125 -15.738281 5.3125 -14.59375 C 5.3125 -13.664062 5.519531 -13.023438 5.9375 -12.671875 C 6.351562 -12.328125 7.09375 -12.035156 8.15625 -11.796875 L 13.84375 -10.515625 C 15.4375 -10.117188 16.585938 -9.523438 17.296875 -8.734375 C 18.003906 -7.953125 18.359375 -6.757812 18.359375 -5.15625 C 18.359375 -2.894531 17.726562 -1.394531 16.46875 -0.65625 C 15.21875 0.0703125 13.078125 0.4375 10.046875 0.4375 C 7.316406 0.4375 4.769531 0.25 2.40625 -0.125 L 2.640625 -2.59375 C 4.910156 -2.46875 7.148438 -2.414062 9.359375 -2.4375 C 11.628906 -2.4375 13.148438 -2.609375 13.921875 -2.953125 C 14.691406 -3.304688 15.078125 -4.039062 15.078125 -5.15625 C 15.078125 -6.039062 14.84375 -6.648438 14.375 -6.984375 C 13.914062 -7.316406 13.125 -7.613281 12 -7.875 Z M 12 -7.875 "/></g></g></g><g fill="#000000" fill-opacity="1"><g transform="translate(1331.707464, 390.750001)"><g><path d="M 17.71875 -2.796875 L 18.078125 -0.515625 C 16.160156 0.148438 13.9375 0.484375 11.40625 0.484375 C 8.039062 0.484375 5.65625 -0.28125 4.25 -1.8125 C 2.851562 -3.351562 2.15625 -6.003906 2.15625 -9.765625 C 2.15625 -13.523438 2.851562 -16.160156 4.25 -17.671875 C 5.65625 -19.191406 8.050781 -19.953125 11.4375 -19.953125 C 14 -19.953125 16.09375 -19.648438 17.71875 -19.046875 L 17.28125 -16.84375 C 15.519531 -17 13.757812 -17.078125 12 -17.078125 C 9.65625 -17.078125 8.03125 -16.554688 7.125 -15.515625 C 6.21875 -14.472656 5.765625 -12.554688 5.765625 -9.765625 C 5.765625 -6.929688 6.21875 -4.992188 7.125 -3.953125 C 8.03125 -2.921875 9.65625 -2.40625 12 -2.40625 C 14.132812 -2.40625 16.039062 -2.535156 17.71875 -2.796875 Z M 17.71875 -2.796875 "/></g></g></g><g fill="#000000" fill-opacity="1"><g transform="translate(1351.265519, 390.750001)"><g><path d="M 4.15625 -27.765625 L 5.765625 -27.765625 C 6.453125 -27.765625 6.796875 -27.414062 6.796875 -26.71875 L 6.796875 -24.4375 C 6.796875 -23.75 6.453125 -23.40625 5.765625 -23.40625 L 4.15625 -23.40625 C 3.46875 -23.40625 3.125 -23.75 3.125 -24.4375 L 3.125 -26.71875 C 3.125 -27.414062 3.46875 -27.765625 4.15625 -27.765625 Z M 6.640625 0 L 3.28125 0 L 3.28125 -19.484375 L 6.640625 -19.484375 Z M 6.640625 0 "/></g></g></g><g fill="#000000" fill-opacity="1"><g transform="translate(1361.184536, 390.750001)"><g><path d="M 14.84375 -8.078125 L 5.765625 -8.078125 C 5.953125 -5.835938 6.5 -4.332031 7.40625 -3.5625 C 8.3125 -2.789062 9.816406 -2.40625 11.921875 -2.40625 C 14.128906 -2.40625 16.382812 -2.5625 18.6875 -2.875 L 19.046875 -0.59375 C 17.304688 0.125 14.785156 0.484375 11.484375 0.484375 C 8.117188 0.484375 5.722656 -0.296875 4.296875 -1.859375 C 2.867188 -3.421875 2.15625 -6.066406 2.15625 -9.796875 C 2.15625 -13.554688 2.847656 -16.1875 4.234375 -17.6875 C 5.617188 -19.195312 7.914062 -19.953125 11.125 -19.953125 C 14.03125 -19.953125 16.148438 -19.425781 17.484375 -18.375 C 18.816406 -17.320312 19.484375 -15.726562 19.484375 -13.59375 C 19.535156 -9.914062 17.988281 -8.078125 14.84375 -8.078125 Z M 5.71875 -10.71875 L 13.953125 -10.71875 C 15.367188 -10.71875 16.078125 -11.675781 16.078125 -13.59375 C 16.054688 -14.851562 15.679688 -15.75 14.953125 -16.28125 C 14.234375 -16.8125 13.007812 -17.078125 11.28125 -17.078125 C 9.226562 -17.078125 7.800781 -16.628906 7 -15.734375 C 6.195312 -14.847656 5.769531 -13.175781 5.71875 -10.71875 Z M 5.71875 -10.71875 "/></g></g></g><path stroke-linecap="butt" transform="matrix(0.75, 0, 0, 0.75, 299.999991, 373.500002)" fill="none" stroke-linejoin="miter" d="M 0.0000124267 1.999998 L 239.000024 1.999998 " stroke="#000000" stroke-width="4" stroke-opacity="1" stroke-miterlimit="4"/><path stroke-linecap="round" transform="matrix(0.75, 0, 0, 0.75, 299.999991, 373.500002)" fill-opacity="1" fill="#000000" fill-rule="nonzero" stroke-linejoin="round" d="M 240.000024 -4.000003 L 248.000025 1.999998 L 240.000024 7.999998 Z M 240.000024 -4.000003 " stroke="#000000" stroke-width="4" stroke-opacity="1" stroke-miterlimit="4"/><path stroke-linecap="butt" transform="matrix(0.75, 0, 0, 0.75, 1012.499956, 373.500002)" fill="none" stroke-linejoin="miter" d="M 0.0000587233 1.999998 L 239.00007 1.999998 " stroke="#000000" stroke-width="4" stroke-opacity="1" stroke-miterlimit="4"/><path stroke-linecap="round" transform="matrix(0.75, 0, 0, 0.75, 1012.499956, 373.500002)" fill-opacity="1" fill="#000000" fill-rule="nonzero" stroke-linejoin="round" d="M 240.00007 -4.000003 L 248.000071 1.999998 L 240.00007 7.999998 Z M 240.00007 -4.000003 " stroke="#000000" stroke-width="4" stroke-opacity="1" stroke-miterlimit="4"/></svg>