<svg xmlns="http://www.w3.org/2000/svg" xmlns:xlink="http://www.w3.org/1999/xlink" width="1000" zoomAndPan="magnify" viewBox="0 0 750 525.000007" height="700" preserveAspectRatio="xMidYMid meet" version="1.0"><defs><g/><clipPath id="24921bed27"><path d="M 316.089844 228.640625 L 429 228.640625 L 429 296.242188 L 316.089844 296.242188 Z M 316.089844 228.640625 " clip-rule="nonzero"/></clipPath><clipPath id="90c4a61288"><path d="M 340.71875 228.640625 L 404.273438 228.640625 C 410.804688 228.640625 417.066406 231.234375 421.6875 235.851562 C 426.304688 240.472656 428.898438 246.734375 428.898438 253.269531 L 428.898438 271.613281 C 428.898438 278.144531 426.304688 284.410156 421.6875 289.027344 C 417.066406 293.644531 410.804688 296.242188 404.273438 296.242188 L 340.71875 296.242188 C 334.1875 296.242188 327.921875 293.644531 323.304688 289.027344 C 318.683594 284.410156 316.089844 278.144531 316.089844 271.613281 L 316.089844 253.269531 C 316.089844 246.734375 318.683594 240.472656 323.304688 235.851562 C 327.921875 231.234375 334.1875 228.640625 340.71875 228.640625 Z M 340.71875 228.640625 " clip-rule="nonzero"/></clipPath><clipPath id="7bc129b4e8"><path d="M 165.398438 346.238281 L 278.417969 346.238281 L 278.417969 413.839844 L 165.398438 413.839844 Z M 165.398438 346.238281 " clip-rule="nonzero"/></clipPath><clipPath id="c9bbfcfd45"><path d="M 190.027344 346.238281 L 253.582031 346.238281 C 260.113281 346.238281 266.378906 348.832031 270.996094 353.449219 C 275.613281 358.070312 278.210938 364.332031 278.210938 370.867188 L 278.210938 389.210938 C 278.210938 395.742188 275.613281 402.007812 270.996094 406.625 C 266.378906 411.242188 260.113281 413.839844 253.582031 413.839844 L 190.027344 413.839844 C 183.496094 413.839844 177.230469 411.242188 172.613281 406.625 C 167.992188 402.007812 165.398438 395.742188 165.398438 389.210938 L 165.398438 370.867188 C 165.398438 364.332031 167.992188 358.070312 172.613281 353.449219 C 177.230469 348.832031 183.496094 346.238281 190.027344 346.238281 Z M 190.027344 346.238281 " clip-rule="nonzero"/></clipPath><clipPath id="0e9b79f5ee"><path d="M 316.089844 346.238281 L 429 346.238281 L 429 413.839844 L 316.089844 413.839844 Z M 316.089844 346.238281 " clip-rule="nonzero"/></clipPath><clipPath id="e6991a0468"><path d="M 340.71875 346.238281 L 404.273438 346.238281 C 410.804688 346.238281 417.066406 348.832031 421.6875 353.449219 C 426.304688 358.070312 428.898438 364.332031 428.898438 370.867188 L 428.898438 389.210938 C 428.898438 395.742188 426.304688 402.007812 421.6875 406.625 C 417.066406 411.242188 410.804688 413.839844 404.273438 413.839844 L 340.71875 413.839844 C 334.1875 413.839844 327.921875 411.242188 323.304688 406.625 C 318.683594 402.007812 316.089844 395.742188 316.089844 389.210938 L 316.089844 370.867188 C 316.089844 364.332031 318.683594 358.070312 323.304688 353.449219 C 327.921875 348.832031 334.1875 346.238281 340.71875 346.238281 Z M 340.71875 346.238281 " clip-rule="nonzero"/></clipPath><clipPath id="3e8a6ef59d"><path d="M 466.773438 346.238281 L 579.792969 346.238281 L 579.792969 413.839844 L 466.773438 413.839844 Z M 466.773438 346.238281 " clip-rule="nonzero"/></clipPath><clipPath id="200a069996"><path d="M 491.402344 346.238281 L 554.957031 346.238281 C 561.488281 346.238281 567.753906 348.832031 572.371094 353.449219 C 576.988281 358.070312 579.585938 364.332031 579.585938 370.867188 L 579.585938 389.210938 C 579.585938 395.742188 576.988281 402.007812 572.371094 406.625 C 567.753906 411.242188 561.488281 413.839844 554.957031 413.839844 L 491.402344 413.839844 C 484.871094 413.839844 478.605469 411.242188 473.988281 406.625 C 469.367188 402.007812 466.773438 395.742188 466.773438 389.210938 L 466.773438 370.867188 C 466.773438 364.332031 469.367188 358.070312 473.988281 353.449219 C 478.605469 348.832031 484.871094 346.238281 491.402344 346.238281 Z M 491.402344 346.238281 " clip-rule="nonzero"/></clipPath><clipPath id="945d86ce4c"><path d="M 316.089844 110.164062 L 429 110.164062 L 429 177.765625 L 316.089844 177.765625 Z M 316.089844 110.164062 " clip-rule="nonzero"/></clipPath><clipPath id="0b170af517"><path d="M 340.71875 110.164062 L 404.273438 110.164062 C 410.804688 110.164062 417.066406 112.757812 421.6875 117.375 C 426.304688 121.996094 428.898438 128.257812 428.898438 134.792969 L 428.898438 153.136719 C 428.898438 159.667969 426.304688 165.933594 421.6875 170.550781 C 417.066406 175.167969 410.804688 177.765625 404.273438 177.765625 L 340.71875 177.765625 C 334.1875 177.765625 327.921875 175.167969 323.304688 170.550781 C 318.683594 165.933594 316.089844 159.667969 316.089844 153.136719 L 316.089844 134.792969 C 316.089844 128.257812 318.683594 121.996094 323.304688 117.375 C 327.921875 112.757812 334.1875 110.164062 340.71875 110.164062 Z M 340.71875 110.164062 " clip-rule="nonzero"/></clipPath></defs><g clip-path="url(#24921bed27)"><g clip-path="url(#90c4a61288)"><path fill="#ffde59" d="M 316.089844 228.640625 L 428.847656 228.640625 L 428.847656 296.242188 L 316.089844 296.242188 Z M 316.089844 228.640625 " fill-opacity="1" fill-rule="nonzero"/></g></g><g fill="#000000" fill-opacity="1"><g transform="translate(342.289547, 267.565837)"><g><path d="M 5.078125 -8.171875 C 4.085938 -8.171875 3.304688 -7.84375 2.734375 -7.1875 C 2.171875 -6.53125 1.890625 -5.628906 1.890625 -4.484375 C 1.890625 -3.304688 2.160156 -2.394531 2.703125 -1.75 C 3.253906 -1.113281 4.039062 -0.796875 5.0625 -0.796875 C 5.6875 -0.796875 6.398438 -0.910156 7.203125 -1.140625 L 7.203125 -0.234375 C 6.578125 0.00390625 5.8125 0.125 4.90625 0.125 C 3.582031 0.125 2.5625 -0.273438 1.84375 -1.078125 C 1.125 -1.878906 0.765625 -3.019531 0.765625 -4.5 C 0.765625 -5.414062 0.9375 -6.222656 1.28125 -6.921875 C 1.625 -7.617188 2.125 -8.15625 2.78125 -8.53125 C 3.4375 -8.90625 4.203125 -9.09375 5.078125 -9.09375 C 6.023438 -9.09375 6.847656 -8.921875 7.546875 -8.578125 L 7.109375 -7.6875 C 6.429688 -8.007812 5.753906 -8.171875 5.078125 -8.171875 Z M 5.078125 -8.171875 "/></g></g></g><g fill="#000000" fill-opacity="1"><g transform="translate(350.214408, 267.565837)"><g><path d="M 5.6875 0 L 5.6875 -4.34375 C 5.6875 -4.894531 5.5625 -5.304688 5.3125 -5.578125 C 5.0625 -5.847656 4.671875 -5.984375 4.140625 -5.984375 C 3.429688 -5.984375 2.910156 -5.789062 2.578125 -5.40625 C 2.253906 -5.019531 2.09375 -4.390625 2.09375 -3.515625 L 2.09375 0 L 1.078125 0 L 1.078125 -9.546875 L 2.09375 -9.546875 L 2.09375 -6.65625 C 2.09375 -6.3125 2.078125 -6.023438 2.046875 -5.796875 L 2.109375 -5.796875 C 2.304688 -6.117188 2.585938 -6.367188 2.953125 -6.546875 C 3.328125 -6.734375 3.753906 -6.828125 4.234375 -6.828125 C 5.054688 -6.828125 5.671875 -6.628906 6.078125 -6.234375 C 6.492188 -5.847656 6.703125 -5.234375 6.703125 -4.390625 L 6.703125 0 Z M 5.6875 0 "/></g></g></g><g fill="#000000" fill-opacity="1"><g transform="translate(357.924587, 267.565837)"><g><path d="M 3.921875 0.125 C 2.921875 0.125 2.132812 -0.175781 1.5625 -0.78125 C 0.988281 -1.382812 0.703125 -2.226562 0.703125 -3.3125 C 0.703125 -4.394531 0.96875 -5.253906 1.5 -5.890625 C 2.039062 -6.523438 2.757812 -6.84375 3.65625 -6.84375 C 4.5 -6.84375 5.164062 -6.566406 5.65625 -6.015625 C 6.144531 -5.460938 6.390625 -4.734375 6.390625 -3.828125 L 6.390625 -3.171875 L 1.765625 -3.171875 C 1.785156 -2.390625 1.984375 -1.789062 2.359375 -1.375 C 2.734375 -0.96875 3.265625 -0.765625 3.953125 -0.765625 C 4.679688 -0.765625 5.398438 -0.914062 6.109375 -1.21875 L 6.109375 -0.3125 C 5.742188 -0.15625 5.398438 -0.046875 5.078125 0.015625 C 4.753906 0.0859375 4.367188 0.125 3.921875 0.125 Z M 3.640625 -6 C 3.097656 -6 2.664062 -5.820312 2.34375 -5.46875 C 2.03125 -5.113281 1.84375 -4.625 1.78125 -4 L 5.296875 -4 C 5.296875 -4.644531 5.148438 -5.140625 4.859375 -5.484375 C 4.578125 -5.828125 4.171875 -6 3.640625 -6 Z M 3.640625 -6 "/></g></g></g><g fill="#000000" fill-opacity="1"><g transform="translate(364.972316, 267.565837)"><g><path d="M 3.765625 0.125 C 2.796875 0.125 2.039062 -0.171875 1.5 -0.765625 C 0.96875 -1.367188 0.703125 -2.21875 0.703125 -3.3125 C 0.703125 -4.4375 0.972656 -5.304688 1.515625 -5.921875 C 2.054688 -6.535156 2.828125 -6.84375 3.828125 -6.84375 C 4.148438 -6.84375 4.472656 -6.804688 4.796875 -6.734375 C 5.117188 -6.671875 5.375 -6.59375 5.5625 -6.5 L 5.25 -5.625 C 5.019531 -5.71875 4.769531 -5.789062 4.5 -5.84375 C 4.238281 -5.90625 4.007812 -5.9375 3.8125 -5.9375 C 2.445312 -5.9375 1.765625 -5.066406 1.765625 -3.328125 C 1.765625 -2.503906 1.929688 -1.867188 2.265625 -1.421875 C 2.597656 -0.984375 3.085938 -0.765625 3.734375 -0.765625 C 4.296875 -0.765625 4.875 -0.882812 5.46875 -1.125 L 5.46875 -0.234375 C 5.019531 0.00390625 4.453125 0.125 3.765625 0.125 Z M 3.765625 0.125 "/></g></g></g><g fill="#000000" fill-opacity="1"><g transform="translate(370.952765, 267.565837)"><g><path d="M 2.078125 -3.4375 C 2.253906 -3.6875 2.523438 -4.015625 2.890625 -4.421875 L 5.0625 -6.71875 L 6.265625 -6.71875 L 3.546875 -3.859375 L 6.453125 0 L 5.21875 0 L 2.859375 -3.171875 L 2.078125 -2.515625 L 2.078125 0 L 1.078125 0 L 1.078125 -9.546875 L 2.078125 -9.546875 L 2.078125 -4.484375 C 2.078125 -4.253906 2.0625 -3.90625 2.03125 -3.4375 Z M 2.078125 -3.4375 "/></g></g></g><g fill="#000000" fill-opacity="1"><g transform="translate(377.546593, 267.565837)"><g/></g></g><g fill="#000000" fill-opacity="1"><g transform="translate(380.809771, 267.565837)"><g><path d="M 6.875 0 L 5.75 -2.859375 L 2.15625 -2.859375 L 1.0625 0 L 0 0 L 3.546875 -9 L 4.421875 -9 L 7.953125 0 Z M 5.421875 -3.796875 L 4.390625 -6.5625 C 4.253906 -6.914062 4.113281 -7.347656 3.96875 -7.859375 C 3.875 -7.472656 3.742188 -7.039062 3.578125 -6.5625 L 2.53125 -3.796875 Z M 5.421875 -3.796875 "/></g></g></g><g fill="#000000" fill-opacity="1"><g transform="translate(388.759168, 267.565837)"><g><path d="M 6.578125 -6.71875 L 6.578125 -6.078125 L 5.34375 -5.9375 C 5.457031 -5.789062 5.554688 -5.601562 5.640625 -5.375 C 5.734375 -5.144531 5.78125 -4.882812 5.78125 -4.59375 C 5.78125 -3.925781 5.550781 -3.394531 5.09375 -3 C 4.644531 -2.613281 4.03125 -2.421875 3.25 -2.421875 C 3.050781 -2.421875 2.863281 -2.4375 2.6875 -2.46875 C 2.25 -2.238281 2.03125 -1.953125 2.03125 -1.609375 C 2.03125 -1.421875 2.101562 -1.28125 2.25 -1.1875 C 2.40625 -1.101562 2.671875 -1.0625 3.046875 -1.0625 L 4.234375 -1.0625 C 4.960938 -1.0625 5.519531 -0.90625 5.90625 -0.59375 C 6.300781 -0.289062 6.5 0.148438 6.5 0.734375 C 6.5 1.472656 6.195312 2.035156 5.59375 2.421875 C 5 2.816406 4.128906 3.015625 2.984375 3.015625 C 2.109375 3.015625 1.429688 2.847656 0.953125 2.515625 C 0.472656 2.191406 0.234375 1.734375 0.234375 1.140625 C 0.234375 0.734375 0.363281 0.378906 0.625 0.078125 C 0.894531 -0.222656 1.265625 -0.425781 1.734375 -0.53125 C 1.566406 -0.601562 1.421875 -0.722656 1.296875 -0.890625 C 1.179688 -1.054688 1.125 -1.242188 1.125 -1.453125 C 1.125 -1.703125 1.1875 -1.914062 1.3125 -2.09375 C 1.445312 -2.28125 1.65625 -2.460938 1.9375 -2.640625 C 1.59375 -2.785156 1.3125 -3.03125 1.09375 -3.375 C 0.875 -3.71875 0.765625 -4.109375 0.765625 -4.546875 C 0.765625 -5.285156 0.984375 -5.851562 1.421875 -6.25 C 1.867188 -6.644531 2.5 -6.84375 3.3125 -6.84375 C 3.65625 -6.84375 3.96875 -6.800781 4.25 -6.71875 Z M 1.21875 1.125 C 1.21875 1.488281 1.367188 1.765625 1.671875 1.953125 C 1.984375 2.140625 2.425781 2.234375 3 2.234375 C 3.851562 2.234375 4.484375 2.101562 4.890625 1.84375 C 5.304688 1.59375 5.515625 1.25 5.515625 0.8125 C 5.515625 0.445312 5.398438 0.191406 5.171875 0.046875 C 4.953125 -0.0859375 4.53125 -0.15625 3.90625 -0.15625 L 2.6875 -0.15625 C 2.226562 -0.15625 1.867188 -0.046875 1.609375 0.171875 C 1.347656 0.398438 1.21875 0.71875 1.21875 1.125 Z M 1.765625 -4.5625 C 1.765625 -4.09375 1.894531 -3.738281 2.15625 -3.5 C 2.425781 -3.257812 2.800781 -3.140625 3.28125 -3.140625 C 4.269531 -3.140625 4.765625 -3.625 4.765625 -4.59375 C 4.765625 -5.601562 4.265625 -6.109375 3.265625 -6.109375 C 2.785156 -6.109375 2.414062 -5.976562 2.15625 -5.71875 C 1.894531 -5.457031 1.765625 -5.070312 1.765625 -4.5625 Z M 1.765625 -4.5625 "/></g></g></g><g fill="#000000" fill-opacity="1"><g transform="translate(395.641285, 267.565837)"><g><path d="M 3.921875 0.125 C 2.921875 0.125 2.132812 -0.175781 1.5625 -0.78125 C 0.988281 -1.382812 0.703125 -2.226562 0.703125 -3.3125 C 0.703125 -4.394531 0.96875 -5.253906 1.5 -5.890625 C 2.039062 -6.523438 2.757812 -6.84375 3.65625 -6.84375 C 4.5 -6.84375 5.164062 -6.566406 5.65625 -6.015625 C 6.144531 -5.460938 6.390625 -4.734375 6.390625 -3.828125 L 6.390625 -3.171875 L 1.765625 -3.171875 C 1.785156 -2.390625 1.984375 -1.789062 2.359375 -1.375 C 2.734375 -0.96875 3.265625 -0.765625 3.953125 -0.765625 C 4.679688 -0.765625 5.398438 -0.914062 6.109375 -1.21875 L 6.109375 -0.3125 C 5.742188 -0.15625 5.398438 -0.046875 5.078125 0.015625 C 4.753906 0.0859375 4.367188 0.125 3.921875 0.125 Z M 3.640625 -6 C 3.097656 -6 2.664062 -5.820312 2.34375 -5.46875 C 2.03125 -5.113281 1.84375 -4.625 1.78125 -4 L 5.296875 -4 C 5.296875 -4.644531 5.148438 -5.140625 4.859375 -5.484375 C 4.578125 -5.828125 4.171875 -6 3.640625 -6 Z M 3.640625 -6 "/></g></g></g><path stroke-linecap="butt" transform="matrix(-0.710489, 0.235729, -0.235729, -0.710489, 372.836955, 297.308572)" fill="none" stroke-linejoin="miter" d="M -0.00155792 1.500398 L 210.593314 1.498574 " stroke="#000000" stroke-width="3" stroke-opacity="1" stroke-miterlimit="4"/><path stroke-linecap="round" transform="matrix(-0.710489, 0.235729, -0.235729, -0.710489, 372.836955, 297.308572)" fill="none" stroke-linejoin="round" d="M 204.592011 -2.999634 L 210.593314 1.498574 L 204.59137 6.000332 " stroke="#000000" stroke-width="3" stroke-opacity="1" stroke-miterlimit="4"/><path stroke-linecap="butt" transform="matrix(0, 0.748574, -0.748574, 0, 373.614595, 296.243932)" fill="none" stroke-linejoin="miter" d="M -0.00233021 1.499394 L 65.288465 1.499394 " stroke="#000000" stroke-width="3" stroke-opacity="1" stroke-miterlimit="4"/><path stroke-linecap="round" transform="matrix(0, 0.748574, -0.748574, 0, 373.614595, 296.243932)" fill="none" stroke-linejoin="round" d="M 59.287473 -2.998741 L 65.288465 1.499394 L 59.287473 5.997529 " stroke="#000000" stroke-width="3" stroke-opacity="1" stroke-miterlimit="4"/><path stroke-linecap="butt" transform="matrix(0.710487, 0.235737, -0.235737, 0.710487, 372.848096, 295.176247)" fill="none" stroke-linejoin="miter" d="M 0.00212078 1.499592 L 210.587088 1.502266 " stroke="#000000" stroke-width="3" stroke-opacity="1" stroke-miterlimit="4"/><path stroke-linecap="round" transform="matrix(0.710487, 0.235737, -0.235737, 0.710487, 372.848096, 295.176247)" fill="none" stroke-linejoin="round" d="M 204.585092 -2.999423 L 210.587088 1.502266 L 204.585837 6.000543 " stroke="#000000" stroke-width="3" stroke-opacity="1" stroke-miterlimit="4"/><g clip-path="url(#7bc129b4e8)"><g clip-path="url(#c9bbfcfd45)"><path fill="#00bf63" d="M 165.398438 346.238281 L 278.15625 346.238281 L 278.15625 413.839844 L 165.398438 413.839844 Z M 165.398438 346.238281 " fill-opacity="1" fill-rule="nonzero"/></g></g><g fill="#000000" fill-opacity="1"><g transform="translate(196.675592, 385.163397)"><g><path d="M 6.296875 -2.390625 C 6.296875 -1.597656 6.007812 -0.976562 5.4375 -0.53125 C 4.863281 -0.09375 4.085938 0.125 3.109375 0.125 C 2.046875 0.125 1.226562 -0.0078125 0.65625 -0.28125 L 0.65625 -1.296875 C 1.019531 -1.140625 1.414062 -1.015625 1.84375 -0.921875 C 2.28125 -0.835938 2.710938 -0.796875 3.140625 -0.796875 C 3.835938 -0.796875 4.359375 -0.925781 4.703125 -1.1875 C 5.054688 -1.445312 5.234375 -1.8125 5.234375 -2.28125 C 5.234375 -2.59375 5.171875 -2.847656 5.046875 -3.046875 C 4.921875 -3.242188 4.710938 -3.425781 4.421875 -3.59375 C 4.128906 -3.769531 3.6875 -3.960938 3.09375 -4.171875 C 2.257812 -4.472656 1.660156 -4.828125 1.296875 -5.234375 C 0.941406 -5.640625 0.765625 -6.171875 0.765625 -6.828125 C 0.765625 -7.523438 1.023438 -8.078125 1.546875 -8.484375 C 2.066406 -8.890625 2.753906 -9.09375 3.609375 -9.09375 C 4.492188 -9.09375 5.3125 -8.929688 6.0625 -8.609375 L 5.734375 -7.703125 C 4.992188 -8.015625 4.273438 -8.171875 3.578125 -8.171875 C 3.023438 -8.171875 2.59375 -8.050781 2.28125 -7.8125 C 1.976562 -7.570312 1.828125 -7.242188 1.828125 -6.828125 C 1.828125 -6.515625 1.882812 -6.257812 2 -6.0625 C 2.113281 -5.863281 2.304688 -5.679688 2.578125 -5.515625 C 2.847656 -5.347656 3.265625 -5.164062 3.828125 -4.96875 C 4.765625 -4.625 5.410156 -4.257812 5.765625 -3.875 C 6.117188 -3.5 6.296875 -3.003906 6.296875 -2.390625 Z M 6.296875 -2.390625 "/></g></g></g><g fill="#000000" fill-opacity="1"><g transform="translate(203.569977, 385.163397)"><g><path d="M 2.03125 -6.71875 L 2.03125 -2.359375 C 2.03125 -1.816406 2.15625 -1.410156 2.40625 -1.140625 C 2.65625 -0.867188 3.046875 -0.734375 3.578125 -0.734375 C 4.285156 -0.734375 4.800781 -0.925781 5.125 -1.3125 C 5.445312 -1.695312 5.609375 -2.320312 5.609375 -3.1875 L 5.609375 -6.71875 L 6.625 -6.71875 L 6.625 0 L 5.796875 0 L 5.640625 -0.90625 L 5.59375 -0.90625 C 5.382812 -0.570312 5.09375 -0.316406 4.71875 -0.140625 C 4.351562 0.0351562 3.929688 0.125 3.453125 0.125 C 2.640625 0.125 2.023438 -0.0664062 1.609375 -0.453125 C 1.203125 -0.847656 1 -1.472656 1 -2.328125 L 1 -6.71875 Z M 2.03125 -6.71875 "/></g></g></g><g fill="#000000" fill-opacity="1"><g transform="translate(211.280155, 385.163397)"><g><path d="M 4.140625 -6.84375 C 4.441406 -6.84375 4.710938 -6.816406 4.953125 -6.765625 L 4.8125 -5.828125 C 4.53125 -5.890625 4.285156 -5.921875 4.078125 -5.921875 C 3.523438 -5.921875 3.054688 -5.695312 2.671875 -5.25 C 2.285156 -4.8125 2.09375 -4.265625 2.09375 -3.609375 L 2.09375 0 L 1.078125 0 L 1.078125 -6.71875 L 1.921875 -6.71875 L 2.03125 -5.484375 L 2.078125 -5.484375 C 2.328125 -5.921875 2.628906 -6.253906 2.984375 -6.484375 C 3.335938 -6.722656 3.722656 -6.84375 4.140625 -6.84375 Z M 4.140625 -6.84375 "/></g></g></g><g fill="#000000" fill-opacity="1"><g transform="translate(216.408007, 385.163397)"><g><path d="M 2.546875 0 L 0 -6.71875 L 1.09375 -6.71875 L 2.546875 -2.734375 C 2.867188 -1.804688 3.054688 -1.203125 3.109375 -0.921875 L 3.171875 -0.921875 C 3.210938 -1.140625 3.351562 -1.585938 3.59375 -2.265625 C 3.832031 -2.941406 4.367188 -4.425781 5.203125 -6.71875 L 6.296875 -6.71875 L 3.734375 0 Z M 2.546875 0 "/></g></g></g><g fill="#000000" fill-opacity="1"><g transform="translate(222.701279, 385.163397)"><g><path d="M 2.09375 0 L 1.078125 0 L 1.078125 -6.71875 L 2.09375 -6.71875 Z M 1 -8.546875 C 1 -8.773438 1.054688 -8.941406 1.171875 -9.046875 C 1.285156 -9.160156 1.425781 -9.21875 1.59375 -9.21875 C 1.757812 -9.21875 1.898438 -9.160156 2.015625 -9.046875 C 2.140625 -8.941406 2.203125 -8.773438 2.203125 -8.546875 C 2.203125 -8.316406 2.140625 -8.144531 2.015625 -8.03125 C 1.898438 -7.914062 1.757812 -7.859375 1.59375 -7.859375 C 1.425781 -7.859375 1.285156 -7.914062 1.171875 -8.03125 C 1.054688 -8.144531 1 -8.316406 1 -8.546875 Z M 1 -8.546875 "/></g></g></g><g fill="#000000" fill-opacity="1"><g transform="translate(225.878584, 385.163397)"><g><path d="M 2.546875 0 L 0 -6.71875 L 1.09375 -6.71875 L 2.546875 -2.734375 C 2.867188 -1.804688 3.054688 -1.203125 3.109375 -0.921875 L 3.171875 -0.921875 C 3.210938 -1.140625 3.351562 -1.585938 3.59375 -2.265625 C 3.832031 -2.941406 4.367188 -4.425781 5.203125 -6.71875 L 6.296875 -6.71875 L 3.734375 0 Z M 2.546875 0 "/></g></g></g><g fill="#000000" fill-opacity="1"><g transform="translate(232.171857, 385.163397)"><g><path d="M 3.921875 0.125 C 2.921875 0.125 2.132812 -0.175781 1.5625 -0.78125 C 0.988281 -1.382812 0.703125 -2.226562 0.703125 -3.3125 C 0.703125 -4.394531 0.96875 -5.253906 1.5 -5.890625 C 2.039062 -6.523438 2.757812 -6.84375 3.65625 -6.84375 C 4.5 -6.84375 5.164062 -6.566406 5.65625 -6.015625 C 6.144531 -5.460938 6.390625 -4.734375 6.390625 -3.828125 L 6.390625 -3.171875 L 1.765625 -3.171875 C 1.785156 -2.390625 1.984375 -1.789062 2.359375 -1.375 C 2.734375 -0.96875 3.265625 -0.765625 3.953125 -0.765625 C 4.679688 -0.765625 5.398438 -0.914062 6.109375 -1.21875 L 6.109375 -0.3125 C 5.742188 -0.15625 5.398438 -0.046875 5.078125 0.015625 C 4.753906 0.0859375 4.367188 0.125 3.921875 0.125 Z M 3.640625 -6 C 3.097656 -6 2.664062 -5.820312 2.34375 -5.46875 C 2.03125 -5.113281 1.84375 -4.625 1.78125 -4 L 5.296875 -4 C 5.296875 -4.644531 5.148438 -5.140625 4.859375 -5.484375 C 4.578125 -5.828125 4.171875 -6 3.640625 -6 Z M 3.640625 -6 "/></g></g></g><g fill="#000000" fill-opacity="1"><g transform="translate(239.219586, 385.163397)"><g><path d="M 5.65625 -0.90625 L 5.59375 -0.90625 C 5.125 -0.21875 4.421875 0.125 3.484375 0.125 C 2.609375 0.125 1.925781 -0.175781 1.4375 -0.78125 C 0.945312 -1.382812 0.703125 -2.238281 0.703125 -3.34375 C 0.703125 -4.445312 0.945312 -5.304688 1.4375 -5.921875 C 1.925781 -6.535156 2.609375 -6.84375 3.484375 -6.84375 C 4.398438 -6.84375 5.101562 -6.515625 5.59375 -5.859375 L 5.671875 -5.859375 L 5.625 -6.34375 L 5.59375 -6.8125 L 5.59375 -9.546875 L 6.625 -9.546875 L 6.625 0 L 5.796875 0 Z M 3.625 -0.734375 C 4.3125 -0.734375 4.8125 -0.921875 5.125 -1.296875 C 5.4375 -1.671875 5.59375 -2.28125 5.59375 -3.125 L 5.59375 -3.34375 C 5.59375 -4.289062 5.4375 -4.96875 5.125 -5.375 C 4.8125 -5.789062 4.304688 -6 3.609375 -6 C 3.015625 -6 2.554688 -5.765625 2.234375 -5.296875 C 1.921875 -4.828125 1.765625 -4.171875 1.765625 -3.328125 C 1.765625 -2.472656 1.921875 -1.828125 2.234375 -1.390625 C 2.546875 -0.953125 3.007812 -0.734375 3.625 -0.734375 Z M 3.625 -0.734375 "/></g></g></g><g clip-path="url(#0e9b79f5ee)"><g clip-path="url(#e6991a0468)"><path fill="#00bf63" d="M 316.089844 346.238281 L 428.847656 346.238281 L 428.847656 413.839844 L 316.089844 413.839844 Z M 316.089844 346.238281 " fill-opacity="1" fill-rule="nonzero"/></g></g><g fill="#000000" fill-opacity="1"><g transform="translate(347.365815, 385.163397)"><g><path d="M 6.296875 -2.390625 C 6.296875 -1.597656 6.007812 -0.976562 5.4375 -0.53125 C 4.863281 -0.09375 4.085938 0.125 3.109375 0.125 C 2.046875 0.125 1.226562 -0.0078125 0.65625 -0.28125 L 0.65625 -1.296875 C 1.019531 -1.140625 1.414062 -1.015625 1.84375 -0.921875 C 2.28125 -0.835938 2.710938 -0.796875 3.140625 -0.796875 C 3.835938 -0.796875 4.359375 -0.925781 4.703125 -1.1875 C 5.054688 -1.445312 5.234375 -1.8125 5.234375 -2.28125 C 5.234375 -2.59375 5.171875 -2.847656 5.046875 -3.046875 C 4.921875 -3.242188 4.710938 -3.425781 4.421875 -3.59375 C 4.128906 -3.769531 3.6875 -3.960938 3.09375 -4.171875 C 2.257812 -4.472656 1.660156 -4.828125 1.296875 -5.234375 C 0.941406 -5.640625 0.765625 -6.171875 0.765625 -6.828125 C 0.765625 -7.523438 1.023438 -8.078125 1.546875 -8.484375 C 2.066406 -8.890625 2.753906 -9.09375 3.609375 -9.09375 C 4.492188 -9.09375 5.3125 -8.929688 6.0625 -8.609375 L 5.734375 -7.703125 C 4.992188 -8.015625 4.273438 -8.171875 3.578125 -8.171875 C 3.023438 -8.171875 2.59375 -8.050781 2.28125 -7.8125 C 1.976562 -7.570312 1.828125 -7.242188 1.828125 -6.828125 C 1.828125 -6.515625 1.882812 -6.257812 2 -6.0625 C 2.113281 -5.863281 2.304688 -5.679688 2.578125 -5.515625 C 2.847656 -5.347656 3.265625 -5.164062 3.828125 -4.96875 C 4.765625 -4.625 5.410156 -4.257812 5.765625 -3.875 C 6.117188 -3.5 6.296875 -3.003906 6.296875 -2.390625 Z M 6.296875 -2.390625 "/></g></g></g><g fill="#000000" fill-opacity="1"><g transform="translate(354.260199, 385.163397)"><g><path d="M 2.03125 -6.71875 L 2.03125 -2.359375 C 2.03125 -1.816406 2.15625 -1.410156 2.40625 -1.140625 C 2.65625 -0.867188 3.046875 -0.734375 3.578125 -0.734375 C 4.285156 -0.734375 4.800781 -0.925781 5.125 -1.3125 C 5.445312 -1.695312 5.609375 -2.320312 5.609375 -3.1875 L 5.609375 -6.71875 L 6.625 -6.71875 L 6.625 0 L 5.796875 0 L 5.640625 -0.90625 L 5.59375 -0.90625 C 5.382812 -0.570312 5.09375 -0.316406 4.71875 -0.140625 C 4.351562 0.0351562 3.929688 0.125 3.453125 0.125 C 2.640625 0.125 2.023438 -0.0664062 1.609375 -0.453125 C 1.203125 -0.847656 1 -1.472656 1 -2.328125 L 1 -6.71875 Z M 2.03125 -6.71875 "/></g></g></g><g fill="#000000" fill-opacity="1"><g transform="translate(361.970378, 385.163397)"><g><path d="M 4.140625 -6.84375 C 4.441406 -6.84375 4.710938 -6.816406 4.953125 -6.765625 L 4.8125 -5.828125 C 4.53125 -5.890625 4.285156 -5.921875 4.078125 -5.921875 C 3.523438 -5.921875 3.054688 -5.695312 2.671875 -5.25 C 2.285156 -4.8125 2.09375 -4.265625 2.09375 -3.609375 L 2.09375 0 L 1.078125 0 L 1.078125 -6.71875 L 1.921875 -6.71875 L 2.03125 -5.484375 L 2.078125 -5.484375 C 2.328125 -5.921875 2.628906 -6.253906 2.984375 -6.484375 C 3.335938 -6.722656 3.722656 -6.84375 4.140625 -6.84375 Z M 4.140625 -6.84375 "/></g></g></g><g fill="#000000" fill-opacity="1"><g transform="translate(367.09823, 385.163397)"><g><path d="M 2.546875 0 L 0 -6.71875 L 1.09375 -6.71875 L 2.546875 -2.734375 C 2.867188 -1.804688 3.054688 -1.203125 3.109375 -0.921875 L 3.171875 -0.921875 C 3.210938 -1.140625 3.351562 -1.585938 3.59375 -2.265625 C 3.832031 -2.941406 4.367188 -4.425781 5.203125 -6.71875 L 6.296875 -6.71875 L 3.734375 0 Z M 2.546875 0 "/></g></g></g><g fill="#000000" fill-opacity="1"><g transform="translate(373.391502, 385.163397)"><g><path d="M 2.09375 0 L 1.078125 0 L 1.078125 -6.71875 L 2.09375 -6.71875 Z M 1 -8.546875 C 1 -8.773438 1.054688 -8.941406 1.171875 -9.046875 C 1.285156 -9.160156 1.425781 -9.21875 1.59375 -9.21875 C 1.757812 -9.21875 1.898438 -9.160156 2.015625 -9.046875 C 2.140625 -8.941406 2.203125 -8.773438 2.203125 -8.546875 C 2.203125 -8.316406 2.140625 -8.144531 2.015625 -8.03125 C 1.898438 -7.914062 1.757812 -7.859375 1.59375 -7.859375 C 1.425781 -7.859375 1.285156 -7.914062 1.171875 -8.03125 C 1.054688 -8.144531 1 -8.316406 1 -8.546875 Z M 1 -8.546875 "/></g></g></g><g fill="#000000" fill-opacity="1"><g transform="translate(376.568807, 385.163397)"><g><path d="M 2.546875 0 L 0 -6.71875 L 1.09375 -6.71875 L 2.546875 -2.734375 C 2.867188 -1.804688 3.054688 -1.203125 3.109375 -0.921875 L 3.171875 -0.921875 C 3.210938 -1.140625 3.351562 -1.585938 3.59375 -2.265625 C 3.832031 -2.941406 4.367188 -4.425781 5.203125 -6.71875 L 6.296875 -6.71875 L 3.734375 0 Z M 2.546875 0 "/></g></g></g><g fill="#000000" fill-opacity="1"><g transform="translate(382.862079, 385.163397)"><g><path d="M 3.921875 0.125 C 2.921875 0.125 2.132812 -0.175781 1.5625 -0.78125 C 0.988281 -1.382812 0.703125 -2.226562 0.703125 -3.3125 C 0.703125 -4.394531 0.96875 -5.253906 1.5 -5.890625 C 2.039062 -6.523438 2.757812 -6.84375 3.65625 -6.84375 C 4.5 -6.84375 5.164062 -6.566406 5.65625 -6.015625 C 6.144531 -5.460938 6.390625 -4.734375 6.390625 -3.828125 L 6.390625 -3.171875 L 1.765625 -3.171875 C 1.785156 -2.390625 1.984375 -1.789062 2.359375 -1.375 C 2.734375 -0.96875 3.265625 -0.765625 3.953125 -0.765625 C 4.679688 -0.765625 5.398438 -0.914062 6.109375 -1.21875 L 6.109375 -0.3125 C 5.742188 -0.15625 5.398438 -0.046875 5.078125 0.015625 C 4.753906 0.0859375 4.367188 0.125 3.921875 0.125 Z M 3.640625 -6 C 3.097656 -6 2.664062 -5.820312 2.34375 -5.46875 C 2.03125 -5.113281 1.84375 -4.625 1.78125 -4 L 5.296875 -4 C 5.296875 -4.644531 5.148438 -5.140625 4.859375 -5.484375 C 4.578125 -5.828125 4.171875 -6 3.640625 -6 Z M 3.640625 -6 "/></g></g></g><g fill="#000000" fill-opacity="1"><g transform="translate(389.909808, 385.163397)"><g><path d="M 5.65625 -0.90625 L 5.59375 -0.90625 C 5.125 -0.21875 4.421875 0.125 3.484375 0.125 C 2.609375 0.125 1.925781 -0.175781 1.4375 -0.78125 C 0.945312 -1.382812 0.703125 -2.238281 0.703125 -3.34375 C 0.703125 -4.445312 0.945312 -5.304688 1.4375 -5.921875 C 1.925781 -6.535156 2.609375 -6.84375 3.484375 -6.84375 C 4.398438 -6.84375 5.101562 -6.515625 5.59375 -5.859375 L 5.671875 -5.859375 L 5.625 -6.34375 L 5.59375 -6.8125 L 5.59375 -9.546875 L 6.625 -9.546875 L 6.625 0 L 5.796875 0 Z M 3.625 -0.734375 C 4.3125 -0.734375 4.8125 -0.921875 5.125 -1.296875 C 5.4375 -1.671875 5.59375 -2.28125 5.59375 -3.125 L 5.59375 -3.34375 C 5.59375 -4.289062 5.4375 -4.96875 5.125 -5.375 C 4.8125 -5.789062 4.304688 -6 3.609375 -6 C 3.015625 -6 2.554688 -5.765625 2.234375 -5.296875 C 1.921875 -4.828125 1.765625 -4.171875 1.765625 -3.328125 C 1.765625 -2.472656 1.921875 -1.828125 2.234375 -1.390625 C 2.546875 -0.953125 3.007812 -0.734375 3.625 -0.734375 Z M 3.625 -0.734375 "/></g></g></g><g clip-path="url(#3e8a6ef59d)"><g clip-path="url(#200a069996)"><path fill="#ff3131" d="M 466.773438 346.238281 L 579.53125 346.238281 L 579.53125 413.839844 L 466.773438 413.839844 Z M 466.773438 346.238281 " fill-opacity="1" fill-rule="nonzero"/></g></g><g fill="#000000" fill-opacity="1"><g transform="translate(517.80558, 385.163397)"><g><path d="M 2.140625 -1.453125 L 2.234375 -1.3125 C 2.128906 -0.90625 1.976562 -0.429688 1.78125 0.109375 C 1.582031 0.648438 1.375 1.15625 1.15625 1.625 L 0.390625 1.625 C 0.492188 1.195312 0.613281 0.671875 0.75 0.046875 C 0.882812 -0.578125 0.976562 -1.078125 1.03125 -1.453125 Z M 0.90625 -6.0625 C 0.90625 -6.613281 1.144531 -6.890625 1.625 -6.890625 C 2.132812 -6.890625 2.390625 -6.613281 2.390625 -6.0625 C 2.390625 -5.800781 2.320312 -5.597656 2.1875 -5.453125 C 2.050781 -5.304688 1.863281 -5.234375 1.625 -5.234375 C 1.394531 -5.234375 1.21875 -5.304688 1.09375 -5.453125 C 0.96875 -5.597656 0.90625 -5.800781 0.90625 -6.0625 Z M 0.90625 -6.0625 "/></g></g></g><g fill="#000000" fill-opacity="1"><g transform="translate(521.148498, 385.163397)"><g><path d="M 0.515625 -2.90625 L 0.515625 -3.828125 L 3.53125 -3.828125 L 3.53125 -2.90625 Z M 0.515625 -2.90625 "/></g></g></g><g fill="#000000" fill-opacity="1"><g transform="translate(525.190668, 385.163397)"><g><path d="M 2.140625 -1.453125 L 2.234375 -1.3125 C 2.128906 -0.90625 1.976562 -0.429688 1.78125 0.109375 C 1.582031 0.648438 1.375 1.15625 1.15625 1.625 L 0.390625 1.625 C 0.492188 1.195312 0.613281 0.671875 0.75 0.046875 C 0.882812 -0.578125 0.976562 -1.078125 1.03125 -1.453125 Z M 0.90625 -6.0625 C 0.90625 -6.613281 1.144531 -6.890625 1.625 -6.890625 C 2.132812 -6.890625 2.390625 -6.613281 2.390625 -6.0625 C 2.390625 -5.800781 2.320312 -5.597656 2.1875 -5.453125 C 2.050781 -5.304688 1.863281 -5.234375 1.625 -5.234375 C 1.394531 -5.234375 1.21875 -5.304688 1.09375 -5.453125 C 0.96875 -5.597656 0.90625 -5.800781 0.90625 -6.0625 Z M 0.90625 -6.0625 "/></g></g></g><g fill="#000000" fill-opacity="1"><g transform="translate(165.39923, 336.227398)"><g><path d="M 6.59375 0 L 5.53125 -2.734375 L 2.078125 -2.734375 L 1.015625 0 L 0 0 L 3.40625 -8.640625 L 4.25 -8.640625 L 7.640625 0 Z M 5.21875 -3.640625 L 4.21875 -6.3125 C 4.082031 -6.644531 3.945312 -7.054688 3.8125 -7.546875 C 3.726562 -7.171875 3.601562 -6.757812 3.4375 -6.3125 L 2.421875 -3.640625 Z M 5.21875 -3.640625 "/></g></g></g><g fill="#000000" fill-opacity="1"><g transform="translate(173.028709, 336.227398)"><g><path d="M 6.3125 -6.453125 L 6.3125 -5.84375 L 5.125 -5.703125 C 5.238281 -5.554688 5.335938 -5.375 5.421875 -5.15625 C 5.503906 -4.9375 5.546875 -4.6875 5.546875 -4.40625 C 5.546875 -3.769531 5.328125 -3.265625 4.890625 -2.890625 C 4.460938 -2.515625 3.875 -2.328125 3.125 -2.328125 C 2.925781 -2.328125 2.742188 -2.34375 2.578125 -2.375 C 2.160156 -2.15625 1.953125 -1.878906 1.953125 -1.546875 C 1.953125 -1.367188 2.023438 -1.238281 2.171875 -1.15625 C 2.316406 -1.070312 2.566406 -1.03125 2.921875 -1.03125 L 4.0625 -1.03125 C 4.757812 -1.03125 5.296875 -0.878906 5.671875 -0.578125 C 6.046875 -0.285156 6.234375 0.140625 6.234375 0.703125 C 6.234375 1.410156 5.945312 1.953125 5.375 2.328125 C 4.800781 2.703125 3.96875 2.890625 2.875 2.890625 C 2.03125 2.890625 1.378906 2.734375 0.921875 2.421875 C 0.460938 2.109375 0.234375 1.664062 0.234375 1.09375 C 0.234375 0.695312 0.359375 0.351562 0.609375 0.0625 C 0.859375 -0.21875 1.210938 -0.40625 1.671875 -0.5 C 1.503906 -0.582031 1.363281 -0.703125 1.25 -0.859375 C 1.132812 -1.015625 1.078125 -1.195312 1.078125 -1.40625 C 1.078125 -1.632812 1.140625 -1.835938 1.265625 -2.015625 C 1.390625 -2.191406 1.585938 -2.363281 1.859375 -2.53125 C 1.523438 -2.664062 1.253906 -2.898438 1.046875 -3.234375 C 0.835938 -3.566406 0.734375 -3.941406 0.734375 -4.359375 C 0.734375 -5.066406 0.945312 -5.613281 1.375 -6 C 1.800781 -6.382812 2.398438 -6.578125 3.171875 -6.578125 C 3.515625 -6.578125 3.820312 -6.535156 4.09375 -6.453125 Z M 1.171875 1.078125 C 1.171875 1.429688 1.316406 1.695312 1.609375 1.875 C 1.910156 2.0625 2.332031 2.15625 2.875 2.15625 C 3.695312 2.15625 4.304688 2.03125 4.703125 1.78125 C 5.097656 1.53125 5.296875 1.195312 5.296875 0.78125 C 5.296875 0.4375 5.1875 0.195312 4.96875 0.0625 C 4.75 -0.0703125 4.34375 -0.140625 3.75 -0.140625 L 2.578125 -0.140625 C 2.140625 -0.140625 1.796875 -0.0351562 1.546875 0.171875 C 1.296875 0.378906 1.171875 0.679688 1.171875 1.078125 Z M 1.703125 -4.390625 C 1.703125 -3.929688 1.828125 -3.585938 2.078125 -3.359375 C 2.335938 -3.128906 2.695312 -3.015625 3.15625 -3.015625 C 4.101562 -3.015625 4.578125 -3.476562 4.578125 -4.40625 C 4.578125 -5.375 4.097656 -5.859375 3.140625 -5.859375 C 2.671875 -5.859375 2.3125 -5.734375 2.0625 -5.484375 C 1.820312 -5.242188 1.703125 -4.878906 1.703125 -4.390625 Z M 1.703125 -4.390625 "/></g></g></g><g fill="#000000" fill-opacity="1"><g transform="translate(179.63386, 336.227398)"><g><path d="M 3.765625 0.125 C 2.804688 0.125 2.050781 -0.164062 1.5 -0.75 C 0.945312 -1.332031 0.671875 -2.140625 0.671875 -3.171875 C 0.671875 -4.210938 0.925781 -5.039062 1.4375 -5.65625 C 1.957031 -6.269531 2.648438 -6.578125 3.515625 -6.578125 C 4.316406 -6.578125 4.953125 -6.3125 5.421875 -5.78125 C 5.898438 -5.25 6.140625 -4.546875 6.140625 -3.671875 L 6.140625 -3.046875 L 1.6875 -3.046875 C 1.707031 -2.296875 1.898438 -1.722656 2.265625 -1.328125 C 2.628906 -0.929688 3.140625 -0.734375 3.796875 -0.734375 C 4.492188 -0.734375 5.179688 -0.878906 5.859375 -1.171875 L 5.859375 -0.296875 C 5.515625 -0.148438 5.1875 -0.046875 4.875 0.015625 C 4.570312 0.0859375 4.203125 0.125 3.765625 0.125 Z M 3.5 -5.75 C 2.976562 -5.75 2.5625 -5.578125 2.25 -5.234375 C 1.945312 -4.898438 1.769531 -4.4375 1.71875 -3.84375 L 5.09375 -3.84375 C 5.09375 -4.457031 4.953125 -4.925781 4.671875 -5.25 C 4.398438 -5.582031 4.007812 -5.75 3.5 -5.75 Z M 3.5 -5.75 "/></g></g></g><g fill="#000000" fill-opacity="1"><g transform="translate(186.397963, 336.227398)"><g/></g></g><g fill="#000000" fill-opacity="1"><g transform="translate(189.529817, 336.227398)"><g><path d="M 6.265625 -1.421875 L 0.609375 -3.90625 L 0.609375 -4.484375 L 6.265625 -7.3125 L 6.265625 -6.4375 L 1.671875 -4.25 L 6.265625 -2.3125 Z M 6.265625 -1.421875 "/></g></g></g><g fill="#000000" fill-opacity="1"><g transform="translate(196.423432, 336.227398)"><g><path d="M 0.703125 -5.046875 L 0.703125 -5.859375 L 6.171875 -5.859375 L 6.171875 -5.046875 Z M 0.703125 -2.640625 L 0.703125 -3.453125 L 6.171875 -3.453125 L 6.171875 -2.640625 Z M 0.703125 -2.640625 "/></g></g></g><g fill="#000000" fill-opacity="1"><g transform="translate(203.317048, 336.227398)"><g/></g></g><g fill="#000000" fill-opacity="1"><g transform="translate(206.448902, 336.227398)"><g><path d="M 4.21875 0 L 3.25 0 L 3.25 -6.140625 C 3.25 -6.648438 3.265625 -7.132812 3.296875 -7.59375 C 3.222656 -7.507812 3.132812 -7.421875 3.03125 -7.328125 C 2.925781 -7.234375 2.457031 -6.847656 1.625 -6.171875 L 1.109375 -6.84375 L 3.390625 -8.609375 L 4.21875 -8.609375 Z M 4.21875 0 "/></g></g></g><g fill="#000000" fill-opacity="1"><g transform="translate(213.342517, 336.227398)"><g><path d="M 6.296875 -4.3125 C 6.296875 -2.820312 6.0625 -1.707031 5.59375 -0.96875 C 5.125 -0.238281 4.40625 0.125 3.4375 0.125 C 2.507812 0.125 1.800781 -0.25 1.3125 -1 C 0.832031 -1.757812 0.59375 -2.863281 0.59375 -4.3125 C 0.59375 -5.8125 0.828125 -6.925781 1.296875 -7.65625 C 1.765625 -8.382812 2.476562 -8.75 3.4375 -8.75 C 4.375 -8.75 5.082031 -8.367188 5.5625 -7.609375 C 6.050781 -6.847656 6.296875 -5.75 6.296875 -4.3125 Z M 1.59375 -4.3125 C 1.59375 -3.0625 1.738281 -2.148438 2.03125 -1.578125 C 2.320312 -1.003906 2.789062 -0.71875 3.4375 -0.71875 C 4.09375 -0.71875 4.566406 -1.007812 4.859375 -1.59375 C 5.148438 -2.175781 5.296875 -3.082031 5.296875 -4.3125 C 5.296875 -5.550781 5.148438 -6.457031 4.859375 -7.03125 C 4.566406 -7.601562 4.09375 -7.890625 3.4375 -7.890625 C 2.789062 -7.890625 2.320312 -7.609375 2.03125 -7.046875 C 1.738281 -6.484375 1.59375 -5.570312 1.59375 -4.3125 Z M 1.59375 -4.3125 "/></g></g></g><g fill="#000000" fill-opacity="1"><g transform="translate(312.644754, 336.227398)"><g><path d="M 0.6875 -3.6875 C 0.6875 -5.375 1.015625 -6.632812 1.671875 -7.46875 C 2.328125 -8.3125 3.300781 -8.734375 4.59375 -8.734375 C 5.039062 -8.734375 5.390625 -8.695312 5.640625 -8.625 L 5.640625 -7.78125 C 5.335938 -7.875 4.992188 -7.921875 4.609375 -7.921875 C 3.679688 -7.921875 2.972656 -7.632812 2.484375 -7.0625 C 2.003906 -6.488281 1.738281 -5.585938 1.6875 -4.359375 L 1.765625 -4.359375 C 2.191406 -5.023438 2.875 -5.359375 3.8125 -5.359375 C 4.582031 -5.359375 5.191406 -5.125 5.640625 -4.65625 C 6.085938 -4.195312 6.3125 -3.566406 6.3125 -2.765625 C 6.3125 -1.867188 6.066406 -1.160156 5.578125 -0.640625 C 5.085938 -0.128906 4.425781 0.125 3.59375 0.125 C 2.695312 0.125 1.988281 -0.207031 1.46875 -0.875 C 0.945312 -1.550781 0.6875 -2.488281 0.6875 -3.6875 Z M 3.578125 -0.71875 C 4.140625 -0.71875 4.570312 -0.890625 4.875 -1.234375 C 5.1875 -1.585938 5.34375 -2.097656 5.34375 -2.765625 C 5.34375 -3.328125 5.195312 -3.769531 4.90625 -4.09375 C 4.625 -4.425781 4.195312 -4.59375 3.625 -4.59375 C 3.269531 -4.59375 2.945312 -4.519531 2.65625 -4.375 C 2.363281 -4.226562 2.128906 -4.023438 1.953125 -3.765625 C 1.773438 -3.515625 1.6875 -3.253906 1.6875 -2.984375 C 1.6875 -2.578125 1.765625 -2.195312 1.921875 -1.84375 C 2.078125 -1.5 2.300781 -1.222656 2.59375 -1.015625 C 2.882812 -0.816406 3.210938 -0.71875 3.578125 -0.71875 Z M 3.578125 -0.71875 "/></g></g></g><g fill="#000000" fill-opacity="1"><g transform="translate(319.53837, 336.227398)"><g><path d="M 6.296875 -4.3125 C 6.296875 -2.820312 6.0625 -1.707031 5.59375 -0.96875 C 5.125 -0.238281 4.40625 0.125 3.4375 0.125 C 2.507812 0.125 1.800781 -0.25 1.3125 -1 C 0.832031 -1.757812 0.59375 -2.863281 0.59375 -4.3125 C 0.59375 -5.8125 0.828125 -6.925781 1.296875 -7.65625 C 1.765625 -8.382812 2.476562 -8.75 3.4375 -8.75 C 4.375 -8.75 5.082031 -8.367188 5.5625 -7.609375 C 6.050781 -6.847656 6.296875 -5.75 6.296875 -4.3125 Z M 1.59375 -4.3125 C 1.59375 -3.0625 1.738281 -2.148438 2.03125 -1.578125 C 2.320312 -1.003906 2.789062 -0.71875 3.4375 -0.71875 C 4.09375 -0.71875 4.566406 -1.007812 4.859375 -1.59375 C 5.148438 -2.175781 5.296875 -3.082031 5.296875 -4.3125 C 5.296875 -5.550781 5.148438 -6.457031 4.859375 -7.03125 C 4.566406 -7.601562 4.09375 -7.890625 3.4375 -7.890625 C 2.789062 -7.890625 2.320312 -7.609375 2.03125 -7.046875 C 1.738281 -6.484375 1.59375 -5.570312 1.59375 -4.3125 Z M 1.59375 -4.3125 "/></g></g></g><g fill="#000000" fill-opacity="1"><g transform="translate(326.431985, 336.227398)"><g/></g></g><g fill="#000000" fill-opacity="1"><g transform="translate(329.563839, 336.227398)"><g><path d="M 6.265625 -1.421875 L 0.609375 -3.90625 L 0.609375 -4.484375 L 6.265625 -7.3125 L 6.265625 -6.4375 L 1.671875 -4.25 L 6.265625 -2.3125 Z M 6.265625 -1.421875 "/></g></g></g><g fill="#000000" fill-opacity="1"><g transform="translate(336.457455, 336.227398)"><g><path d="M 0.703125 -5.046875 L 0.703125 -5.859375 L 6.171875 -5.859375 L 6.171875 -5.046875 Z M 0.703125 -2.640625 L 0.703125 -3.453125 L 6.171875 -3.453125 L 6.171875 -2.640625 Z M 0.703125 -2.640625 "/></g></g></g><g fill="#000000" fill-opacity="1"><g transform="translate(343.35107, 336.227398)"><g/></g></g><g fill="#000000" fill-opacity="1"><g transform="translate(346.482924, 336.227398)"><g><path d="M 6.59375 0 L 5.53125 -2.734375 L 2.078125 -2.734375 L 1.015625 0 L 0 0 L 3.40625 -8.640625 L 4.25 -8.640625 L 7.640625 0 Z M 5.21875 -3.640625 L 4.21875 -6.3125 C 4.082031 -6.644531 3.945312 -7.054688 3.8125 -7.546875 C 3.726562 -7.171875 3.601562 -6.757812 3.4375 -6.3125 L 2.421875 -3.640625 Z M 5.21875 -3.640625 "/></g></g></g><g fill="#000000" fill-opacity="1"><g transform="translate(354.112403, 336.227398)"><g><path d="M 6.3125 -6.453125 L 6.3125 -5.84375 L 5.125 -5.703125 C 5.238281 -5.554688 5.335938 -5.375 5.421875 -5.15625 C 5.503906 -4.9375 5.546875 -4.6875 5.546875 -4.40625 C 5.546875 -3.769531 5.328125 -3.265625 4.890625 -2.890625 C 4.460938 -2.515625 3.875 -2.328125 3.125 -2.328125 C 2.925781 -2.328125 2.742188 -2.34375 2.578125 -2.375 C 2.160156 -2.15625 1.953125 -1.878906 1.953125 -1.546875 C 1.953125 -1.367188 2.023438 -1.238281 2.171875 -1.15625 C 2.316406 -1.070312 2.566406 -1.03125 2.921875 -1.03125 L 4.0625 -1.03125 C 4.757812 -1.03125 5.296875 -0.878906 5.671875 -0.578125 C 6.046875 -0.285156 6.234375 0.140625 6.234375 0.703125 C 6.234375 1.410156 5.945312 1.953125 5.375 2.328125 C 4.800781 2.703125 3.96875 2.890625 2.875 2.890625 C 2.03125 2.890625 1.378906 2.734375 0.921875 2.421875 C 0.460938 2.109375 0.234375 1.664062 0.234375 1.09375 C 0.234375 0.695312 0.359375 0.351562 0.609375 0.0625 C 0.859375 -0.21875 1.210938 -0.40625 1.671875 -0.5 C 1.503906 -0.582031 1.363281 -0.703125 1.25 -0.859375 C 1.132812 -1.015625 1.078125 -1.195312 1.078125 -1.40625 C 1.078125 -1.632812 1.140625 -1.835938 1.265625 -2.015625 C 1.390625 -2.191406 1.585938 -2.363281 1.859375 -2.53125 C 1.523438 -2.664062 1.253906 -2.898438 1.046875 -3.234375 C 0.835938 -3.566406 0.734375 -3.941406 0.734375 -4.359375 C 0.734375 -5.066406 0.945312 -5.613281 1.375 -6 C 1.800781 -6.382812 2.398438 -6.578125 3.171875 -6.578125 C 3.515625 -6.578125 3.820312 -6.535156 4.09375 -6.453125 Z M 1.171875 1.078125 C 1.171875 1.429688 1.316406 1.695312 1.609375 1.875 C 1.910156 2.0625 2.332031 2.15625 2.875 2.15625 C 3.695312 2.15625 4.304688 2.03125 4.703125 1.78125 C 5.097656 1.53125 5.296875 1.195312 5.296875 0.78125 C 5.296875 0.4375 5.1875 0.195312 4.96875 0.0625 C 4.75 -0.0703125 4.34375 -0.140625 3.75 -0.140625 L 2.578125 -0.140625 C 2.140625 -0.140625 1.796875 -0.0351562 1.546875 0.171875 C 1.296875 0.378906 1.171875 0.679688 1.171875 1.078125 Z M 1.703125 -4.390625 C 1.703125 -3.929688 1.828125 -3.585938 2.078125 -3.359375 C 2.335938 -3.128906 2.695312 -3.015625 3.15625 -3.015625 C 4.101562 -3.015625 4.578125 -3.476562 4.578125 -4.40625 C 4.578125 -5.375 4.097656 -5.859375 3.140625 -5.859375 C 2.671875 -5.859375 2.3125 -5.734375 2.0625 -5.484375 C 1.820312 -5.242188 1.703125 -4.878906 1.703125 -4.390625 Z M 1.703125 -4.390625 "/></g></g></g><g fill="#000000" fill-opacity="1"><g transform="translate(360.717554, 336.227398)"><g><path d="M 3.765625 0.125 C 2.804688 0.125 2.050781 -0.164062 1.5 -0.75 C 0.945312 -1.332031 0.671875 -2.140625 0.671875 -3.171875 C 0.671875 -4.210938 0.925781 -5.039062 1.4375 -5.65625 C 1.957031 -6.269531 2.648438 -6.578125 3.515625 -6.578125 C 4.316406 -6.578125 4.953125 -6.3125 5.421875 -5.78125 C 5.898438 -5.25 6.140625 -4.546875 6.140625 -3.671875 L 6.140625 -3.046875 L 1.6875 -3.046875 C 1.707031 -2.296875 1.898438 -1.722656 2.265625 -1.328125 C 2.628906 -0.929688 3.140625 -0.734375 3.796875 -0.734375 C 4.492188 -0.734375 5.179688 -0.878906 5.859375 -1.171875 L 5.859375 -0.296875 C 5.515625 -0.148438 5.1875 -0.046875 4.875 0.015625 C 4.570312 0.0859375 4.203125 0.125 3.765625 0.125 Z M 3.5 -5.75 C 2.976562 -5.75 2.5625 -5.578125 2.25 -5.234375 C 1.945312 -4.898438 1.769531 -4.4375 1.71875 -3.84375 L 5.09375 -3.84375 C 5.09375 -4.457031 4.953125 -4.925781 4.671875 -5.25 C 4.398438 -5.582031 4.007812 -5.75 3.5 -5.75 Z M 3.5 -5.75 "/></g></g></g><g fill="#000000" fill-opacity="1"><g transform="translate(509.709407, 336.227398)"><g><path d="M 4.21875 0 L 3.25 0 L 3.25 -6.140625 C 3.25 -6.648438 3.265625 -7.132812 3.296875 -7.59375 C 3.222656 -7.507812 3.132812 -7.421875 3.03125 -7.328125 C 2.925781 -7.234375 2.457031 -6.847656 1.625 -6.171875 L 1.109375 -6.84375 L 3.390625 -8.609375 L 4.21875 -8.609375 Z M 4.21875 0 "/></g></g></g><g fill="#000000" fill-opacity="1"><g transform="translate(516.603023, 336.227398)"><g><path d="M 6.296875 -4.3125 C 6.296875 -2.820312 6.0625 -1.707031 5.59375 -0.96875 C 5.125 -0.238281 4.40625 0.125 3.4375 0.125 C 2.507812 0.125 1.800781 -0.25 1.3125 -1 C 0.832031 -1.757812 0.59375 -2.863281 0.59375 -4.3125 C 0.59375 -5.8125 0.828125 -6.925781 1.296875 -7.65625 C 1.765625 -8.382812 2.476562 -8.75 3.4375 -8.75 C 4.375 -8.75 5.082031 -8.367188 5.5625 -7.609375 C 6.050781 -6.847656 6.296875 -5.75 6.296875 -4.3125 Z M 1.59375 -4.3125 C 1.59375 -3.0625 1.738281 -2.148438 2.03125 -1.578125 C 2.320312 -1.003906 2.789062 -0.71875 3.4375 -0.71875 C 4.09375 -0.71875 4.566406 -1.007812 4.859375 -1.59375 C 5.148438 -2.175781 5.296875 -3.082031 5.296875 -4.3125 C 5.296875 -5.550781 5.148438 -6.457031 4.859375 -7.03125 C 4.566406 -7.601562 4.09375 -7.890625 3.4375 -7.890625 C 2.789062 -7.890625 2.320312 -7.609375 2.03125 -7.046875 C 1.738281 -6.484375 1.59375 -5.570312 1.59375 -4.3125 Z M 1.59375 -4.3125 "/></g></g></g><g fill="#000000" fill-opacity="1"><g transform="translate(523.496638, 336.227398)"><g/></g></g><g fill="#000000" fill-opacity="1"><g transform="translate(526.628492, 336.227398)"><g><path d="M 6.265625 -1.421875 L 0.609375 -3.90625 L 0.609375 -4.484375 L 6.265625 -7.3125 L 6.265625 -6.4375 L 1.671875 -4.25 L 6.265625 -2.3125 Z M 6.265625 -1.421875 "/></g></g></g><g fill="#000000" fill-opacity="1"><g transform="translate(533.522108, 336.227398)"><g/></g></g><g fill="#000000" fill-opacity="1"><g transform="translate(536.653962, 336.227398)"><g><path d="M 6.59375 0 L 5.53125 -2.734375 L 2.078125 -2.734375 L 1.015625 0 L 0 0 L 3.40625 -8.640625 L 4.25 -8.640625 L 7.640625 0 Z M 5.21875 -3.640625 L 4.21875 -6.3125 C 4.082031 -6.644531 3.945312 -7.054688 3.8125 -7.546875 C 3.726562 -7.171875 3.601562 -6.757812 3.4375 -6.3125 L 2.421875 -3.640625 Z M 5.21875 -3.640625 "/></g></g></g><g fill="#000000" fill-opacity="1"><g transform="translate(544.283441, 336.227398)"><g><path d="M 6.3125 -6.453125 L 6.3125 -5.84375 L 5.125 -5.703125 C 5.238281 -5.554688 5.335938 -5.375 5.421875 -5.15625 C 5.503906 -4.9375 5.546875 -4.6875 5.546875 -4.40625 C 5.546875 -3.769531 5.328125 -3.265625 4.890625 -2.890625 C 4.460938 -2.515625 3.875 -2.328125 3.125 -2.328125 C 2.925781 -2.328125 2.742188 -2.34375 2.578125 -2.375 C 2.160156 -2.15625 1.953125 -1.878906 1.953125 -1.546875 C 1.953125 -1.367188 2.023438 -1.238281 2.171875 -1.15625 C 2.316406 -1.070312 2.566406 -1.03125 2.921875 -1.03125 L 4.0625 -1.03125 C 4.757812 -1.03125 5.296875 -0.878906 5.671875 -0.578125 C 6.046875 -0.285156 6.234375 0.140625 6.234375 0.703125 C 6.234375 1.410156 5.945312 1.953125 5.375 2.328125 C 4.800781 2.703125 3.96875 2.890625 2.875 2.890625 C 2.03125 2.890625 1.378906 2.734375 0.921875 2.421875 C 0.460938 2.109375 0.234375 1.664062 0.234375 1.09375 C 0.234375 0.695312 0.359375 0.351562 0.609375 0.0625 C 0.859375 -0.21875 1.210938 -0.40625 1.671875 -0.5 C 1.503906 -0.582031 1.363281 -0.703125 1.25 -0.859375 C 1.132812 -1.015625 1.078125 -1.195312 1.078125 -1.40625 C 1.078125 -1.632812 1.140625 -1.835938 1.265625 -2.015625 C 1.390625 -2.191406 1.585938 -2.363281 1.859375 -2.53125 C 1.523438 -2.664062 1.253906 -2.898438 1.046875 -3.234375 C 0.835938 -3.566406 0.734375 -3.941406 0.734375 -4.359375 C 0.734375 -5.066406 0.945312 -5.613281 1.375 -6 C 1.800781 -6.382812 2.398438 -6.578125 3.171875 -6.578125 C 3.515625 -6.578125 3.820312 -6.535156 4.09375 -6.453125 Z M 1.171875 1.078125 C 1.171875 1.429688 1.316406 1.695312 1.609375 1.875 C 1.910156 2.0625 2.332031 2.15625 2.875 2.15625 C 3.695312 2.15625 4.304688 2.03125 4.703125 1.78125 C 5.097656 1.53125 5.296875 1.195312 5.296875 0.78125 C 5.296875 0.4375 5.1875 0.195312 4.96875 0.0625 C 4.75 -0.0703125 4.34375 -0.140625 3.75 -0.140625 L 2.578125 -0.140625 C 2.140625 -0.140625 1.796875 -0.0351562 1.546875 0.171875 C 1.296875 0.378906 1.171875 0.679688 1.171875 1.078125 Z M 1.703125 -4.390625 C 1.703125 -3.929688 1.828125 -3.585938 2.078125 -3.359375 C 2.335938 -3.128906 2.695312 -3.015625 3.15625 -3.015625 C 4.101562 -3.015625 4.578125 -3.476562 4.578125 -4.40625 C 4.578125 -5.375 4.097656 -5.859375 3.140625 -5.859375 C 2.671875 -5.859375 2.3125 -5.734375 2.0625 -5.484375 C 1.820312 -5.242188 1.703125 -4.878906 1.703125 -4.390625 Z M 1.703125 -4.390625 "/></g></g></g><g fill="#000000" fill-opacity="1"><g transform="translate(550.888592, 336.227398)"><g><path d="M 3.765625 0.125 C 2.804688 0.125 2.050781 -0.164062 1.5 -0.75 C 0.945312 -1.332031 0.671875 -2.140625 0.671875 -3.171875 C 0.671875 -4.210938 0.925781 -5.039062 1.4375 -5.65625 C 1.957031 -6.269531 2.648438 -6.578125 3.515625 -6.578125 C 4.316406 -6.578125 4.953125 -6.3125 5.421875 -5.78125 C 5.898438 -5.25 6.140625 -4.546875 6.140625 -3.671875 L 6.140625 -3.046875 L 1.6875 -3.046875 C 1.707031 -2.296875 1.898438 -1.722656 2.265625 -1.328125 C 2.628906 -0.929688 3.140625 -0.734375 3.796875 -0.734375 C 4.492188 -0.734375 5.179688 -0.878906 5.859375 -1.171875 L 5.859375 -0.296875 C 5.515625 -0.148438 5.1875 -0.046875 4.875 0.015625 C 4.570312 0.0859375 4.203125 0.125 3.765625 0.125 Z M 3.5 -5.75 C 2.976562 -5.75 2.5625 -5.578125 2.25 -5.234375 C 1.945312 -4.898438 1.769531 -4.4375 1.71875 -3.84375 L 5.09375 -3.84375 C 5.09375 -4.457031 4.953125 -4.925781 4.671875 -5.25 C 4.398438 -5.582031 4.007812 -5.75 3.5 -5.75 Z M 3.5 -5.75 "/></g></g></g><g fill="#000000" fill-opacity="1"><g transform="translate(557.652695, 336.227398)"><g/></g></g><g fill="#000000" fill-opacity="1"><g transform="translate(560.784549, 336.227398)"><g><path d="M 6.265625 -1.421875 L 0.609375 -3.90625 L 0.609375 -4.484375 L 6.265625 -7.3125 L 6.265625 -6.4375 L 1.671875 -4.25 L 6.265625 -2.3125 Z M 6.265625 -1.421875 "/></g></g></g><g fill="#000000" fill-opacity="1"><g transform="translate(567.678164, 336.227398)"><g/></g></g><g fill="#000000" fill-opacity="1"><g transform="translate(570.810018, 336.227398)"><g><path d="M 0.6875 -3.6875 C 0.6875 -5.375 1.015625 -6.632812 1.671875 -7.46875 C 2.328125 -8.3125 3.300781 -8.734375 4.59375 -8.734375 C 5.039062 -8.734375 5.390625 -8.695312 5.640625 -8.625 L 5.640625 -7.78125 C 5.335938 -7.875 4.992188 -7.921875 4.609375 -7.921875 C 3.679688 -7.921875 2.972656 -7.632812 2.484375 -7.0625 C 2.003906 -6.488281 1.738281 -5.585938 1.6875 -4.359375 L 1.765625 -4.359375 C 2.191406 -5.023438 2.875 -5.359375 3.8125 -5.359375 C 4.582031 -5.359375 5.191406 -5.125 5.640625 -4.65625 C 6.085938 -4.195312 6.3125 -3.566406 6.3125 -2.765625 C 6.3125 -1.867188 6.066406 -1.160156 5.578125 -0.640625 C 5.085938 -0.128906 4.425781 0.125 3.59375 0.125 C 2.695312 0.125 1.988281 -0.207031 1.46875 -0.875 C 0.945312 -1.550781 0.6875 -2.488281 0.6875 -3.6875 Z M 3.578125 -0.71875 C 4.140625 -0.71875 4.570312 -0.890625 4.875 -1.234375 C 5.1875 -1.585938 5.34375 -2.097656 5.34375 -2.765625 C 5.34375 -3.328125 5.195312 -3.769531 4.90625 -4.09375 C 4.625 -4.425781 4.195312 -4.59375 3.625 -4.59375 C 3.269531 -4.59375 2.945312 -4.519531 2.65625 -4.375 C 2.363281 -4.226562 2.128906 -4.023438 1.953125 -3.765625 C 1.773438 -3.515625 1.6875 -3.253906 1.6875 -2.984375 C 1.6875 -2.578125 1.765625 -2.195312 1.921875 -1.84375 C 2.078125 -1.5 2.300781 -1.222656 2.59375 -1.015625 C 2.882812 -0.816406 3.210938 -0.71875 3.578125 -0.71875 Z M 3.578125 -0.71875 "/></g></g></g><g fill="#000000" fill-opacity="1"><g transform="translate(577.703634, 336.227398)"><g><path d="M 6.296875 -4.3125 C 6.296875 -2.820312 6.0625 -1.707031 5.59375 -0.96875 C 5.125 -0.238281 4.40625 0.125 3.4375 0.125 C 2.507812 0.125 1.800781 -0.25 1.3125 -1 C 0.832031 -1.757812 0.59375 -2.863281 0.59375 -4.3125 C 0.59375 -5.8125 0.828125 -6.925781 1.296875 -7.65625 C 1.765625 -8.382812 2.476562 -8.75 3.4375 -8.75 C 4.375 -8.75 5.082031 -8.367188 5.5625 -7.609375 C 6.050781 -6.847656 6.296875 -5.75 6.296875 -4.3125 Z M 1.59375 -4.3125 C 1.59375 -3.0625 1.738281 -2.148438 2.03125 -1.578125 C 2.320312 -1.003906 2.789062 -0.71875 3.4375 -0.71875 C 4.09375 -0.71875 4.566406 -1.007812 4.859375 -1.59375 C 5.148438 -2.175781 5.296875 -3.082031 5.296875 -4.3125 C 5.296875 -5.550781 5.148438 -6.457031 4.859375 -7.03125 C 4.566406 -7.601562 4.09375 -7.890625 3.4375 -7.890625 C 2.789062 -7.890625 2.320312 -7.609375 2.03125 -7.046875 C 1.738281 -6.484375 1.59375 -5.570312 1.59375 -4.3125 Z M 1.59375 -4.3125 "/></g></g></g><g clip-path="url(#945d86ce4c)"><g clip-path="url(#0b170af517)"><path fill="#d9d9d9" d="M 316.089844 110.164062 L 428.847656 110.164062 L 428.847656 177.765625 L 316.089844 177.765625 Z M 316.089844 110.164062 " fill-opacity="1" fill-rule="nonzero"/></g></g><g fill="#000000" fill-opacity="1"><g transform="translate(329.119321, 149.089171)"><g><path d="M 4 0 L 2.953125 0 L 2.953125 -8.046875 L 0.109375 -8.046875 L 0.109375 -8.96875 L 6.828125 -8.96875 L 6.828125 -8.046875 L 4 -8.046875 Z M 4 0 "/></g></g></g><g fill="#000000" fill-opacity="1"><g transform="translate(336.068909, 149.089171)"><g><path d="M 2.09375 0 L 1.078125 0 L 1.078125 -6.71875 L 2.09375 -6.71875 Z M 1 -8.546875 C 1 -8.773438 1.054688 -8.941406 1.171875 -9.046875 C 1.285156 -9.160156 1.425781 -9.21875 1.59375 -9.21875 C 1.757812 -9.21875 1.898438 -9.160156 2.015625 -9.046875 C 2.140625 -8.941406 2.203125 -8.773438 2.203125 -8.546875 C 2.203125 -8.316406 2.140625 -8.144531 2.015625 -8.03125 C 1.898438 -7.914062 1.757812 -7.859375 1.59375 -7.859375 C 1.425781 -7.859375 1.285156 -7.914062 1.171875 -8.03125 C 1.054688 -8.144531 1 -8.316406 1 -8.546875 Z M 1 -8.546875 "/></g></g></g><g fill="#000000" fill-opacity="1"><g transform="translate(339.246214, 149.089171)"><g><path d="M 3.25 -0.71875 C 3.425781 -0.71875 3.597656 -0.726562 3.765625 -0.75 C 3.941406 -0.78125 4.078125 -0.8125 4.171875 -0.84375 L 4.171875 -0.0625 C 4.054688 -0.0078125 3.890625 0.03125 3.671875 0.0625 C 3.460938 0.101562 3.273438 0.125 3.109375 0.125 C 1.804688 0.125 1.15625 -0.5625 1.15625 -1.9375 L 1.15625 -5.9375 L 0.1875 -5.9375 L 0.1875 -6.421875 L 1.15625 -6.84375 L 1.578125 -8.28125 L 2.171875 -8.28125 L 2.171875 -6.71875 L 4.125 -6.71875 L 4.125 -5.9375 L 2.171875 -5.9375 L 2.171875 -1.96875 C 2.171875 -1.570312 2.265625 -1.265625 2.453125 -1.046875 C 2.648438 -0.828125 2.914062 -0.71875 3.25 -0.71875 Z M 3.25 -0.71875 "/></g></g></g><g fill="#000000" fill-opacity="1"><g transform="translate(343.680947, 149.089171)"><g><path d="M 5.21875 0 L 5.015625 -0.953125 L 4.96875 -0.953125 C 4.625 -0.535156 4.285156 -0.25 3.953125 -0.09375 C 3.617188 0.0507812 3.207031 0.125 2.71875 0.125 C 2.050781 0.125 1.523438 -0.046875 1.140625 -0.390625 C 0.765625 -0.734375 0.578125 -1.222656 0.578125 -1.859375 C 0.578125 -3.210938 1.660156 -3.925781 3.828125 -4 L 4.96875 -4.03125 L 4.96875 -4.453125 C 4.96875 -4.972656 4.851562 -5.359375 4.625 -5.609375 C 4.40625 -5.867188 4.046875 -6 3.546875 -6 C 2.984375 -6 2.347656 -5.828125 1.640625 -5.484375 L 1.328125 -6.25 C 1.660156 -6.4375 2.023438 -6.578125 2.421875 -6.671875 C 2.816406 -6.773438 3.210938 -6.828125 3.609375 -6.828125 C 4.410156 -6.828125 5.003906 -6.648438 5.390625 -6.296875 C 5.773438 -5.941406 5.96875 -5.375 5.96875 -4.59375 L 5.96875 0 Z M 2.90625 -0.71875 C 3.539062 -0.71875 4.039062 -0.890625 4.40625 -1.234375 C 4.769531 -1.585938 4.953125 -2.078125 4.953125 -2.703125 L 4.953125 -3.3125 L 3.9375 -3.265625 C 3.125 -3.234375 2.535156 -3.101562 2.171875 -2.875 C 1.816406 -2.65625 1.640625 -2.3125 1.640625 -1.84375 C 1.640625 -1.476562 1.75 -1.195312 1.96875 -1 C 2.195312 -0.8125 2.507812 -0.71875 2.90625 -0.71875 Z M 2.90625 -0.71875 "/></g></g></g><g fill="#000000" fill-opacity="1"><g transform="translate(350.667338, 149.089171)"><g><path d="M 5.6875 0 L 5.6875 -4.34375 C 5.6875 -4.894531 5.5625 -5.304688 5.3125 -5.578125 C 5.0625 -5.847656 4.671875 -5.984375 4.140625 -5.984375 C 3.429688 -5.984375 2.910156 -5.789062 2.578125 -5.40625 C 2.253906 -5.03125 2.09375 -4.40625 2.09375 -3.53125 L 2.09375 0 L 1.078125 0 L 1.078125 -6.71875 L 1.90625 -6.71875 L 2.078125 -5.796875 L 2.125 -5.796875 C 2.332031 -6.128906 2.625 -6.382812 3 -6.5625 C 3.375 -6.75 3.789062 -6.84375 4.25 -6.84375 C 5.0625 -6.84375 5.671875 -6.644531 6.078125 -6.25 C 6.492188 -5.863281 6.703125 -5.242188 6.703125 -4.390625 L 6.703125 0 Z M 5.6875 0 "/></g></g></g><g fill="#000000" fill-opacity="1"><g transform="translate(358.377517, 149.089171)"><g><path d="M 2.09375 0 L 1.078125 0 L 1.078125 -6.71875 L 2.09375 -6.71875 Z M 1 -8.546875 C 1 -8.773438 1.054688 -8.941406 1.171875 -9.046875 C 1.285156 -9.160156 1.425781 -9.21875 1.59375 -9.21875 C 1.757812 -9.21875 1.898438 -9.160156 2.015625 -9.046875 C 2.140625 -8.941406 2.203125 -8.773438 2.203125 -8.546875 C 2.203125 -8.316406 2.140625 -8.144531 2.015625 -8.03125 C 1.898438 -7.914062 1.757812 -7.859375 1.59375 -7.859375 C 1.425781 -7.859375 1.285156 -7.914062 1.171875 -8.03125 C 1.054688 -8.144531 1 -8.316406 1 -8.546875 Z M 1 -8.546875 "/></g></g></g><g fill="#000000" fill-opacity="1"><g transform="translate(361.554822, 149.089171)"><g><path d="M 3.765625 0.125 C 2.796875 0.125 2.039062 -0.171875 1.5 -0.765625 C 0.96875 -1.367188 0.703125 -2.21875 0.703125 -3.3125 C 0.703125 -4.4375 0.972656 -5.304688 1.515625 -5.921875 C 2.054688 -6.535156 2.828125 -6.84375 3.828125 -6.84375 C 4.148438 -6.84375 4.472656 -6.804688 4.796875 -6.734375 C 5.117188 -6.671875 5.375 -6.59375 5.5625 -6.5 L 5.25 -5.625 C 5.019531 -5.71875 4.769531 -5.789062 4.5 -5.84375 C 4.238281 -5.90625 4.007812 -5.9375 3.8125 -5.9375 C 2.445312 -5.9375 1.765625 -5.066406 1.765625 -3.328125 C 1.765625 -2.503906 1.929688 -1.867188 2.265625 -1.421875 C 2.597656 -0.984375 3.085938 -0.765625 3.734375 -0.765625 C 4.296875 -0.765625 4.875 -0.882812 5.46875 -1.125 L 5.46875 -0.234375 C 5.019531 0.00390625 4.453125 0.125 3.765625 0.125 Z M 3.765625 0.125 "/></g></g></g><g fill="#000000" fill-opacity="1"><g transform="translate(367.535271, 149.089171)"><g/></g></g><g fill="#000000" fill-opacity="1"><g transform="translate(370.798449, 149.089171)"><g><path d="M 8.390625 -4.5625 C 8.390625 -3.082031 7.988281 -1.953125 7.1875 -1.171875 C 6.382812 -0.390625 5.226562 0 3.71875 0 L 1.234375 0 L 1.234375 -8.96875 L 3.984375 -8.96875 C 5.378906 -8.96875 6.460938 -8.582031 7.234375 -7.8125 C 8.003906 -7.039062 8.390625 -5.957031 8.390625 -4.5625 Z M 7.28125 -4.53125 C 7.28125 -5.695312 6.988281 -6.578125 6.40625 -7.171875 C 5.820312 -7.765625 4.953125 -8.0625 3.796875 -8.0625 L 2.28125 -8.0625 L 2.28125 -0.90625 L 3.546875 -0.90625 C 4.785156 -0.90625 5.71875 -1.207031 6.34375 -1.8125 C 6.96875 -2.425781 7.28125 -3.332031 7.28125 -4.53125 Z M 7.28125 -4.53125 "/></g></g></g><g fill="#000000" fill-opacity="1"><g transform="translate(379.956203, 149.089171)"><g><path d="M 5.21875 0 L 5.015625 -0.953125 L 4.96875 -0.953125 C 4.625 -0.535156 4.285156 -0.25 3.953125 -0.09375 C 3.617188 0.0507812 3.207031 0.125 2.71875 0.125 C 2.050781 0.125 1.523438 -0.046875 1.140625 -0.390625 C 0.765625 -0.734375 0.578125 -1.222656 0.578125 -1.859375 C 0.578125 -3.210938 1.660156 -3.925781 3.828125 -4 L 4.96875 -4.03125 L 4.96875 -4.453125 C 4.96875 -4.972656 4.851562 -5.359375 4.625 -5.609375 C 4.40625 -5.867188 4.046875 -6 3.546875 -6 C 2.984375 -6 2.347656 -5.828125 1.640625 -5.484375 L 1.328125 -6.25 C 1.660156 -6.4375 2.023438 -6.578125 2.421875 -6.671875 C 2.816406 -6.773438 3.210938 -6.828125 3.609375 -6.828125 C 4.410156 -6.828125 5.003906 -6.648438 5.390625 -6.296875 C 5.773438 -5.941406 5.96875 -5.375 5.96875 -4.59375 L 5.96875 0 Z M 2.90625 -0.71875 C 3.539062 -0.71875 4.039062 -0.890625 4.40625 -1.234375 C 4.769531 -1.585938 4.953125 -2.078125 4.953125 -2.703125 L 4.953125 -3.3125 L 3.9375 -3.265625 C 3.125 -3.234375 2.535156 -3.101562 2.171875 -2.875 C 1.816406 -2.65625 1.640625 -2.3125 1.640625 -1.84375 C 1.640625 -1.476562 1.75 -1.195312 1.96875 -1 C 2.195312 -0.8125 2.507812 -0.71875 2.90625 -0.71875 Z M 2.90625 -0.71875 "/></g></g></g><g fill="#000000" fill-opacity="1"><g transform="translate(386.942594, 149.089171)"><g><path d="M 3.25 -0.71875 C 3.425781 -0.71875 3.597656 -0.726562 3.765625 -0.75 C 3.941406 -0.78125 4.078125 -0.8125 4.171875 -0.84375 L 4.171875 -0.0625 C 4.054688 -0.0078125 3.890625 0.03125 3.671875 0.0625 C 3.460938 0.101562 3.273438 0.125 3.109375 0.125 C 1.804688 0.125 1.15625 -0.5625 1.15625 -1.9375 L 1.15625 -5.9375 L 0.1875 -5.9375 L 0.1875 -6.421875 L 1.15625 -6.84375 L 1.578125 -8.28125 L 2.171875 -8.28125 L 2.171875 -6.71875 L 4.125 -6.71875 L 4.125 -5.9375 L 2.171875 -5.9375 L 2.171875 -1.96875 C 2.171875 -1.570312 2.265625 -1.265625 2.453125 -1.046875 C 2.648438 -0.828125 2.914062 -0.71875 3.25 -0.71875 Z M 3.25 -0.71875 "/></g></g></g><g fill="#000000" fill-opacity="1"><g transform="translate(391.377327, 149.089171)"><g><path d="M 5.21875 0 L 5.015625 -0.953125 L 4.96875 -0.953125 C 4.625 -0.535156 4.285156 -0.25 3.953125 -0.09375 C 3.617188 0.0507812 3.207031 0.125 2.71875 0.125 C 2.050781 0.125 1.523438 -0.046875 1.140625 -0.390625 C 0.765625 -0.734375 0.578125 -1.222656 0.578125 -1.859375 C 0.578125 -3.210938 1.660156 -3.925781 3.828125 -4 L 4.96875 -4.03125 L 4.96875 -4.453125 C 4.96875 -4.972656 4.851562 -5.359375 4.625 -5.609375 C 4.40625 -5.867188 4.046875 -6 3.546875 -6 C 2.984375 -6 2.347656 -5.828125 1.640625 -5.484375 L 1.328125 -6.25 C 1.660156 -6.4375 2.023438 -6.578125 2.421875 -6.671875 C 2.816406 -6.773438 3.210938 -6.828125 3.609375 -6.828125 C 4.410156 -6.828125 5.003906 -6.648438 5.390625 -6.296875 C 5.773438 -5.941406 5.96875 -5.375 5.96875 -4.59375 L 5.96875 0 Z M 2.90625 -0.71875 C 3.539062 -0.71875 4.039062 -0.890625 4.40625 -1.234375 C 4.769531 -1.585938 4.953125 -2.078125 4.953125 -2.703125 L 4.953125 -3.3125 L 3.9375 -3.265625 C 3.125 -3.234375 2.535156 -3.101562 2.171875 -2.875 C 1.816406 -2.65625 1.640625 -2.3125 1.640625 -1.84375 C 1.640625 -1.476562 1.75 -1.195312 1.96875 -1 C 2.195312 -0.8125 2.507812 -0.71875 2.90625 -0.71875 Z M 2.90625 -0.71875 "/></g></g></g><g fill="#000000" fill-opacity="1"><g transform="translate(398.363718, 149.089171)"><g><path d="M 5.421875 -1.828125 C 5.421875 -1.203125 5.1875 -0.71875 4.71875 -0.375 C 4.25 -0.0390625 3.59375 0.125 2.75 0.125 C 1.863281 0.125 1.171875 -0.015625 0.671875 -0.296875 L 0.671875 -1.25 C 0.992188 -1.082031 1.335938 -0.953125 1.703125 -0.859375 C 2.078125 -0.765625 2.4375 -0.71875 2.78125 -0.71875 C 3.3125 -0.71875 3.71875 -0.800781 4 -0.96875 C 4.289062 -1.144531 4.4375 -1.40625 4.4375 -1.75 C 4.4375 -2.007812 4.320312 -2.234375 4.09375 -2.421875 C 3.863281 -2.609375 3.421875 -2.828125 2.765625 -3.078125 C 2.140625 -3.304688 1.691406 -3.507812 1.421875 -3.6875 C 1.160156 -3.863281 0.96875 -4.0625 0.84375 -4.28125 C 0.71875 -4.5 0.65625 -4.765625 0.65625 -5.078125 C 0.65625 -5.617188 0.875 -6.046875 1.3125 -6.359375 C 1.757812 -6.679688 2.375 -6.84375 3.15625 -6.84375 C 3.875 -6.84375 4.582031 -6.695312 5.28125 -6.40625 L 4.90625 -5.578125 C 4.238281 -5.859375 3.628906 -6 3.078125 -6 C 2.597656 -6 2.234375 -5.921875 1.984375 -5.765625 C 1.742188 -5.609375 1.625 -5.398438 1.625 -5.140625 C 1.625 -4.960938 1.664062 -4.804688 1.75 -4.671875 C 1.84375 -4.546875 1.992188 -4.425781 2.203125 -4.3125 C 2.410156 -4.195312 2.800781 -4.035156 3.375 -3.828125 C 4.175781 -3.535156 4.71875 -3.238281 5 -2.9375 C 5.28125 -2.644531 5.421875 -2.273438 5.421875 -1.828125 Z M 5.421875 -1.828125 "/></g></g></g><g fill="#000000" fill-opacity="1"><g transform="translate(404.356434, 149.089171)"><g><path d="M 3.921875 0.125 C 2.921875 0.125 2.132812 -0.175781 1.5625 -0.78125 C 0.988281 -1.382812 0.703125 -2.226562 0.703125 -3.3125 C 0.703125 -4.394531 0.96875 -5.253906 1.5 -5.890625 C 2.039062 -6.523438 2.757812 -6.84375 3.65625 -6.84375 C 4.5 -6.84375 5.164062 -6.566406 5.65625 -6.015625 C 6.144531 -5.460938 6.390625 -4.734375 6.390625 -3.828125 L 6.390625 -3.171875 L 1.765625 -3.171875 C 1.785156 -2.390625 1.984375 -1.789062 2.359375 -1.375 C 2.734375 -0.96875 3.265625 -0.765625 3.953125 -0.765625 C 4.679688 -0.765625 5.398438 -0.914062 6.109375 -1.21875 L 6.109375 -0.3125 C 5.742188 -0.15625 5.398438 -0.046875 5.078125 0.015625 C 4.753906 0.0859375 4.367188 0.125 3.921875 0.125 Z M 3.640625 -6 C 3.097656 -6 2.664062 -5.820312 2.34375 -5.46875 C 2.03125 -5.113281 1.84375 -4.625 1.78125 -4 L 5.296875 -4 C 5.296875 -4.644531 5.148438 -5.140625 4.859375 -5.484375 C 4.578125 -5.828125 4.171875 -6 3.640625 -6 Z M 3.640625 -6 "/></g></g></g><g fill="#000000" fill-opacity="1"><g transform="translate(411.404163, 149.089171)"><g><path d="M 3.25 -0.71875 C 3.425781 -0.71875 3.597656 -0.726562 3.765625 -0.75 C 3.941406 -0.78125 4.078125 -0.8125 4.171875 -0.84375 L 4.171875 -0.0625 C 4.054688 -0.0078125 3.890625 0.03125 3.671875 0.0625 C 3.460938 0.101562 3.273438 0.125 3.109375 0.125 C 1.804688 0.125 1.15625 -0.5625 1.15625 -1.9375 L 1.15625 -5.9375 L 0.1875 -5.9375 L 0.1875 -6.421875 L 1.15625 -6.84375 L 1.578125 -8.28125 L 2.171875 -8.28125 L 2.171875 -6.71875 L 4.125 -6.71875 L 4.125 -5.9375 L 2.171875 -5.9375 L 2.171875 -1.96875 C 2.171875 -1.570312 2.265625 -1.265625 2.453125 -1.046875 C 2.648438 -0.828125 2.914062 -0.71875 3.25 -0.71875 Z M 3.25 -0.71875 "/></g></g></g><path stroke-linecap="butt" transform="matrix(0, 0.748574, -0.748574, 0, 373.613661, 177.768214)" fill="none" stroke-linejoin="miter" d="M 0.0017591 1.498146 L 66.461444 1.498146 " stroke="#000000" stroke-width="3" stroke-opacity="1" stroke-miterlimit="4"/><path stroke-linecap="round" transform="matrix(0, 0.748574, -0.748574, 0, 373.613661, 177.768214)" fill="none" stroke-linejoin="round" d="M 60.46567 -2.999989 L 66.461444 1.498146 L 60.46567 6.0015 " stroke="#000000" stroke-width="3" stroke-opacity="1" stroke-miterlimit="4"/></svg>