<svg xmlns="http://www.w3.org/2000/svg" xmlns:xlink="http://www.w3.org/1999/xlink" width="1000" zoomAndPan="magnify" viewBox="0 0 750 525.000007" height="700" preserveAspectRatio="xMidYMid meet" version="1.0"><defs><g/><clipPath id="c16053ba72"><path d="M 293.679688 215.949219 L 449.695312 215.949219 L 449.695312 309.265625 L 293.679688 309.265625 Z M 293.679688 215.949219 " clip-rule="nonzero"/></clipPath><clipPath id="8762f5a194"><path d="M 318.304688 215.949219 L 424.777344 215.949219 C 431.308594 215.949219 437.574219 218.542969 442.191406 223.160156 C 446.808594 227.78125 449.40625 234.042969 449.40625 240.578125 L 449.40625 284.640625 C 449.40625 291.171875 446.808594 297.433594 442.191406 302.054688 C 437.574219 306.671875 431.308594 309.265625 424.777344 309.265625 L 318.304688 309.265625 C 311.773438 309.265625 305.511719 306.671875 300.890625 302.054688 C 296.273438 297.433594 293.679688 291.171875 293.679688 284.640625 L 293.679688 240.578125 C 293.679688 234.042969 296.273438 227.78125 300.890625 223.160156 C 305.511719 218.542969 311.773438 215.949219 318.304688 215.949219 Z M 318.304688 215.949219 " clip-rule="nonzero"/></clipPath><clipPath id="6c81d2e1ae"><path d="M 85.660156 378.285156 L 241.679688 378.285156 L 241.679688 471.601562 L 85.660156 471.601562 Z M 85.660156 378.285156 " clip-rule="nonzero"/></clipPath><clipPath id="b3ce93d6d9"><path d="M 110.289062 378.285156 L 216.761719 378.285156 C 223.292969 378.285156 229.554688 380.878906 234.175781 385.496094 C 238.792969 390.117188 241.386719 396.378906 241.386719 402.910156 L 241.386719 446.972656 C 241.386719 453.503906 238.792969 459.769531 234.175781 464.386719 C 229.554688 469.007812 223.292969 471.601562 216.761719 471.601562 L 110.289062 471.601562 C 103.757812 471.601562 97.492188 469.007812 92.875 464.386719 C 88.257812 459.769531 85.660156 453.503906 85.660156 446.972656 L 85.660156 402.910156 C 85.660156 396.378906 88.257812 390.117188 92.875 385.496094 C 97.492188 380.878906 103.757812 378.285156 110.289062 378.285156 Z M 110.289062 378.285156 " clip-rule="nonzero"/></clipPath><clipPath id="51c7222178"><path d="M 293.679688 378.285156 L 449.695312 378.285156 L 449.695312 471.601562 L 293.679688 471.601562 Z M 293.679688 378.285156 " clip-rule="nonzero"/></clipPath><clipPath id="d25683a2ab"><path d="M 318.304688 378.285156 L 424.777344 378.285156 C 431.308594 378.285156 437.574219 380.878906 442.191406 385.496094 C 446.808594 390.117188 449.40625 396.378906 449.40625 402.910156 L 449.40625 446.972656 C 449.40625 453.503906 446.808594 459.769531 442.191406 464.386719 C 437.574219 469.007812 431.308594 471.601562 424.777344 471.601562 L 318.304688 471.601562 C 311.773438 471.601562 305.511719 469.007812 300.890625 464.386719 C 296.273438 459.769531 293.679688 453.503906 293.679688 446.972656 L 293.679688 402.910156 C 293.679688 396.378906 296.273438 390.117188 300.890625 385.496094 C 305.511719 380.878906 311.773438 378.285156 318.304688 378.285156 Z M 318.304688 378.285156 " clip-rule="nonzero"/></clipPath><clipPath id="de1386eb92"><path d="M 501.6875 378.285156 L 657.703125 378.285156 L 657.703125 471.601562 L 501.6875 471.601562 Z M 501.6875 378.285156 " clip-rule="nonzero"/></clipPath><clipPath id="00b2606dd2"><path d="M 526.316406 378.285156 L 632.785156 378.285156 C 639.316406 378.285156 645.582031 380.878906 650.199219 385.496094 C 654.820312 390.117188 657.414062 396.378906 657.414062 402.910156 L 657.414062 446.972656 C 657.414062 453.503906 654.820312 459.769531 650.199219 464.386719 C 645.582031 469.007812 639.316406 471.601562 632.785156 471.601562 L 526.316406 471.601562 C 519.785156 471.601562 513.519531 469.007812 508.902344 464.386719 C 504.28125 459.769531 501.6875 453.503906 501.6875 446.972656 L 501.6875 402.910156 C 501.6875 396.378906 504.28125 390.117188 508.902344 385.496094 C 513.519531 380.878906 519.785156 378.285156 526.316406 378.285156 Z M 526.316406 378.285156 " clip-rule="nonzero"/></clipPath><clipPath id="5a877ea5a0"><path d="M 293.679688 52.398438 L 449.695312 52.398438 L 449.695312 145.71875 L 293.679688 145.71875 Z M 293.679688 52.398438 " clip-rule="nonzero"/></clipPath><clipPath id="24f4b47ab3"><path d="M 318.304688 52.398438 L 424.777344 52.398438 C 431.308594 52.398438 437.574219 54.996094 442.191406 59.613281 C 446.808594 64.230469 449.40625 70.496094 449.40625 77.027344 L 449.40625 121.089844 C 449.40625 127.621094 446.808594 133.886719 442.191406 138.503906 C 437.574219 143.125 431.308594 145.71875 424.777344 145.71875 L 318.304688 145.71875 C 311.773438 145.71875 305.511719 143.125 300.890625 138.503906 C 296.273438 133.886719 293.679688 127.621094 293.679688 121.089844 L 293.679688 77.027344 C 293.679688 70.496094 296.273438 64.230469 300.890625 59.613281 C 305.511719 54.996094 311.773438 52.398438 318.304688 52.398438 Z M 318.304688 52.398438 " clip-rule="nonzero"/></clipPath></defs><g clip-path="url(#c16053ba72)"><g clip-path="url(#8762f5a194)"><path fill="#ffde59" d="M 293.679688 215.949219 L 449.332031 215.949219 L 449.332031 309.265625 L 293.679688 309.265625 Z M 293.679688 215.949219 " fill-opacity="1" fill-rule="nonzero"/></g></g><g fill="#000000" fill-opacity="1"><g transform="translate(341.329734, 267.600195)"><g><path d="M 5.078125 -8.171875 C 4.085938 -8.171875 3.304688 -7.84375 2.734375 -7.1875 C 2.171875 -6.53125 1.890625 -5.628906 1.890625 -4.484375 C 1.890625 -3.304688 2.160156 -2.394531 2.703125 -1.75 C 3.253906 -1.113281 4.039062 -0.796875 5.0625 -0.796875 C 5.6875 -0.796875 6.398438 -0.910156 7.203125 -1.140625 L 7.203125 -0.234375 C 6.578125 0.00390625 5.8125 0.125 4.90625 0.125 C 3.582031 0.125 2.5625 -0.273438 1.84375 -1.078125 C 1.125 -1.878906 0.765625 -3.019531 0.765625 -4.5 C 0.765625 -5.414062 0.9375 -6.222656 1.28125 -6.921875 C 1.625 -7.617188 2.125 -8.15625 2.78125 -8.53125 C 3.4375 -8.90625 4.203125 -9.09375 5.078125 -9.09375 C 6.023438 -9.09375 6.847656 -8.921875 7.546875 -8.578125 L 7.109375 -7.6875 C 6.429688 -8.007812 5.753906 -8.171875 5.078125 -8.171875 Z M 5.078125 -8.171875 "/></g></g></g><g fill="#000000" fill-opacity="1"><g transform="translate(349.254595, 267.600195)"><g><path d="M 5.6875 0 L 5.6875 -4.34375 C 5.6875 -4.894531 5.5625 -5.304688 5.3125 -5.578125 C 5.0625 -5.847656 4.671875 -5.984375 4.140625 -5.984375 C 3.429688 -5.984375 2.910156 -5.789062 2.578125 -5.40625 C 2.253906 -5.019531 2.09375 -4.390625 2.09375 -3.515625 L 2.09375 0 L 1.078125 0 L 1.078125 -9.546875 L 2.09375 -9.546875 L 2.09375 -6.65625 C 2.09375 -6.3125 2.078125 -6.023438 2.046875 -5.796875 L 2.109375 -5.796875 C 2.304688 -6.117188 2.585938 -6.367188 2.953125 -6.546875 C 3.328125 -6.734375 3.753906 -6.828125 4.234375 -6.828125 C 5.054688 -6.828125 5.671875 -6.628906 6.078125 -6.234375 C 6.492188 -5.847656 6.703125 -5.234375 6.703125 -4.390625 L 6.703125 0 Z M 5.6875 0 "/></g></g></g><g fill="#000000" fill-opacity="1"><g transform="translate(356.964774, 267.600195)"><g><path d="M 3.921875 0.125 C 2.921875 0.125 2.132812 -0.175781 1.5625 -0.78125 C 0.988281 -1.382812 0.703125 -2.226562 0.703125 -3.3125 C 0.703125 -4.394531 0.96875 -5.253906 1.5 -5.890625 C 2.039062 -6.523438 2.757812 -6.84375 3.65625 -6.84375 C 4.5 -6.84375 5.164062 -6.566406 5.65625 -6.015625 C 6.144531 -5.460938 6.390625 -4.734375 6.390625 -3.828125 L 6.390625 -3.171875 L 1.765625 -3.171875 C 1.785156 -2.390625 1.984375 -1.789062 2.359375 -1.375 C 2.734375 -0.96875 3.265625 -0.765625 3.953125 -0.765625 C 4.679688 -0.765625 5.398438 -0.914062 6.109375 -1.21875 L 6.109375 -0.3125 C 5.742188 -0.15625 5.398438 -0.046875 5.078125 0.015625 C 4.753906 0.0859375 4.367188 0.125 3.921875 0.125 Z M 3.640625 -6 C 3.097656 -6 2.664062 -5.820312 2.34375 -5.46875 C 2.03125 -5.113281 1.84375 -4.625 1.78125 -4 L 5.296875 -4 C 5.296875 -4.644531 5.148438 -5.140625 4.859375 -5.484375 C 4.578125 -5.828125 4.171875 -6 3.640625 -6 Z M 3.640625 -6 "/></g></g></g><g fill="#000000" fill-opacity="1"><g transform="translate(364.012503, 267.600195)"><g><path d="M 3.765625 0.125 C 2.796875 0.125 2.039062 -0.171875 1.5 -0.765625 C 0.96875 -1.367188 0.703125 -2.21875 0.703125 -3.3125 C 0.703125 -4.4375 0.972656 -5.304688 1.515625 -5.921875 C 2.054688 -6.535156 2.828125 -6.84375 3.828125 -6.84375 C 4.148438 -6.84375 4.472656 -6.804688 4.796875 -6.734375 C 5.117188 -6.671875 5.375 -6.59375 5.5625 -6.5 L 5.25 -5.625 C 5.019531 -5.71875 4.769531 -5.789062 4.5 -5.84375 C 4.238281 -5.90625 4.007812 -5.9375 3.8125 -5.9375 C 2.445312 -5.9375 1.765625 -5.066406 1.765625 -3.328125 C 1.765625 -2.503906 1.929688 -1.867188 2.265625 -1.421875 C 2.597656 -0.984375 3.085938 -0.765625 3.734375 -0.765625 C 4.296875 -0.765625 4.875 -0.882812 5.46875 -1.125 L 5.46875 -0.234375 C 5.019531 0.00390625 4.453125 0.125 3.765625 0.125 Z M 3.765625 0.125 "/></g></g></g><g fill="#000000" fill-opacity="1"><g transform="translate(369.992952, 267.600195)"><g><path d="M 2.078125 -3.4375 C 2.253906 -3.6875 2.523438 -4.015625 2.890625 -4.421875 L 5.0625 -6.71875 L 6.265625 -6.71875 L 3.546875 -3.859375 L 6.453125 0 L 5.21875 0 L 2.859375 -3.171875 L 2.078125 -2.515625 L 2.078125 0 L 1.078125 0 L 1.078125 -9.546875 L 2.078125 -9.546875 L 2.078125 -4.484375 C 2.078125 -4.253906 2.0625 -3.90625 2.03125 -3.4375 Z M 2.078125 -3.4375 "/></g></g></g><g fill="#000000" fill-opacity="1"><g transform="translate(376.58678, 267.600195)"><g/></g></g><g fill="#000000" fill-opacity="1"><g transform="translate(379.849958, 267.600195)"><g><path d="M 6.875 0 L 5.75 -2.859375 L 2.15625 -2.859375 L 1.0625 0 L 0 0 L 3.546875 -9 L 4.421875 -9 L 7.953125 0 Z M 5.421875 -3.796875 L 4.390625 -6.5625 C 4.253906 -6.914062 4.113281 -7.347656 3.96875 -7.859375 C 3.875 -7.472656 3.742188 -7.039062 3.578125 -6.5625 L 2.53125 -3.796875 Z M 5.421875 -3.796875 "/></g></g></g><g fill="#000000" fill-opacity="1"><g transform="translate(387.799355, 267.600195)"><g><path d="M 6.578125 -6.71875 L 6.578125 -6.078125 L 5.34375 -5.9375 C 5.457031 -5.789062 5.554688 -5.601562 5.640625 -5.375 C 5.734375 -5.144531 5.78125 -4.882812 5.78125 -4.59375 C 5.78125 -3.925781 5.550781 -3.394531 5.09375 -3 C 4.644531 -2.613281 4.03125 -2.421875 3.25 -2.421875 C 3.050781 -2.421875 2.863281 -2.4375 2.6875 -2.46875 C 2.25 -2.238281 2.03125 -1.953125 2.03125 -1.609375 C 2.03125 -1.421875 2.101562 -1.28125 2.25 -1.1875 C 2.40625 -1.101562 2.671875 -1.0625 3.046875 -1.0625 L 4.234375 -1.0625 C 4.960938 -1.0625 5.519531 -0.90625 5.90625 -0.59375 C 6.300781 -0.289062 6.5 0.148438 6.5 0.734375 C 6.5 1.472656 6.195312 2.035156 5.59375 2.421875 C 5 2.816406 4.128906 3.015625 2.984375 3.015625 C 2.109375 3.015625 1.429688 2.847656 0.953125 2.515625 C 0.472656 2.191406 0.234375 1.734375 0.234375 1.140625 C 0.234375 0.734375 0.363281 0.378906 0.625 0.078125 C 0.894531 -0.222656 1.265625 -0.425781 1.734375 -0.53125 C 1.566406 -0.601562 1.421875 -0.722656 1.296875 -0.890625 C 1.179688 -1.054688 1.125 -1.242188 1.125 -1.453125 C 1.125 -1.703125 1.1875 -1.914062 1.3125 -2.09375 C 1.445312 -2.28125 1.65625 -2.460938 1.9375 -2.640625 C 1.59375 -2.785156 1.3125 -3.03125 1.09375 -3.375 C 0.875 -3.71875 0.765625 -4.109375 0.765625 -4.546875 C 0.765625 -5.285156 0.984375 -5.851562 1.421875 -6.25 C 1.867188 -6.644531 2.5 -6.84375 3.3125 -6.84375 C 3.65625 -6.84375 3.96875 -6.800781 4.25 -6.71875 Z M 1.21875 1.125 C 1.21875 1.488281 1.367188 1.765625 1.671875 1.953125 C 1.984375 2.140625 2.425781 2.234375 3 2.234375 C 3.851562 2.234375 4.484375 2.101562 4.890625 1.84375 C 5.304688 1.59375 5.515625 1.25 5.515625 0.8125 C 5.515625 0.445312 5.398438 0.191406 5.171875 0.046875 C 4.953125 -0.0859375 4.53125 -0.15625 3.90625 -0.15625 L 2.6875 -0.15625 C 2.226562 -0.15625 1.867188 -0.046875 1.609375 0.171875 C 1.347656 0.398438 1.21875 0.71875 1.21875 1.125 Z M 1.765625 -4.5625 C 1.765625 -4.09375 1.894531 -3.738281 2.15625 -3.5 C 2.425781 -3.257812 2.800781 -3.140625 3.28125 -3.140625 C 4.269531 -3.140625 4.765625 -3.625 4.765625 -4.59375 C 4.765625 -5.601562 4.265625 -6.109375 3.265625 -6.109375 C 2.785156 -6.109375 2.414062 -5.976562 2.15625 -5.71875 C 1.894531 -5.457031 1.765625 -5.070312 1.765625 -4.5625 Z M 1.765625 -4.5625 "/></g></g></g><g fill="#000000" fill-opacity="1"><g transform="translate(394.681472, 267.600195)"><g><path d="M 3.921875 0.125 C 2.921875 0.125 2.132812 -0.175781 1.5625 -0.78125 C 0.988281 -1.382812 0.703125 -2.226562 0.703125 -3.3125 C 0.703125 -4.394531 0.96875 -5.253906 1.5 -5.890625 C 2.039062 -6.523438 2.757812 -6.84375 3.65625 -6.84375 C 4.5 -6.84375 5.164062 -6.566406 5.65625 -6.015625 C 6.144531 -5.460938 6.390625 -4.734375 6.390625 -3.828125 L 6.390625 -3.171875 L 1.765625 -3.171875 C 1.785156 -2.390625 1.984375 -1.789062 2.359375 -1.375 C 2.734375 -0.96875 3.265625 -0.765625 3.953125 -0.765625 C 4.679688 -0.765625 5.398438 -0.914062 6.109375 -1.21875 L 6.109375 -0.3125 C 5.742188 -0.15625 5.398438 -0.046875 5.078125 0.015625 C 4.753906 0.0859375 4.367188 0.125 3.921875 0.125 Z M 3.640625 -6 C 3.097656 -6 2.664062 -5.820312 2.34375 -5.46875 C 2.03125 -5.113281 1.84375 -4.625 1.78125 -4 L 5.296875 -4 C 5.296875 -4.644531 5.148438 -5.140625 4.859375 -5.484375 C 4.578125 -5.828125 4.171875 -6 3.640625 -6 Z M 3.640625 -6 "/></g></g></g><path stroke-linecap="butt" transform="matrix(-0.710489, 0.235729, -0.235729, -0.710489, 372.120607, 311.044732)" fill="none" stroke-linejoin="miter" d="M 0.000474695 2.498718 L 290.281506 2.501196 " stroke="#000000" stroke-width="5" stroke-opacity="1" stroke-miterlimit="4"/><path stroke-linecap="round" transform="matrix(-0.710489, 0.235729, -0.235729, -0.710489, 372.120607, 311.044732)" fill="none" stroke-linejoin="round" d="M 280.279326 -5.001317 L 290.281506 2.501196 L 280.277162 10.001927 " stroke="#000000" stroke-width="5" stroke-opacity="1" stroke-miterlimit="4"/><path stroke-linecap="butt" transform="matrix(0, 0.748574, -0.748574, 0, 373.409294, 309.270554)" fill="none" stroke-linejoin="miter" d="M -0.00136633 2.498392 L 89.695204 2.498392 " stroke="#000000" stroke-width="5" stroke-opacity="1" stroke-miterlimit="4"/><path stroke-linecap="round" transform="matrix(0, 0.748574, -0.748574, 0, 373.409294, 309.270554)" fill="none" stroke-linejoin="round" d="M 79.697029 -5.000239 L 89.695204 2.498392 L 79.697029 10.002242 " stroke="#000000" stroke-width="5" stroke-opacity="1" stroke-miterlimit="4"/><path stroke-linecap="butt" transform="matrix(0.710487, 0.235737, -0.235737, 0.710487, 372.130782, 307.491111)" fill="none" stroke-linejoin="miter" d="M 0.00122164 2.497198 L 290.269039 2.501243 " stroke="#000000" stroke-width="5" stroke-opacity="1" stroke-miterlimit="4"/><path stroke-linecap="round" transform="matrix(0.710487, 0.235737, -0.235737, 0.710487, 372.130782, 307.491111)" fill="none" stroke-linejoin="round" d="M 280.269561 -5.001015 L 290.269039 2.501243 L 280.270255 9.997276 " stroke="#000000" stroke-width="5" stroke-opacity="1" stroke-miterlimit="4"/><g clip-path="url(#6c81d2e1ae)"><g clip-path="url(#b3ce93d6d9)"><path fill="#00bf63" d="M 85.660156 378.285156 L 241.3125 378.285156 L 241.3125 471.601562 L 85.660156 471.601562 Z M 85.660156 378.285156 " fill-opacity="1" fill-rule="nonzero"/></g></g><g fill="#000000" fill-opacity="1"><g transform="translate(138.389171, 429.93503)"><g><path d="M 6.296875 -2.390625 C 6.296875 -1.597656 6.007812 -0.976562 5.4375 -0.53125 C 4.863281 -0.09375 4.085938 0.125 3.109375 0.125 C 2.046875 0.125 1.226562 -0.0078125 0.65625 -0.28125 L 0.65625 -1.296875 C 1.019531 -1.140625 1.414062 -1.015625 1.84375 -0.921875 C 2.28125 -0.835938 2.710938 -0.796875 3.140625 -0.796875 C 3.835938 -0.796875 4.359375 -0.925781 4.703125 -1.1875 C 5.054688 -1.445312 5.234375 -1.8125 5.234375 -2.28125 C 5.234375 -2.59375 5.171875 -2.847656 5.046875 -3.046875 C 4.921875 -3.242188 4.710938 -3.425781 4.421875 -3.59375 C 4.128906 -3.769531 3.6875 -3.960938 3.09375 -4.171875 C 2.257812 -4.472656 1.660156 -4.828125 1.296875 -5.234375 C 0.941406 -5.640625 0.765625 -6.171875 0.765625 -6.828125 C 0.765625 -7.523438 1.023438 -8.078125 1.546875 -8.484375 C 2.066406 -8.890625 2.753906 -9.09375 3.609375 -9.09375 C 4.492188 -9.09375 5.3125 -8.929688 6.0625 -8.609375 L 5.734375 -7.703125 C 4.992188 -8.015625 4.273438 -8.171875 3.578125 -8.171875 C 3.023438 -8.171875 2.59375 -8.050781 2.28125 -7.8125 C 1.976562 -7.570312 1.828125 -7.242188 1.828125 -6.828125 C 1.828125 -6.515625 1.882812 -6.257812 2 -6.0625 C 2.113281 -5.863281 2.304688 -5.679688 2.578125 -5.515625 C 2.847656 -5.347656 3.265625 -5.164062 3.828125 -4.96875 C 4.765625 -4.625 5.410156 -4.257812 5.765625 -3.875 C 6.117188 -3.5 6.296875 -3.003906 6.296875 -2.390625 Z M 6.296875 -2.390625 "/></g></g></g><g fill="#000000" fill-opacity="1"><g transform="translate(145.283555, 429.93503)"><g><path d="M 2.03125 -6.71875 L 2.03125 -2.359375 C 2.03125 -1.816406 2.15625 -1.410156 2.40625 -1.140625 C 2.65625 -0.867188 3.046875 -0.734375 3.578125 -0.734375 C 4.285156 -0.734375 4.800781 -0.925781 5.125 -1.3125 C 5.445312 -1.695312 5.609375 -2.320312 5.609375 -3.1875 L 5.609375 -6.71875 L 6.625 -6.71875 L 6.625 0 L 5.796875 0 L 5.640625 -0.90625 L 5.59375 -0.90625 C 5.382812 -0.570312 5.09375 -0.316406 4.71875 -0.140625 C 4.351562 0.0351562 3.929688 0.125 3.453125 0.125 C 2.640625 0.125 2.023438 -0.0664062 1.609375 -0.453125 C 1.203125 -0.847656 1 -1.472656 1 -2.328125 L 1 -6.71875 Z M 2.03125 -6.71875 "/></g></g></g><g fill="#000000" fill-opacity="1"><g transform="translate(152.993733, 429.93503)"><g><path d="M 4.140625 -6.84375 C 4.441406 -6.84375 4.710938 -6.816406 4.953125 -6.765625 L 4.8125 -5.828125 C 4.53125 -5.890625 4.285156 -5.921875 4.078125 -5.921875 C 3.523438 -5.921875 3.054688 -5.695312 2.671875 -5.25 C 2.285156 -4.8125 2.09375 -4.265625 2.09375 -3.609375 L 2.09375 0 L 1.078125 0 L 1.078125 -6.71875 L 1.921875 -6.71875 L 2.03125 -5.484375 L 2.078125 -5.484375 C 2.328125 -5.921875 2.628906 -6.253906 2.984375 -6.484375 C 3.335938 -6.722656 3.722656 -6.84375 4.140625 -6.84375 Z M 4.140625 -6.84375 "/></g></g></g><g fill="#000000" fill-opacity="1"><g transform="translate(158.121585, 429.93503)"><g><path d="M 2.546875 0 L 0 -6.71875 L 1.09375 -6.71875 L 2.546875 -2.734375 C 2.867188 -1.804688 3.054688 -1.203125 3.109375 -0.921875 L 3.171875 -0.921875 C 3.210938 -1.140625 3.351562 -1.585938 3.59375 -2.265625 C 3.832031 -2.941406 4.367188 -4.425781 5.203125 -6.71875 L 6.296875 -6.71875 L 3.734375 0 Z M 2.546875 0 "/></g></g></g><g fill="#000000" fill-opacity="1"><g transform="translate(164.414857, 429.93503)"><g><path d="M 2.09375 0 L 1.078125 0 L 1.078125 -6.71875 L 2.09375 -6.71875 Z M 1 -8.546875 C 1 -8.773438 1.054688 -8.941406 1.171875 -9.046875 C 1.285156 -9.160156 1.425781 -9.21875 1.59375 -9.21875 C 1.757812 -9.21875 1.898438 -9.160156 2.015625 -9.046875 C 2.140625 -8.941406 2.203125 -8.773438 2.203125 -8.546875 C 2.203125 -8.316406 2.140625 -8.144531 2.015625 -8.03125 C 1.898438 -7.914062 1.757812 -7.859375 1.59375 -7.859375 C 1.425781 -7.859375 1.285156 -7.914062 1.171875 -8.03125 C 1.054688 -8.144531 1 -8.316406 1 -8.546875 Z M 1 -8.546875 "/></g></g></g><g fill="#000000" fill-opacity="1"><g transform="translate(167.592162, 429.93503)"><g><path d="M 2.546875 0 L 0 -6.71875 L 1.09375 -6.71875 L 2.546875 -2.734375 C 2.867188 -1.804688 3.054688 -1.203125 3.109375 -0.921875 L 3.171875 -0.921875 C 3.210938 -1.140625 3.351562 -1.585938 3.59375 -2.265625 C 3.832031 -2.941406 4.367188 -4.425781 5.203125 -6.71875 L 6.296875 -6.71875 L 3.734375 0 Z M 2.546875 0 "/></g></g></g><g fill="#000000" fill-opacity="1"><g transform="translate(173.885435, 429.93503)"><g><path d="M 3.921875 0.125 C 2.921875 0.125 2.132812 -0.175781 1.5625 -0.78125 C 0.988281 -1.382812 0.703125 -2.226562 0.703125 -3.3125 C 0.703125 -4.394531 0.96875 -5.253906 1.5 -5.890625 C 2.039062 -6.523438 2.757812 -6.84375 3.65625 -6.84375 C 4.5 -6.84375 5.164062 -6.566406 5.65625 -6.015625 C 6.144531 -5.460938 6.390625 -4.734375 6.390625 -3.828125 L 6.390625 -3.171875 L 1.765625 -3.171875 C 1.785156 -2.390625 1.984375 -1.789062 2.359375 -1.375 C 2.734375 -0.96875 3.265625 -0.765625 3.953125 -0.765625 C 4.679688 -0.765625 5.398438 -0.914062 6.109375 -1.21875 L 6.109375 -0.3125 C 5.742188 -0.15625 5.398438 -0.046875 5.078125 0.015625 C 4.753906 0.0859375 4.367188 0.125 3.921875 0.125 Z M 3.640625 -6 C 3.097656 -6 2.664062 -5.820312 2.34375 -5.46875 C 2.03125 -5.113281 1.84375 -4.625 1.78125 -4 L 5.296875 -4 C 5.296875 -4.644531 5.148438 -5.140625 4.859375 -5.484375 C 4.578125 -5.828125 4.171875 -6 3.640625 -6 Z M 3.640625 -6 "/></g></g></g><g fill="#000000" fill-opacity="1"><g transform="translate(180.933164, 429.93503)"><g><path d="M 5.65625 -0.90625 L 5.59375 -0.90625 C 5.125 -0.21875 4.421875 0.125 3.484375 0.125 C 2.609375 0.125 1.925781 -0.175781 1.4375 -0.78125 C 0.945312 -1.382812 0.703125 -2.238281 0.703125 -3.34375 C 0.703125 -4.445312 0.945312 -5.304688 1.4375 -5.921875 C 1.925781 -6.535156 2.609375 -6.84375 3.484375 -6.84375 C 4.398438 -6.84375 5.101562 -6.515625 5.59375 -5.859375 L 5.671875 -5.859375 L 5.625 -6.34375 L 5.59375 -6.8125 L 5.59375 -9.546875 L 6.625 -9.546875 L 6.625 0 L 5.796875 0 Z M 3.625 -0.734375 C 4.3125 -0.734375 4.8125 -0.921875 5.125 -1.296875 C 5.4375 -1.671875 5.59375 -2.28125 5.59375 -3.125 L 5.59375 -3.34375 C 5.59375 -4.289062 5.4375 -4.96875 5.125 -5.375 C 4.8125 -5.789062 4.304688 -6 3.609375 -6 C 3.015625 -6 2.554688 -5.765625 2.234375 -5.296875 C 1.921875 -4.828125 1.765625 -4.171875 1.765625 -3.328125 C 1.765625 -2.472656 1.921875 -1.828125 2.234375 -1.390625 C 2.546875 -0.953125 3.007812 -0.734375 3.625 -0.734375 Z M 3.625 -0.734375 "/></g></g></g><g clip-path="url(#51c7222178)"><g clip-path="url(#d25683a2ab)"><path fill="#00bf63" d="M 293.679688 378.285156 L 449.332031 378.285156 L 449.332031 471.601562 L 293.679688 471.601562 Z M 293.679688 378.285156 " fill-opacity="1" fill-rule="nonzero"/></g></g><g fill="#000000" fill-opacity="1"><g transform="translate(346.406002, 429.93503)"><g><path d="M 6.296875 -2.390625 C 6.296875 -1.597656 6.007812 -0.976562 5.4375 -0.53125 C 4.863281 -0.09375 4.085938 0.125 3.109375 0.125 C 2.046875 0.125 1.226562 -0.0078125 0.65625 -0.28125 L 0.65625 -1.296875 C 1.019531 -1.140625 1.414062 -1.015625 1.84375 -0.921875 C 2.28125 -0.835938 2.710938 -0.796875 3.140625 -0.796875 C 3.835938 -0.796875 4.359375 -0.925781 4.703125 -1.1875 C 5.054688 -1.445312 5.234375 -1.8125 5.234375 -2.28125 C 5.234375 -2.59375 5.171875 -2.847656 5.046875 -3.046875 C 4.921875 -3.242188 4.710938 -3.425781 4.421875 -3.59375 C 4.128906 -3.769531 3.6875 -3.960938 3.09375 -4.171875 C 2.257812 -4.472656 1.660156 -4.828125 1.296875 -5.234375 C 0.941406 -5.640625 0.765625 -6.171875 0.765625 -6.828125 C 0.765625 -7.523438 1.023438 -8.078125 1.546875 -8.484375 C 2.066406 -8.890625 2.753906 -9.09375 3.609375 -9.09375 C 4.492188 -9.09375 5.3125 -8.929688 6.0625 -8.609375 L 5.734375 -7.703125 C 4.992188 -8.015625 4.273438 -8.171875 3.578125 -8.171875 C 3.023438 -8.171875 2.59375 -8.050781 2.28125 -7.8125 C 1.976562 -7.570312 1.828125 -7.242188 1.828125 -6.828125 C 1.828125 -6.515625 1.882812 -6.257812 2 -6.0625 C 2.113281 -5.863281 2.304688 -5.679688 2.578125 -5.515625 C 2.847656 -5.347656 3.265625 -5.164062 3.828125 -4.96875 C 4.765625 -4.625 5.410156 -4.257812 5.765625 -3.875 C 6.117188 -3.5 6.296875 -3.003906 6.296875 -2.390625 Z M 6.296875 -2.390625 "/></g></g></g><g fill="#000000" fill-opacity="1"><g transform="translate(353.300386, 429.93503)"><g><path d="M 2.03125 -6.71875 L 2.03125 -2.359375 C 2.03125 -1.816406 2.15625 -1.410156 2.40625 -1.140625 C 2.65625 -0.867188 3.046875 -0.734375 3.578125 -0.734375 C 4.285156 -0.734375 4.800781 -0.925781 5.125 -1.3125 C 5.445312 -1.695312 5.609375 -2.320312 5.609375 -3.1875 L 5.609375 -6.71875 L 6.625 -6.71875 L 6.625 0 L 5.796875 0 L 5.640625 -0.90625 L 5.59375 -0.90625 C 5.382812 -0.570312 5.09375 -0.316406 4.71875 -0.140625 C 4.351562 0.0351562 3.929688 0.125 3.453125 0.125 C 2.640625 0.125 2.023438 -0.0664062 1.609375 -0.453125 C 1.203125 -0.847656 1 -1.472656 1 -2.328125 L 1 -6.71875 Z M 2.03125 -6.71875 "/></g></g></g><g fill="#000000" fill-opacity="1"><g transform="translate(361.010565, 429.93503)"><g><path d="M 4.140625 -6.84375 C 4.441406 -6.84375 4.710938 -6.816406 4.953125 -6.765625 L 4.8125 -5.828125 C 4.53125 -5.890625 4.285156 -5.921875 4.078125 -5.921875 C 3.523438 -5.921875 3.054688 -5.695312 2.671875 -5.25 C 2.285156 -4.8125 2.09375 -4.265625 2.09375 -3.609375 L 2.09375 0 L 1.078125 0 L 1.078125 -6.71875 L 1.921875 -6.71875 L 2.03125 -5.484375 L 2.078125 -5.484375 C 2.328125 -5.921875 2.628906 -6.253906 2.984375 -6.484375 C 3.335938 -6.722656 3.722656 -6.84375 4.140625 -6.84375 Z M 4.140625 -6.84375 "/></g></g></g><g fill="#000000" fill-opacity="1"><g transform="translate(366.138416, 429.93503)"><g><path d="M 2.546875 0 L 0 -6.71875 L 1.09375 -6.71875 L 2.546875 -2.734375 C 2.867188 -1.804688 3.054688 -1.203125 3.109375 -0.921875 L 3.171875 -0.921875 C 3.210938 -1.140625 3.351562 -1.585938 3.59375 -2.265625 C 3.832031 -2.941406 4.367188 -4.425781 5.203125 -6.71875 L 6.296875 -6.71875 L 3.734375 0 Z M 2.546875 0 "/></g></g></g><g fill="#000000" fill-opacity="1"><g transform="translate(372.431689, 429.93503)"><g><path d="M 2.09375 0 L 1.078125 0 L 1.078125 -6.71875 L 2.09375 -6.71875 Z M 1 -8.546875 C 1 -8.773438 1.054688 -8.941406 1.171875 -9.046875 C 1.285156 -9.160156 1.425781 -9.21875 1.59375 -9.21875 C 1.757812 -9.21875 1.898438 -9.160156 2.015625 -9.046875 C 2.140625 -8.941406 2.203125 -8.773438 2.203125 -8.546875 C 2.203125 -8.316406 2.140625 -8.144531 2.015625 -8.03125 C 1.898438 -7.914062 1.757812 -7.859375 1.59375 -7.859375 C 1.425781 -7.859375 1.285156 -7.914062 1.171875 -8.03125 C 1.054688 -8.144531 1 -8.316406 1 -8.546875 Z M 1 -8.546875 "/></g></g></g><g fill="#000000" fill-opacity="1"><g transform="translate(375.608994, 429.93503)"><g><path d="M 2.546875 0 L 0 -6.71875 L 1.09375 -6.71875 L 2.546875 -2.734375 C 2.867188 -1.804688 3.054688 -1.203125 3.109375 -0.921875 L 3.171875 -0.921875 C 3.210938 -1.140625 3.351562 -1.585938 3.59375 -2.265625 C 3.832031 -2.941406 4.367188 -4.425781 5.203125 -6.71875 L 6.296875 -6.71875 L 3.734375 0 Z M 2.546875 0 "/></g></g></g><g fill="#000000" fill-opacity="1"><g transform="translate(381.902266, 429.93503)"><g><path d="M 3.921875 0.125 C 2.921875 0.125 2.132812 -0.175781 1.5625 -0.78125 C 0.988281 -1.382812 0.703125 -2.226562 0.703125 -3.3125 C 0.703125 -4.394531 0.96875 -5.253906 1.5 -5.890625 C 2.039062 -6.523438 2.757812 -6.84375 3.65625 -6.84375 C 4.5 -6.84375 5.164062 -6.566406 5.65625 -6.015625 C 6.144531 -5.460938 6.390625 -4.734375 6.390625 -3.828125 L 6.390625 -3.171875 L 1.765625 -3.171875 C 1.785156 -2.390625 1.984375 -1.789062 2.359375 -1.375 C 2.734375 -0.96875 3.265625 -0.765625 3.953125 -0.765625 C 4.679688 -0.765625 5.398438 -0.914062 6.109375 -1.21875 L 6.109375 -0.3125 C 5.742188 -0.15625 5.398438 -0.046875 5.078125 0.015625 C 4.753906 0.0859375 4.367188 0.125 3.921875 0.125 Z M 3.640625 -6 C 3.097656 -6 2.664062 -5.820312 2.34375 -5.46875 C 2.03125 -5.113281 1.84375 -4.625 1.78125 -4 L 5.296875 -4 C 5.296875 -4.644531 5.148438 -5.140625 4.859375 -5.484375 C 4.578125 -5.828125 4.171875 -6 3.640625 -6 Z M 3.640625 -6 "/></g></g></g><g fill="#000000" fill-opacity="1"><g transform="translate(388.949995, 429.93503)"><g><path d="M 5.65625 -0.90625 L 5.59375 -0.90625 C 5.125 -0.21875 4.421875 0.125 3.484375 0.125 C 2.609375 0.125 1.925781 -0.175781 1.4375 -0.78125 C 0.945312 -1.382812 0.703125 -2.238281 0.703125 -3.34375 C 0.703125 -4.445312 0.945312 -5.304688 1.4375 -5.921875 C 1.925781 -6.535156 2.609375 -6.84375 3.484375 -6.84375 C 4.398438 -6.84375 5.101562 -6.515625 5.59375 -5.859375 L 5.671875 -5.859375 L 5.625 -6.34375 L 5.59375 -6.8125 L 5.59375 -9.546875 L 6.625 -9.546875 L 6.625 0 L 5.796875 0 Z M 3.625 -0.734375 C 4.3125 -0.734375 4.8125 -0.921875 5.125 -1.296875 C 5.4375 -1.671875 5.59375 -2.28125 5.59375 -3.125 L 5.59375 -3.34375 C 5.59375 -4.289062 5.4375 -4.96875 5.125 -5.375 C 4.8125 -5.789062 4.304688 -6 3.609375 -6 C 3.015625 -6 2.554688 -5.765625 2.234375 -5.296875 C 1.921875 -4.828125 1.765625 -4.171875 1.765625 -3.328125 C 1.765625 -2.472656 1.921875 -1.828125 2.234375 -1.390625 C 2.546875 -0.953125 3.007812 -0.734375 3.625 -0.734375 Z M 3.625 -0.734375 "/></g></g></g><g clip-path="url(#de1386eb92)"><g clip-path="url(#00b2606dd2)"><path fill="#ff3131" d="M 501.6875 378.285156 L 657.339844 378.285156 L 657.339844 471.601562 L 501.6875 471.601562 Z M 501.6875 378.285156 " fill-opacity="1" fill-rule="nonzero"/></g></g><g fill="#000000" fill-opacity="1"><g transform="translate(574.170117, 429.93503)"><g><path d="M 2.140625 -1.453125 L 2.234375 -1.3125 C 2.128906 -0.90625 1.976562 -0.429688 1.78125 0.109375 C 1.582031 0.648438 1.375 1.15625 1.15625 1.625 L 0.390625 1.625 C 0.492188 1.195312 0.613281 0.671875 0.75 0.046875 C 0.882812 -0.578125 0.976562 -1.078125 1.03125 -1.453125 Z M 0.90625 -6.0625 C 0.90625 -6.613281 1.144531 -6.890625 1.625 -6.890625 C 2.132812 -6.890625 2.390625 -6.613281 2.390625 -6.0625 C 2.390625 -5.800781 2.320312 -5.597656 2.1875 -5.453125 C 2.050781 -5.304688 1.863281 -5.234375 1.625 -5.234375 C 1.394531 -5.234375 1.21875 -5.304688 1.09375 -5.453125 C 0.96875 -5.597656 0.90625 -5.800781 0.90625 -6.0625 Z M 0.90625 -6.0625 "/></g></g></g><g fill="#000000" fill-opacity="1"><g transform="translate(577.513034, 429.93503)"><g><path d="M 0.515625 -2.90625 L 0.515625 -3.828125 L 3.53125 -3.828125 L 3.53125 -2.90625 Z M 0.515625 -2.90625 "/></g></g></g><g fill="#000000" fill-opacity="1"><g transform="translate(581.555204, 429.93503)"><g><path d="M 2.140625 -1.453125 L 2.234375 -1.3125 C 2.128906 -0.90625 1.976562 -0.429688 1.78125 0.109375 C 1.582031 0.648438 1.375 1.15625 1.15625 1.625 L 0.390625 1.625 C 0.492188 1.195312 0.613281 0.671875 0.75 0.046875 C 0.882812 -0.578125 0.976562 -1.078125 1.03125 -1.453125 Z M 0.90625 -6.0625 C 0.90625 -6.613281 1.144531 -6.890625 1.625 -6.890625 C 2.132812 -6.890625 2.390625 -6.613281 2.390625 -6.0625 C 2.390625 -5.800781 2.320312 -5.597656 2.1875 -5.453125 C 2.050781 -5.304688 1.863281 -5.234375 1.625 -5.234375 C 1.394531 -5.234375 1.21875 -5.304688 1.09375 -5.453125 C 0.96875 -5.597656 0.90625 -5.800781 0.90625 -6.0625 Z M 0.90625 -6.0625 "/></g></g></g><g fill="#000000" fill-opacity="1"><g transform="translate(85.661481, 364.465118)"><g><path d="M 9.09375 0 L 7.625 -3.78125 L 2.859375 -3.78125 L 1.390625 0 L 0 0 L 4.703125 -11.921875 L 5.859375 -11.921875 L 10.53125 0 Z M 7.1875 -5.015625 L 5.8125 -8.703125 C 5.632812 -9.171875 5.445312 -9.742188 5.25 -10.421875 C 5.132812 -9.898438 4.96875 -9.328125 4.75 -8.703125 L 3.34375 -5.015625 Z M 7.1875 -5.015625 "/></g></g></g><g fill="#000000" fill-opacity="1"><g transform="translate(96.193419, 364.465118)"><g><path d="M 8.71875 -8.90625 L 8.71875 -8.046875 L 7.0625 -7.859375 C 7.21875 -7.671875 7.351562 -7.421875 7.46875 -7.109375 C 7.59375 -6.804688 7.65625 -6.460938 7.65625 -6.078125 C 7.65625 -5.203125 7.351562 -4.503906 6.75 -3.984375 C 6.15625 -3.460938 5.34375 -3.203125 4.3125 -3.203125 C 4.039062 -3.203125 3.789062 -3.226562 3.5625 -3.28125 C 2.988281 -2.96875 2.703125 -2.582031 2.703125 -2.125 C 2.703125 -1.882812 2.800781 -1.703125 3 -1.578125 C 3.195312 -1.460938 3.539062 -1.40625 4.03125 -1.40625 L 5.609375 -1.40625 C 6.566406 -1.40625 7.304688 -1.203125 7.828125 -0.796875 C 8.347656 -0.390625 8.609375 0.195312 8.609375 0.96875 C 8.609375 1.957031 8.210938 2.707031 7.421875 3.21875 C 6.628906 3.738281 5.472656 4 3.953125 4 C 2.785156 4 1.882812 3.78125 1.25 3.34375 C 0.625 2.914062 0.3125 2.304688 0.3125 1.515625 C 0.3125 0.972656 0.484375 0.503906 0.828125 0.109375 C 1.179688 -0.285156 1.671875 -0.554688 2.296875 -0.703125 C 2.066406 -0.804688 1.875 -0.960938 1.71875 -1.171875 C 1.570312 -1.390625 1.5 -1.644531 1.5 -1.9375 C 1.5 -2.257812 1.582031 -2.539062 1.75 -2.78125 C 1.925781 -3.03125 2.203125 -3.269531 2.578125 -3.5 C 2.117188 -3.6875 1.742188 -4.003906 1.453125 -4.453125 C 1.160156 -4.910156 1.015625 -5.429688 1.015625 -6.015625 C 1.015625 -6.992188 1.304688 -7.742188 1.890625 -8.265625 C 2.472656 -8.796875 3.300781 -9.0625 4.375 -9.0625 C 4.84375 -9.0625 5.265625 -9.007812 5.640625 -8.90625 Z M 1.609375 1.5 C 1.609375 1.976562 1.8125 2.34375 2.21875 2.59375 C 2.625 2.84375 3.207031 2.96875 3.96875 2.96875 C 5.101562 2.96875 5.941406 2.796875 6.484375 2.453125 C 7.023438 2.117188 7.296875 1.660156 7.296875 1.078125 C 7.296875 0.597656 7.144531 0.265625 6.84375 0.078125 C 6.550781 -0.109375 5.992188 -0.203125 5.171875 -0.203125 L 3.5625 -0.203125 C 2.945312 -0.203125 2.46875 -0.0546875 2.125 0.234375 C 1.78125 0.523438 1.609375 0.945312 1.609375 1.5 Z M 2.34375 -6.046875 C 2.34375 -5.429688 2.519531 -4.960938 2.875 -4.640625 C 3.226562 -4.316406 3.71875 -4.15625 4.34375 -4.15625 C 5.664062 -4.15625 6.328125 -4.796875 6.328125 -6.078125 C 6.328125 -7.410156 5.660156 -8.078125 4.328125 -8.078125 C 3.691406 -8.078125 3.203125 -7.90625 2.859375 -7.5625 C 2.515625 -7.226562 2.34375 -6.722656 2.34375 -6.046875 Z M 2.34375 -6.046875 "/></g></g></g><g fill="#000000" fill-opacity="1"><g transform="translate(105.311347, 364.465118)"><g><path d="M 5.1875 0.15625 C 3.875 0.15625 2.835938 -0.242188 2.078125 -1.046875 C 1.316406 -1.847656 0.9375 -2.957031 0.9375 -4.375 C 0.9375 -5.8125 1.289062 -6.953125 2 -7.796875 C 2.707031 -8.640625 3.65625 -9.0625 4.84375 -9.0625 C 5.957031 -9.0625 6.835938 -8.691406 7.484375 -7.953125 C 8.140625 -7.222656 8.46875 -6.257812 8.46875 -5.0625 L 8.46875 -4.203125 L 2.328125 -4.203125 C 2.359375 -3.160156 2.625 -2.367188 3.125 -1.828125 C 3.625 -1.285156 4.328125 -1.015625 5.234375 -1.015625 C 6.191406 -1.015625 7.140625 -1.210938 8.078125 -1.609375 L 8.078125 -0.421875 C 7.609375 -0.210938 7.160156 -0.0664062 6.734375 0.015625 C 6.304688 0.109375 5.789062 0.15625 5.1875 0.15625 Z M 4.828125 -7.9375 C 4.109375 -7.9375 3.535156 -7.703125 3.109375 -7.234375 C 2.691406 -6.773438 2.441406 -6.132812 2.359375 -5.3125 L 7.015625 -5.3125 C 7.015625 -6.15625 6.820312 -6.800781 6.4375 -7.25 C 6.0625 -7.707031 5.523438 -7.9375 4.828125 -7.9375 Z M 4.828125 -7.9375 "/></g></g></g><g fill="#000000" fill-opacity="1"><g transform="translate(114.648697, 364.465118)"><g/></g></g><g fill="#000000" fill-opacity="1"><g transform="translate(118.971993, 364.465118)"><g><path d="M 8.65625 -1.96875 L 0.84375 -5.390625 L 0.84375 -6.1875 L 8.65625 -10.078125 L 8.65625 -8.875 L 2.296875 -5.859375 L 8.65625 -3.1875 Z M 8.65625 -1.96875 "/></g></g></g><g fill="#000000" fill-opacity="1"><g transform="translate(128.488125, 364.465118)"><g><path d="M 0.96875 -6.96875 L 0.96875 -8.078125 L 8.53125 -8.078125 L 8.53125 -6.96875 Z M 0.96875 -3.640625 L 0.96875 -4.765625 L 8.53125 -4.765625 L 8.53125 -3.640625 Z M 0.96875 -3.640625 "/></g></g></g><g fill="#000000" fill-opacity="1"><g transform="translate(138.004258, 364.465118)"><g/></g></g><g fill="#000000" fill-opacity="1"><g transform="translate(142.327553, 364.465118)"><g><path d="M 5.8125 0 L 4.5 0 L 4.5 -8.46875 C 4.5 -9.164062 4.519531 -9.832031 4.5625 -10.46875 C 4.445312 -10.351562 4.316406 -10.234375 4.171875 -10.109375 C 4.035156 -9.984375 3.394531 -9.457031 2.25 -8.53125 L 1.53125 -9.453125 L 4.671875 -11.875 L 5.8125 -11.875 Z M 5.8125 0 "/></g></g></g><g fill="#000000" fill-opacity="1"><g transform="translate(151.843686, 364.465118)"><g><path d="M 8.6875 -5.953125 C 8.6875 -3.898438 8.363281 -2.367188 7.71875 -1.359375 C 7.070312 -0.347656 6.082031 0.15625 4.75 0.15625 C 3.46875 0.15625 2.492188 -0.359375 1.828125 -1.390625 C 1.160156 -2.429688 0.828125 -3.953125 0.828125 -5.953125 C 0.828125 -8.023438 1.148438 -9.5625 1.796875 -10.5625 C 2.441406 -11.5625 3.425781 -12.0625 4.75 -12.0625 C 6.03125 -12.0625 7.003906 -11.539062 7.671875 -10.5 C 8.347656 -9.457031 8.6875 -7.941406 8.6875 -5.953125 Z M 2.1875 -5.953125 C 2.1875 -4.222656 2.390625 -2.960938 2.796875 -2.171875 C 3.203125 -1.390625 3.851562 -1 4.75 -1 C 5.644531 -1 6.289062 -1.394531 6.6875 -2.1875 C 7.09375 -2.988281 7.296875 -4.242188 7.296875 -5.953125 C 7.296875 -7.660156 7.09375 -8.910156 6.6875 -9.703125 C 6.289062 -10.492188 5.644531 -10.890625 4.75 -10.890625 C 3.851562 -10.890625 3.203125 -10.5 2.796875 -9.71875 C 2.390625 -8.9375 2.1875 -7.679688 2.1875 -5.953125 Z M 2.1875 -5.953125 "/></g></g></g><g fill="#000000" fill-opacity="1"><g transform="translate(288.923171, 364.465118)"><g><path d="M 0.953125 -5.078125 C 0.953125 -7.410156 1.40625 -9.15625 2.3125 -10.3125 C 3.21875 -11.46875 4.5625 -12.046875 6.34375 -12.046875 C 6.945312 -12.046875 7.425781 -11.992188 7.78125 -11.890625 L 7.78125 -10.734375 C 7.363281 -10.867188 6.890625 -10.9375 6.359375 -10.9375 C 5.078125 -10.9375 4.097656 -10.539062 3.421875 -9.75 C 2.753906 -8.957031 2.390625 -7.707031 2.328125 -6 L 2.421875 -6 C 3.023438 -6.9375 3.96875 -7.40625 5.25 -7.40625 C 6.320312 -7.40625 7.164062 -7.082031 7.78125 -6.4375 C 8.394531 -5.789062 8.703125 -4.914062 8.703125 -3.8125 C 8.703125 -2.570312 8.363281 -1.597656 7.6875 -0.890625 C 7.007812 -0.191406 6.097656 0.15625 4.953125 0.15625 C 3.722656 0.15625 2.75 -0.300781 2.03125 -1.21875 C 1.3125 -2.144531 0.953125 -3.429688 0.953125 -5.078125 Z M 4.9375 -0.984375 C 5.707031 -0.984375 6.304688 -1.222656 6.734375 -1.703125 C 7.160156 -2.191406 7.375 -2.894531 7.375 -3.8125 C 7.375 -4.59375 7.175781 -5.207031 6.78125 -5.65625 C 6.382812 -6.113281 5.789062 -6.34375 5 -6.34375 C 4.519531 -6.34375 4.078125 -6.238281 3.671875 -6.03125 C 3.265625 -5.832031 2.9375 -5.554688 2.6875 -5.203125 C 2.445312 -4.859375 2.328125 -4.492188 2.328125 -4.109375 C 2.328125 -3.554688 2.4375 -3.035156 2.65625 -2.546875 C 2.875 -2.066406 3.179688 -1.6875 3.578125 -1.40625 C 3.972656 -1.125 4.425781 -0.984375 4.9375 -0.984375 Z M 4.9375 -0.984375 "/></g></g></g><g fill="#000000" fill-opacity="1"><g transform="translate(298.439303, 364.465118)"><g><path d="M 8.6875 -5.953125 C 8.6875 -3.898438 8.363281 -2.367188 7.71875 -1.359375 C 7.070312 -0.347656 6.082031 0.15625 4.75 0.15625 C 3.46875 0.15625 2.492188 -0.359375 1.828125 -1.390625 C 1.160156 -2.429688 0.828125 -3.953125 0.828125 -5.953125 C 0.828125 -8.023438 1.148438 -9.5625 1.796875 -10.5625 C 2.441406 -11.5625 3.425781 -12.0625 4.75 -12.0625 C 6.03125 -12.0625 7.003906 -11.539062 7.671875 -10.5 C 8.347656 -9.457031 8.6875 -7.941406 8.6875 -5.953125 Z M 2.1875 -5.953125 C 2.1875 -4.222656 2.390625 -2.960938 2.796875 -2.171875 C 3.203125 -1.390625 3.851562 -1 4.75 -1 C 5.644531 -1 6.289062 -1.394531 6.6875 -2.1875 C 7.09375 -2.988281 7.296875 -4.242188 7.296875 -5.953125 C 7.296875 -7.660156 7.09375 -8.910156 6.6875 -9.703125 C 6.289062 -10.492188 5.644531 -10.890625 4.75 -10.890625 C 3.851562 -10.890625 3.203125 -10.5 2.796875 -9.71875 C 2.390625 -8.9375 2.1875 -7.679688 2.1875 -5.953125 Z M 2.1875 -5.953125 "/></g></g></g><g fill="#000000" fill-opacity="1"><g transform="translate(307.955436, 364.465118)"><g/></g></g><g fill="#000000" fill-opacity="1"><g transform="translate(312.278731, 364.465118)"><g><path d="M 8.65625 -1.96875 L 0.84375 -5.390625 L 0.84375 -6.1875 L 8.65625 -10.078125 L 8.65625 -8.875 L 2.296875 -5.859375 L 8.65625 -3.1875 Z M 8.65625 -1.96875 "/></g></g></g><g fill="#000000" fill-opacity="1"><g transform="translate(321.794864, 364.465118)"><g><path d="M 0.96875 -6.96875 L 0.96875 -8.078125 L 8.53125 -8.078125 L 8.53125 -6.96875 Z M 0.96875 -3.640625 L 0.96875 -4.765625 L 8.53125 -4.765625 L 8.53125 -3.640625 Z M 0.96875 -3.640625 "/></g></g></g><g fill="#000000" fill-opacity="1"><g transform="translate(331.310996, 364.465118)"><g/></g></g><g fill="#000000" fill-opacity="1"><g transform="translate(335.634292, 364.465118)"><g><path d="M 9.09375 0 L 7.625 -3.78125 L 2.859375 -3.78125 L 1.390625 0 L 0 0 L 4.703125 -11.921875 L 5.859375 -11.921875 L 10.53125 0 Z M 7.1875 -5.015625 L 5.8125 -8.703125 C 5.632812 -9.171875 5.445312 -9.742188 5.25 -10.421875 C 5.132812 -9.898438 4.96875 -9.328125 4.75 -8.703125 L 3.34375 -5.015625 Z M 7.1875 -5.015625 "/></g></g></g><g fill="#000000" fill-opacity="1"><g transform="translate(346.16623, 364.465118)"><g><path d="M 8.71875 -8.90625 L 8.71875 -8.046875 L 7.0625 -7.859375 C 7.21875 -7.671875 7.351562 -7.421875 7.46875 -7.109375 C 7.59375 -6.804688 7.65625 -6.460938 7.65625 -6.078125 C 7.65625 -5.203125 7.351562 -4.503906 6.75 -3.984375 C 6.15625 -3.460938 5.34375 -3.203125 4.3125 -3.203125 C 4.039062 -3.203125 3.789062 -3.226562 3.5625 -3.28125 C 2.988281 -2.96875 2.703125 -2.582031 2.703125 -2.125 C 2.703125 -1.882812 2.800781 -1.703125 3 -1.578125 C 3.195312 -1.460938 3.539062 -1.40625 4.03125 -1.40625 L 5.609375 -1.40625 C 6.566406 -1.40625 7.304688 -1.203125 7.828125 -0.796875 C 8.347656 -0.390625 8.609375 0.195312 8.609375 0.96875 C 8.609375 1.957031 8.210938 2.707031 7.421875 3.21875 C 6.628906 3.738281 5.472656 4 3.953125 4 C 2.785156 4 1.882812 3.78125 1.25 3.34375 C 0.625 2.914062 0.3125 2.304688 0.3125 1.515625 C 0.3125 0.972656 0.484375 0.503906 0.828125 0.109375 C 1.179688 -0.285156 1.671875 -0.554688 2.296875 -0.703125 C 2.066406 -0.804688 1.875 -0.960938 1.71875 -1.171875 C 1.570312 -1.390625 1.5 -1.644531 1.5 -1.9375 C 1.5 -2.257812 1.582031 -2.539062 1.75 -2.78125 C 1.925781 -3.03125 2.203125 -3.269531 2.578125 -3.5 C 2.117188 -3.6875 1.742188 -4.003906 1.453125 -4.453125 C 1.160156 -4.910156 1.015625 -5.429688 1.015625 -6.015625 C 1.015625 -6.992188 1.304688 -7.742188 1.890625 -8.265625 C 2.472656 -8.796875 3.300781 -9.0625 4.375 -9.0625 C 4.84375 -9.0625 5.265625 -9.007812 5.640625 -8.90625 Z M 1.609375 1.5 C 1.609375 1.976562 1.8125 2.34375 2.21875 2.59375 C 2.625 2.84375 3.207031 2.96875 3.96875 2.96875 C 5.101562 2.96875 5.941406 2.796875 6.484375 2.453125 C 7.023438 2.117188 7.296875 1.660156 7.296875 1.078125 C 7.296875 0.597656 7.144531 0.265625 6.84375 0.078125 C 6.550781 -0.109375 5.992188 -0.203125 5.171875 -0.203125 L 3.5625 -0.203125 C 2.945312 -0.203125 2.46875 -0.0546875 2.125 0.234375 C 1.78125 0.523438 1.609375 0.945312 1.609375 1.5 Z M 2.34375 -6.046875 C 2.34375 -5.429688 2.519531 -4.960938 2.875 -4.640625 C 3.226562 -4.316406 3.71875 -4.15625 4.34375 -4.15625 C 5.664062 -4.15625 6.328125 -4.796875 6.328125 -6.078125 C 6.328125 -7.410156 5.660156 -8.078125 4.328125 -8.078125 C 3.691406 -8.078125 3.203125 -7.90625 2.859375 -7.5625 C 2.515625 -7.226562 2.34375 -6.722656 2.34375 -6.046875 Z M 2.34375 -6.046875 "/></g></g></g><g fill="#000000" fill-opacity="1"><g transform="translate(355.284158, 364.465118)"><g><path d="M 5.1875 0.15625 C 3.875 0.15625 2.835938 -0.242188 2.078125 -1.046875 C 1.316406 -1.847656 0.9375 -2.957031 0.9375 -4.375 C 0.9375 -5.8125 1.289062 -6.953125 2 -7.796875 C 2.707031 -8.640625 3.65625 -9.0625 4.84375 -9.0625 C 5.957031 -9.0625 6.835938 -8.691406 7.484375 -7.953125 C 8.140625 -7.222656 8.46875 -6.257812 8.46875 -5.0625 L 8.46875 -4.203125 L 2.328125 -4.203125 C 2.359375 -3.160156 2.625 -2.367188 3.125 -1.828125 C 3.625 -1.285156 4.328125 -1.015625 5.234375 -1.015625 C 6.191406 -1.015625 7.140625 -1.210938 8.078125 -1.609375 L 8.078125 -0.421875 C 7.609375 -0.210938 7.160156 -0.0664062 6.734375 0.015625 C 6.304688 0.109375 5.789062 0.15625 5.1875 0.15625 Z M 4.828125 -7.9375 C 4.109375 -7.9375 3.535156 -7.703125 3.109375 -7.234375 C 2.691406 -6.773438 2.441406 -6.132812 2.359375 -5.3125 L 7.015625 -5.3125 C 7.015625 -6.15625 6.820312 -6.800781 6.4375 -7.25 C 6.0625 -7.707031 5.523438 -7.9375 4.828125 -7.9375 Z M 4.828125 -7.9375 "/></g></g></g><g fill="#000000" fill-opacity="1"><g transform="translate(560.956432, 364.465118)"><g><path d="M 5.8125 0 L 4.5 0 L 4.5 -8.46875 C 4.5 -9.164062 4.519531 -9.832031 4.5625 -10.46875 C 4.445312 -10.351562 4.316406 -10.234375 4.171875 -10.109375 C 4.035156 -9.984375 3.394531 -9.457031 2.25 -8.53125 L 1.53125 -9.453125 L 4.671875 -11.875 L 5.8125 -11.875 Z M 5.8125 0 "/></g></g></g><g fill="#000000" fill-opacity="1"><g transform="translate(570.472565, 364.465118)"><g><path d="M 8.6875 -5.953125 C 8.6875 -3.898438 8.363281 -2.367188 7.71875 -1.359375 C 7.070312 -0.347656 6.082031 0.15625 4.75 0.15625 C 3.46875 0.15625 2.492188 -0.359375 1.828125 -1.390625 C 1.160156 -2.429688 0.828125 -3.953125 0.828125 -5.953125 C 0.828125 -8.023438 1.148438 -9.5625 1.796875 -10.5625 C 2.441406 -11.5625 3.425781 -12.0625 4.75 -12.0625 C 6.03125 -12.0625 7.003906 -11.539062 7.671875 -10.5 C 8.347656 -9.457031 8.6875 -7.941406 8.6875 -5.953125 Z M 2.1875 -5.953125 C 2.1875 -4.222656 2.390625 -2.960938 2.796875 -2.171875 C 3.203125 -1.390625 3.851562 -1 4.75 -1 C 5.644531 -1 6.289062 -1.394531 6.6875 -2.1875 C 7.09375 -2.988281 7.296875 -4.242188 7.296875 -5.953125 C 7.296875 -7.660156 7.09375 -8.910156 6.6875 -9.703125 C 6.289062 -10.492188 5.644531 -10.890625 4.75 -10.890625 C 3.851562 -10.890625 3.203125 -10.5 2.796875 -9.71875 C 2.390625 -8.9375 2.1875 -7.679688 2.1875 -5.953125 Z M 2.1875 -5.953125 "/></g></g></g><g fill="#000000" fill-opacity="1"><g transform="translate(579.988697, 364.465118)"><g/></g></g><g fill="#000000" fill-opacity="1"><g transform="translate(584.311993, 364.465118)"><g><path d="M 8.65625 -1.96875 L 0.84375 -5.390625 L 0.84375 -6.1875 L 8.65625 -10.078125 L 8.65625 -8.875 L 2.296875 -5.859375 L 8.65625 -3.1875 Z M 8.65625 -1.96875 "/></g></g></g><g fill="#000000" fill-opacity="1"><g transform="translate(593.828125, 364.465118)"><g/></g></g><g fill="#000000" fill-opacity="1"><g transform="translate(598.151421, 364.465118)"><g><path d="M 9.09375 0 L 7.625 -3.78125 L 2.859375 -3.78125 L 1.390625 0 L 0 0 L 4.703125 -11.921875 L 5.859375 -11.921875 L 10.53125 0 Z M 7.1875 -5.015625 L 5.8125 -8.703125 C 5.632812 -9.171875 5.445312 -9.742188 5.25 -10.421875 C 5.132812 -9.898438 4.96875 -9.328125 4.75 -8.703125 L 3.34375 -5.015625 Z M 7.1875 -5.015625 "/></g></g></g><g fill="#000000" fill-opacity="1"><g transform="translate(608.68336, 364.465118)"><g><path d="M 8.71875 -8.90625 L 8.71875 -8.046875 L 7.0625 -7.859375 C 7.21875 -7.671875 7.351562 -7.421875 7.46875 -7.109375 C 7.59375 -6.804688 7.65625 -6.460938 7.65625 -6.078125 C 7.65625 -5.203125 7.351562 -4.503906 6.75 -3.984375 C 6.15625 -3.460938 5.34375 -3.203125 4.3125 -3.203125 C 4.039062 -3.203125 3.789062 -3.226562 3.5625 -3.28125 C 2.988281 -2.96875 2.703125 -2.582031 2.703125 -2.125 C 2.703125 -1.882812 2.800781 -1.703125 3 -1.578125 C 3.195312 -1.460938 3.539062 -1.40625 4.03125 -1.40625 L 5.609375 -1.40625 C 6.566406 -1.40625 7.304688 -1.203125 7.828125 -0.796875 C 8.347656 -0.390625 8.609375 0.195312 8.609375 0.96875 C 8.609375 1.957031 8.210938 2.707031 7.421875 3.21875 C 6.628906 3.738281 5.472656 4 3.953125 4 C 2.785156 4 1.882812 3.78125 1.25 3.34375 C 0.625 2.914062 0.3125 2.304688 0.3125 1.515625 C 0.3125 0.972656 0.484375 0.503906 0.828125 0.109375 C 1.179688 -0.285156 1.671875 -0.554688 2.296875 -0.703125 C 2.066406 -0.804688 1.875 -0.960938 1.71875 -1.171875 C 1.570312 -1.390625 1.5 -1.644531 1.5 -1.9375 C 1.5 -2.257812 1.582031 -2.539062 1.75 -2.78125 C 1.925781 -3.03125 2.203125 -3.269531 2.578125 -3.5 C 2.117188 -3.6875 1.742188 -4.003906 1.453125 -4.453125 C 1.160156 -4.910156 1.015625 -5.429688 1.015625 -6.015625 C 1.015625 -6.992188 1.304688 -7.742188 1.890625 -8.265625 C 2.472656 -8.796875 3.300781 -9.0625 4.375 -9.0625 C 4.84375 -9.0625 5.265625 -9.007812 5.640625 -8.90625 Z M 1.609375 1.5 C 1.609375 1.976562 1.8125 2.34375 2.21875 2.59375 C 2.625 2.84375 3.207031 2.96875 3.96875 2.96875 C 5.101562 2.96875 5.941406 2.796875 6.484375 2.453125 C 7.023438 2.117188 7.296875 1.660156 7.296875 1.078125 C 7.296875 0.597656 7.144531 0.265625 6.84375 0.078125 C 6.550781 -0.109375 5.992188 -0.203125 5.171875 -0.203125 L 3.5625 -0.203125 C 2.945312 -0.203125 2.46875 -0.0546875 2.125 0.234375 C 1.78125 0.523438 1.609375 0.945312 1.609375 1.5 Z M 2.34375 -6.046875 C 2.34375 -5.429688 2.519531 -4.960938 2.875 -4.640625 C 3.226562 -4.316406 3.71875 -4.15625 4.34375 -4.15625 C 5.664062 -4.15625 6.328125 -4.796875 6.328125 -6.078125 C 6.328125 -7.410156 5.660156 -8.078125 4.328125 -8.078125 C 3.691406 -8.078125 3.203125 -7.90625 2.859375 -7.5625 C 2.515625 -7.226562 2.34375 -6.722656 2.34375 -6.046875 Z M 2.34375 -6.046875 "/></g></g></g><g fill="#000000" fill-opacity="1"><g transform="translate(617.801288, 364.465118)"><g><path d="M 5.1875 0.15625 C 3.875 0.15625 2.835938 -0.242188 2.078125 -1.046875 C 1.316406 -1.847656 0.9375 -2.957031 0.9375 -4.375 C 0.9375 -5.8125 1.289062 -6.953125 2 -7.796875 C 2.707031 -8.640625 3.65625 -9.0625 4.84375 -9.0625 C 5.957031 -9.0625 6.835938 -8.691406 7.484375 -7.953125 C 8.140625 -7.222656 8.46875 -6.257812 8.46875 -5.0625 L 8.46875 -4.203125 L 2.328125 -4.203125 C 2.359375 -3.160156 2.625 -2.367188 3.125 -1.828125 C 3.625 -1.285156 4.328125 -1.015625 5.234375 -1.015625 C 6.191406 -1.015625 7.140625 -1.210938 8.078125 -1.609375 L 8.078125 -0.421875 C 7.609375 -0.210938 7.160156 -0.0664062 6.734375 0.015625 C 6.304688 0.109375 5.789062 0.15625 5.1875 0.15625 Z M 4.828125 -7.9375 C 4.109375 -7.9375 3.535156 -7.703125 3.109375 -7.234375 C 2.691406 -6.773438 2.441406 -6.132812 2.359375 -5.3125 L 7.015625 -5.3125 C 7.015625 -6.15625 6.820312 -6.800781 6.4375 -7.25 C 6.0625 -7.707031 5.523438 -7.9375 4.828125 -7.9375 Z M 4.828125 -7.9375 "/></g></g></g><g fill="#000000" fill-opacity="1"><g transform="translate(627.138637, 364.465118)"><g/></g></g><g fill="#000000" fill-opacity="1"><g transform="translate(631.461933, 364.465118)"><g><path d="M 8.65625 -1.96875 L 0.84375 -5.390625 L 0.84375 -6.1875 L 8.65625 -10.078125 L 8.65625 -8.875 L 2.296875 -5.859375 L 8.65625 -3.1875 Z M 8.65625 -1.96875 "/></g></g></g><g fill="#000000" fill-opacity="1"><g transform="translate(640.978065, 364.465118)"><g/></g></g><g fill="#000000" fill-opacity="1"><g transform="translate(645.301361, 364.465118)"><g><path d="M 0.953125 -5.078125 C 0.953125 -7.410156 1.40625 -9.15625 2.3125 -10.3125 C 3.21875 -11.46875 4.5625 -12.046875 6.34375 -12.046875 C 6.945312 -12.046875 7.425781 -11.992188 7.78125 -11.890625 L 7.78125 -10.734375 C 7.363281 -10.867188 6.890625 -10.9375 6.359375 -10.9375 C 5.078125 -10.9375 4.097656 -10.539062 3.421875 -9.75 C 2.753906 -8.957031 2.390625 -7.707031 2.328125 -6 L 2.421875 -6 C 3.023438 -6.9375 3.96875 -7.40625 5.25 -7.40625 C 6.320312 -7.40625 7.164062 -7.082031 7.78125 -6.4375 C 8.394531 -5.789062 8.703125 -4.914062 8.703125 -3.8125 C 8.703125 -2.570312 8.363281 -1.597656 7.6875 -0.890625 C 7.007812 -0.191406 6.097656 0.15625 4.953125 0.15625 C 3.722656 0.15625 2.75 -0.300781 2.03125 -1.21875 C 1.3125 -2.144531 0.953125 -3.429688 0.953125 -5.078125 Z M 4.9375 -0.984375 C 5.707031 -0.984375 6.304688 -1.222656 6.734375 -1.703125 C 7.160156 -2.191406 7.375 -2.894531 7.375 -3.8125 C 7.375 -4.59375 7.175781 -5.207031 6.78125 -5.65625 C 6.382812 -6.113281 5.789062 -6.34375 5 -6.34375 C 4.519531 -6.34375 4.078125 -6.238281 3.671875 -6.03125 C 3.265625 -5.832031 2.9375 -5.554688 2.6875 -5.203125 C 2.445312 -4.859375 2.328125 -4.492188 2.328125 -4.109375 C 2.328125 -3.554688 2.4375 -3.035156 2.65625 -2.546875 C 2.875 -2.066406 3.179688 -1.6875 3.578125 -1.40625 C 3.972656 -1.125 4.425781 -0.984375 4.9375 -0.984375 Z M 4.9375 -0.984375 "/></g></g></g><g fill="#000000" fill-opacity="1"><g transform="translate(654.817494, 364.465118)"><g><path d="M 8.6875 -5.953125 C 8.6875 -3.898438 8.363281 -2.367188 7.71875 -1.359375 C 7.070312 -0.347656 6.082031 0.15625 4.75 0.15625 C 3.46875 0.15625 2.492188 -0.359375 1.828125 -1.390625 C 1.160156 -2.429688 0.828125 -3.953125 0.828125 -5.953125 C 0.828125 -8.023438 1.148438 -9.5625 1.796875 -10.5625 C 2.441406 -11.5625 3.425781 -12.0625 4.75 -12.0625 C 6.03125 -12.0625 7.003906 -11.539062 7.671875 -10.5 C 8.347656 -9.457031 8.6875 -7.941406 8.6875 -5.953125 Z M 2.1875 -5.953125 C 2.1875 -4.222656 2.390625 -2.960938 2.796875 -2.171875 C 3.203125 -1.390625 3.851562 -1 4.75 -1 C 5.644531 -1 6.289062 -1.394531 6.6875 -2.1875 C 7.09375 -2.988281 7.296875 -4.242188 7.296875 -5.953125 C 7.296875 -7.660156 7.09375 -8.910156 6.6875 -9.703125 C 6.289062 -10.492188 5.644531 -10.890625 4.75 -10.890625 C 3.851562 -10.890625 3.203125 -10.5 2.796875 -9.71875 C 2.390625 -8.9375 2.1875 -7.679688 2.1875 -5.953125 Z M 2.1875 -5.953125 "/></g></g></g><g clip-path="url(#5a877ea5a0)"><g clip-path="url(#24f4b47ab3)"><path fill="#d9d9d9" d="M 293.679688 52.398438 L 449.332031 52.398438 L 449.332031 145.71875 L 293.679688 145.71875 Z M 293.679688 52.398438 " fill-opacity="1" fill-rule="nonzero"/></g></g><g fill="#000000" fill-opacity="1"><g transform="translate(328.171204, 104.051823)"><g><path d="M 4 0 L 2.953125 0 L 2.953125 -8.046875 L 0.109375 -8.046875 L 0.109375 -8.96875 L 6.828125 -8.96875 L 6.828125 -8.046875 L 4 -8.046875 Z M 4 0 "/></g></g></g><g fill="#000000" fill-opacity="1"><g transform="translate(335.120793, 104.051823)"><g><path d="M 2.09375 0 L 1.078125 0 L 1.078125 -6.71875 L 2.09375 -6.71875 Z M 1 -8.546875 C 1 -8.773438 1.054688 -8.941406 1.171875 -9.046875 C 1.285156 -9.160156 1.425781 -9.21875 1.59375 -9.21875 C 1.757812 -9.21875 1.898438 -9.160156 2.015625 -9.046875 C 2.140625 -8.941406 2.203125 -8.773438 2.203125 -8.546875 C 2.203125 -8.316406 2.140625 -8.144531 2.015625 -8.03125 C 1.898438 -7.914062 1.757812 -7.859375 1.59375 -7.859375 C 1.425781 -7.859375 1.285156 -7.914062 1.171875 -8.03125 C 1.054688 -8.144531 1 -8.316406 1 -8.546875 Z M 1 -8.546875 "/></g></g></g><g fill="#000000" fill-opacity="1"><g transform="translate(338.298098, 104.051823)"><g><path d="M 3.25 -0.71875 C 3.425781 -0.71875 3.597656 -0.726562 3.765625 -0.75 C 3.941406 -0.78125 4.078125 -0.8125 4.171875 -0.84375 L 4.171875 -0.0625 C 4.054688 -0.0078125 3.890625 0.03125 3.671875 0.0625 C 3.460938 0.101562 3.273438 0.125 3.109375 0.125 C 1.804688 0.125 1.15625 -0.5625 1.15625 -1.9375 L 1.15625 -5.9375 L 0.1875 -5.9375 L 0.1875 -6.421875 L 1.15625 -6.84375 L 1.578125 -8.28125 L 2.171875 -8.28125 L 2.171875 -6.71875 L 4.125 -6.71875 L 4.125 -5.9375 L 2.171875 -5.9375 L 2.171875 -1.96875 C 2.171875 -1.570312 2.265625 -1.265625 2.453125 -1.046875 C 2.648438 -0.828125 2.914062 -0.71875 3.25 -0.71875 Z M 3.25 -0.71875 "/></g></g></g><g fill="#000000" fill-opacity="1"><g transform="translate(342.732831, 104.051823)"><g><path d="M 5.21875 0 L 5.015625 -0.953125 L 4.96875 -0.953125 C 4.625 -0.535156 4.285156 -0.25 3.953125 -0.09375 C 3.617188 0.0507812 3.207031 0.125 2.71875 0.125 C 2.050781 0.125 1.523438 -0.046875 1.140625 -0.390625 C 0.765625 -0.734375 0.578125 -1.222656 0.578125 -1.859375 C 0.578125 -3.210938 1.660156 -3.925781 3.828125 -4 L 4.96875 -4.03125 L 4.96875 -4.453125 C 4.96875 -4.972656 4.851562 -5.359375 4.625 -5.609375 C 4.40625 -5.867188 4.046875 -6 3.546875 -6 C 2.984375 -6 2.347656 -5.828125 1.640625 -5.484375 L 1.328125 -6.25 C 1.660156 -6.4375 2.023438 -6.578125 2.421875 -6.671875 C 2.816406 -6.773438 3.210938 -6.828125 3.609375 -6.828125 C 4.410156 -6.828125 5.003906 -6.648438 5.390625 -6.296875 C 5.773438 -5.941406 5.96875 -5.375 5.96875 -4.59375 L 5.96875 0 Z M 2.90625 -0.71875 C 3.539062 -0.71875 4.039062 -0.890625 4.40625 -1.234375 C 4.769531 -1.585938 4.953125 -2.078125 4.953125 -2.703125 L 4.953125 -3.3125 L 3.9375 -3.265625 C 3.125 -3.234375 2.535156 -3.101562 2.171875 -2.875 C 1.816406 -2.65625 1.640625 -2.3125 1.640625 -1.84375 C 1.640625 -1.476562 1.75 -1.195312 1.96875 -1 C 2.195312 -0.8125 2.507812 -0.71875 2.90625 -0.71875 Z M 2.90625 -0.71875 "/></g></g></g><g fill="#000000" fill-opacity="1"><g transform="translate(349.719222, 104.051823)"><g><path d="M 5.6875 0 L 5.6875 -4.34375 C 5.6875 -4.894531 5.5625 -5.304688 5.3125 -5.578125 C 5.0625 -5.847656 4.671875 -5.984375 4.140625 -5.984375 C 3.429688 -5.984375 2.910156 -5.789062 2.578125 -5.40625 C 2.253906 -5.03125 2.09375 -4.40625 2.09375 -3.53125 L 2.09375 0 L 1.078125 0 L 1.078125 -6.71875 L 1.90625 -6.71875 L 2.078125 -5.796875 L 2.125 -5.796875 C 2.332031 -6.128906 2.625 -6.382812 3 -6.5625 C 3.375 -6.75 3.789062 -6.84375 4.25 -6.84375 C 5.0625 -6.84375 5.671875 -6.644531 6.078125 -6.25 C 6.492188 -5.863281 6.703125 -5.242188 6.703125 -4.390625 L 6.703125 0 Z M 5.6875 0 "/></g></g></g><g fill="#000000" fill-opacity="1"><g transform="translate(357.4294, 104.051823)"><g><path d="M 2.09375 0 L 1.078125 0 L 1.078125 -6.71875 L 2.09375 -6.71875 Z M 1 -8.546875 C 1 -8.773438 1.054688 -8.941406 1.171875 -9.046875 C 1.285156 -9.160156 1.425781 -9.21875 1.59375 -9.21875 C 1.757812 -9.21875 1.898438 -9.160156 2.015625 -9.046875 C 2.140625 -8.941406 2.203125 -8.773438 2.203125 -8.546875 C 2.203125 -8.316406 2.140625 -8.144531 2.015625 -8.03125 C 1.898438 -7.914062 1.757812 -7.859375 1.59375 -7.859375 C 1.425781 -7.859375 1.285156 -7.914062 1.171875 -8.03125 C 1.054688 -8.144531 1 -8.316406 1 -8.546875 Z M 1 -8.546875 "/></g></g></g><g fill="#000000" fill-opacity="1"><g transform="translate(360.606705, 104.051823)"><g><path d="M 3.765625 0.125 C 2.796875 0.125 2.039062 -0.171875 1.5 -0.765625 C 0.96875 -1.367188 0.703125 -2.21875 0.703125 -3.3125 C 0.703125 -4.4375 0.972656 -5.304688 1.515625 -5.921875 C 2.054688 -6.535156 2.828125 -6.84375 3.828125 -6.84375 C 4.148438 -6.84375 4.472656 -6.804688 4.796875 -6.734375 C 5.117188 -6.671875 5.375 -6.59375 5.5625 -6.5 L 5.25 -5.625 C 5.019531 -5.71875 4.769531 -5.789062 4.5 -5.84375 C 4.238281 -5.90625 4.007812 -5.9375 3.8125 -5.9375 C 2.445312 -5.9375 1.765625 -5.066406 1.765625 -3.328125 C 1.765625 -2.503906 1.929688 -1.867188 2.265625 -1.421875 C 2.597656 -0.984375 3.085938 -0.765625 3.734375 -0.765625 C 4.296875 -0.765625 4.875 -0.882812 5.46875 -1.125 L 5.46875 -0.234375 C 5.019531 0.00390625 4.453125 0.125 3.765625 0.125 Z M 3.765625 0.125 "/></g></g></g><g fill="#000000" fill-opacity="1"><g transform="translate(366.587154, 104.051823)"><g/></g></g><g fill="#000000" fill-opacity="1"><g transform="translate(369.850333, 104.051823)"><g><path d="M 8.390625 -4.5625 C 8.390625 -3.082031 7.988281 -1.953125 7.1875 -1.171875 C 6.382812 -0.390625 5.226562 0 3.71875 0 L 1.234375 0 L 1.234375 -8.96875 L 3.984375 -8.96875 C 5.378906 -8.96875 6.460938 -8.582031 7.234375 -7.8125 C 8.003906 -7.039062 8.390625 -5.957031 8.390625 -4.5625 Z M 7.28125 -4.53125 C 7.28125 -5.695312 6.988281 -6.578125 6.40625 -7.171875 C 5.820312 -7.765625 4.953125 -8.0625 3.796875 -8.0625 L 2.28125 -8.0625 L 2.28125 -0.90625 L 3.546875 -0.90625 C 4.785156 -0.90625 5.71875 -1.207031 6.34375 -1.8125 C 6.96875 -2.425781 7.28125 -3.332031 7.28125 -4.53125 Z M 7.28125 -4.53125 "/></g></g></g><g fill="#000000" fill-opacity="1"><g transform="translate(379.008087, 104.051823)"><g><path d="M 5.21875 0 L 5.015625 -0.953125 L 4.96875 -0.953125 C 4.625 -0.535156 4.285156 -0.25 3.953125 -0.09375 C 3.617188 0.0507812 3.207031 0.125 2.71875 0.125 C 2.050781 0.125 1.523438 -0.046875 1.140625 -0.390625 C 0.765625 -0.734375 0.578125 -1.222656 0.578125 -1.859375 C 0.578125 -3.210938 1.660156 -3.925781 3.828125 -4 L 4.96875 -4.03125 L 4.96875 -4.453125 C 4.96875 -4.972656 4.851562 -5.359375 4.625 -5.609375 C 4.40625 -5.867188 4.046875 -6 3.546875 -6 C 2.984375 -6 2.347656 -5.828125 1.640625 -5.484375 L 1.328125 -6.25 C 1.660156 -6.4375 2.023438 -6.578125 2.421875 -6.671875 C 2.816406 -6.773438 3.210938 -6.828125 3.609375 -6.828125 C 4.410156 -6.828125 5.003906 -6.648438 5.390625 -6.296875 C 5.773438 -5.941406 5.96875 -5.375 5.96875 -4.59375 L 5.96875 0 Z M 2.90625 -0.71875 C 3.539062 -0.71875 4.039062 -0.890625 4.40625 -1.234375 C 4.769531 -1.585938 4.953125 -2.078125 4.953125 -2.703125 L 4.953125 -3.3125 L 3.9375 -3.265625 C 3.125 -3.234375 2.535156 -3.101562 2.171875 -2.875 C 1.816406 -2.65625 1.640625 -2.3125 1.640625 -1.84375 C 1.640625 -1.476562 1.75 -1.195312 1.96875 -1 C 2.195312 -0.8125 2.507812 -0.71875 2.90625 -0.71875 Z M 2.90625 -0.71875 "/></g></g></g><g fill="#000000" fill-opacity="1"><g transform="translate(385.994478, 104.051823)"><g><path d="M 3.25 -0.71875 C 3.425781 -0.71875 3.597656 -0.726562 3.765625 -0.75 C 3.941406 -0.78125 4.078125 -0.8125 4.171875 -0.84375 L 4.171875 -0.0625 C 4.054688 -0.0078125 3.890625 0.03125 3.671875 0.0625 C 3.460938 0.101562 3.273438 0.125 3.109375 0.125 C 1.804688 0.125 1.15625 -0.5625 1.15625 -1.9375 L 1.15625 -5.9375 L 0.1875 -5.9375 L 0.1875 -6.421875 L 1.15625 -6.84375 L 1.578125 -8.28125 L 2.171875 -8.28125 L 2.171875 -6.71875 L 4.125 -6.71875 L 4.125 -5.9375 L 2.171875 -5.9375 L 2.171875 -1.96875 C 2.171875 -1.570312 2.265625 -1.265625 2.453125 -1.046875 C 2.648438 -0.828125 2.914062 -0.71875 3.25 -0.71875 Z M 3.25 -0.71875 "/></g></g></g><g fill="#000000" fill-opacity="1"><g transform="translate(390.42921, 104.051823)"><g><path d="M 5.21875 0 L 5.015625 -0.953125 L 4.96875 -0.953125 C 4.625 -0.535156 4.285156 -0.25 3.953125 -0.09375 C 3.617188 0.0507812 3.207031 0.125 2.71875 0.125 C 2.050781 0.125 1.523438 -0.046875 1.140625 -0.390625 C 0.765625 -0.734375 0.578125 -1.222656 0.578125 -1.859375 C 0.578125 -3.210938 1.660156 -3.925781 3.828125 -4 L 4.96875 -4.03125 L 4.96875 -4.453125 C 4.96875 -4.972656 4.851562 -5.359375 4.625 -5.609375 C 4.40625 -5.867188 4.046875 -6 3.546875 -6 C 2.984375 -6 2.347656 -5.828125 1.640625 -5.484375 L 1.328125 -6.25 C 1.660156 -6.4375 2.023438 -6.578125 2.421875 -6.671875 C 2.816406 -6.773438 3.210938 -6.828125 3.609375 -6.828125 C 4.410156 -6.828125 5.003906 -6.648438 5.390625 -6.296875 C 5.773438 -5.941406 5.96875 -5.375 5.96875 -4.59375 L 5.96875 0 Z M 2.90625 -0.71875 C 3.539062 -0.71875 4.039062 -0.890625 4.40625 -1.234375 C 4.769531 -1.585938 4.953125 -2.078125 4.953125 -2.703125 L 4.953125 -3.3125 L 3.9375 -3.265625 C 3.125 -3.234375 2.535156 -3.101562 2.171875 -2.875 C 1.816406 -2.65625 1.640625 -2.3125 1.640625 -1.84375 C 1.640625 -1.476562 1.75 -1.195312 1.96875 -1 C 2.195312 -0.8125 2.507812 -0.71875 2.90625 -0.71875 Z M 2.90625 -0.71875 "/></g></g></g><g fill="#000000" fill-opacity="1"><g transform="translate(397.415601, 104.051823)"><g><path d="M 5.421875 -1.828125 C 5.421875 -1.203125 5.1875 -0.71875 4.71875 -0.375 C 4.25 -0.0390625 3.59375 0.125 2.75 0.125 C 1.863281 0.125 1.171875 -0.015625 0.671875 -0.296875 L 0.671875 -1.25 C 0.992188 -1.082031 1.335938 -0.953125 1.703125 -0.859375 C 2.078125 -0.765625 2.4375 -0.71875 2.78125 -0.71875 C 3.3125 -0.71875 3.71875 -0.800781 4 -0.96875 C 4.289062 -1.144531 4.4375 -1.40625 4.4375 -1.75 C 4.4375 -2.007812 4.320312 -2.234375 4.09375 -2.421875 C 3.863281 -2.609375 3.421875 -2.828125 2.765625 -3.078125 C 2.140625 -3.304688 1.691406 -3.507812 1.421875 -3.6875 C 1.160156 -3.863281 0.96875 -4.0625 0.84375 -4.28125 C 0.71875 -4.5 0.65625 -4.765625 0.65625 -5.078125 C 0.65625 -5.617188 0.875 -6.046875 1.3125 -6.359375 C 1.757812 -6.679688 2.375 -6.84375 3.15625 -6.84375 C 3.875 -6.84375 4.582031 -6.695312 5.28125 -6.40625 L 4.90625 -5.578125 C 4.238281 -5.859375 3.628906 -6 3.078125 -6 C 2.597656 -6 2.234375 -5.921875 1.984375 -5.765625 C 1.742188 -5.609375 1.625 -5.398438 1.625 -5.140625 C 1.625 -4.960938 1.664062 -4.804688 1.75 -4.671875 C 1.84375 -4.546875 1.992188 -4.425781 2.203125 -4.3125 C 2.410156 -4.195312 2.800781 -4.035156 3.375 -3.828125 C 4.175781 -3.535156 4.71875 -3.238281 5 -2.9375 C 5.28125 -2.644531 5.421875 -2.273438 5.421875 -1.828125 Z M 5.421875 -1.828125 "/></g></g></g><g fill="#000000" fill-opacity="1"><g transform="translate(403.408318, 104.051823)"><g><path d="M 3.921875 0.125 C 2.921875 0.125 2.132812 -0.175781 1.5625 -0.78125 C 0.988281 -1.382812 0.703125 -2.226562 0.703125 -3.3125 C 0.703125 -4.394531 0.96875 -5.253906 1.5 -5.890625 C 2.039062 -6.523438 2.757812 -6.84375 3.65625 -6.84375 C 4.5 -6.84375 5.164062 -6.566406 5.65625 -6.015625 C 6.144531 -5.460938 6.390625 -4.734375 6.390625 -3.828125 L 6.390625 -3.171875 L 1.765625 -3.171875 C 1.785156 -2.390625 1.984375 -1.789062 2.359375 -1.375 C 2.734375 -0.96875 3.265625 -0.765625 3.953125 -0.765625 C 4.679688 -0.765625 5.398438 -0.914062 6.109375 -1.21875 L 6.109375 -0.3125 C 5.742188 -0.15625 5.398438 -0.046875 5.078125 0.015625 C 4.753906 0.0859375 4.367188 0.125 3.921875 0.125 Z M 3.640625 -6 C 3.097656 -6 2.664062 -5.820312 2.34375 -5.46875 C 2.03125 -5.113281 1.84375 -4.625 1.78125 -4 L 5.296875 -4 C 5.296875 -4.644531 5.148438 -5.140625 4.859375 -5.484375 C 4.578125 -5.828125 4.171875 -6 3.640625 -6 Z M 3.640625 -6 "/></g></g></g><g fill="#000000" fill-opacity="1"><g transform="translate(410.456047, 104.051823)"><g><path d="M 3.25 -0.71875 C 3.425781 -0.71875 3.597656 -0.726562 3.765625 -0.75 C 3.941406 -0.78125 4.078125 -0.8125 4.171875 -0.84375 L 4.171875 -0.0625 C 4.054688 -0.0078125 3.890625 0.03125 3.671875 0.0625 C 3.460938 0.101562 3.273438 0.125 3.109375 0.125 C 1.804688 0.125 1.15625 -0.5625 1.15625 -1.9375 L 1.15625 -5.9375 L 0.1875 -5.9375 L 0.1875 -6.421875 L 1.15625 -6.84375 L 1.578125 -8.28125 L 2.171875 -8.28125 L 2.171875 -6.71875 L 4.125 -6.71875 L 4.125 -5.9375 L 2.171875 -5.9375 L 2.171875 -1.96875 C 2.171875 -1.570312 2.265625 -1.265625 2.453125 -1.046875 C 2.648438 -0.828125 2.914062 -0.71875 3.25 -0.71875 Z M 3.25 -0.71875 "/></g></g></g><path stroke-linecap="butt" transform="matrix(0, 0.748574, -0.748574, 0, 373.410727, 145.720733)" fill="none" stroke-linejoin="miter" d="M 0.00256873 2.500306 L 91.316798 2.500306 " stroke="#000000" stroke-width="5" stroke-opacity="1" stroke-miterlimit="4"/><path stroke-linecap="round" transform="matrix(0, 0.748574, -0.748574, 0, 373.410727, 145.720733)" fill="none" stroke-linejoin="round" d="M 81.318623 -4.998325 L 91.316798 2.500306 L 81.318623 9.998937 " stroke="#000000" stroke-width="5" stroke-opacity="1" stroke-miterlimit="4"/></svg>